<?xml version="1.0" encoding="utf-8"?>
<!-- Generator: Adobe Illustrator 25.0.1, SVG Export Plug-In . SVG Version: 6.00 Build 0)  -->
<svg version="1.1" id="Ebene_1" xmlns="http://www.w3.org/2000/svg" xmlns:xlink="http://www.w3.org/1999/xlink" x="0px" y="0px"
	 viewBox="0 0 168 189.7" style="enable-background:new 0 0 168 189.7;" xml:space="preserve">
<style type="text/css">
	.st0{fill:#E20613;}
	.st1{fill:#FFFFFF;}
</style>
<g>
	<path class="st0" d="M54.1,79.8C53.2,70.9,53.3,60,61,55.5c3-1.8,6.7-2.2,10.3-2.4c20.3-1.2,40.9,1.1,60.5,6.8
		c-1.1,5.1-4.4,9.4-7.8,13.4c-22,26.5-22.1,50.1-51.7,67.8c-1.7,1-30.3,1.2-32.1,0.3c-1.9-1-2.2-3.4-2.2-5.5
		c-0.4-15.1,0.6-30.1,2.8-45"/>
	<path class="st0" d="M86.1,79.8c-0.4-3.9-0.5-7.7-0.1-11.5c-0.4,2.8-0.8,5.7-1.1,8.5c0.3-2.2,0.8-4.3,1.6-6.4
		c-1.1,2.6-2.2,5.1-3.2,7.7c0.6-1.3,1.3-2.5,2.1-3.6c-1.7,2.2-3.3,4.3-5,6.5c0.7-0.8,1.4-1.5,2.3-2.2c-2.2,1.7-4.3,3.3-6.5,5
		c0.7-0.5,1.4-0.9,2.1-1.2l-7.7,3.2c1.7-0.7,3.3-1.1,5.1-1.4c-2.8,0.4-5.7,0.8-8.5,1.1c12.4-1.5,25.3-0.7,37.7,0.9
		c-2.8-0.4-5.7-0.8-8.5-1.1c9,1.2,18,3.1,26.7,5.6c-7.5-13.1-14.9-26.3-22.4-39.4c-0.4,1.4-0.8,2.7-1.3,4l3.2-7.7
		c-1.3,2.6-2.8,4.9-4.6,7.2c1.7-2.2,3.3-4.3,5-6.5c-8.6,10.7-16.4,21.3-23,33.3c-4.6,8.5-9,17.2-14.8,24.9c1.7-2.2,3.3-4.3,5-6.5
		c-3.7,4.8-7.9,9.1-12.7,12.9c2.2-1.7,4.3-3.3,6.5-5c-2.5,1.9-5.3,4.2-8.2,5.5l7.7-3.2c-0.4,0.1-0.7,0.2-1.1,0.2
		c2.8-0.4,5.7-0.8,8.5-1.1c-9.6,1.2-20.3,1.3-29.9,0.2c2.8,0.4,5.7,0.8,8.5,1.1c-0.3,0-0.6-0.1-0.9-0.2c2.6,1.1,5.1,2.2,7.7,3.2
		c-0.3-0.2-0.5-0.4-0.8-0.6L67,124.7c-0.5-0.5-0.8-1.1-1-1.7c1.1,2.6,2.2,5.1,3.2,7.7c-0.1-0.3-0.2-0.7-0.2-1
		c0.4,2.8,0.8,5.7,1.1,8.5c-0.8-6.7-0.3-13.8,0-20.5c0.3-7.2,1-14.5,1.9-21.7c-0.4,2.8-0.8,5.7-1.1,8.5c0.2-1.7,0.5-3.3,0.7-5
		c1.3-8.9,1.5-16.6-3.2-24.7c-3.9-6.6-11.5-13-19.1-14.7c-8.2-1.9-17.4-1.5-24.7,3.2c-6.5,4.2-13.5,11.1-14.7,19.1
		c-1.6,11.1-3.1,22.3-3.7,33.5c-0.5,10.2-1.2,21.2,1.2,31.3c2.8,11.9,12.8,21.8,24.3,25.2c3.4,1,7.3,1.2,10.9,1.5
		c3.8,0.3,7.7,0.3,11.5,0.3c12.2,0,25.6,0.4,36.3-6.4c15-9.5,26.9-21.9,36.1-37.1c7.6-12.6,13.6-25.9,22.6-37.7
		c-1.7,2.2-3.3,4.3-5,6.5c7.7-9.9,15.5-18.5,18.7-31c4.3-16.9-5.4-34.5-22.4-39.4c-21.9-6.3-45.4-9.3-68.2-8
		c-9.2,0.5-17.9,1.8-26.1,6.2c-7.2,3.9-13.2,10-17.3,17.1C22.6,54.9,21.1,68,22.2,80c0.8,8.7,3,16.3,9.4,22.7
		c5.6,5.6,14.7,9.7,22.7,9.4c8.3-0.4,16.9-3.1,22.7-9.4C82.2,96.5,86.9,88.2,86.1,79.8"/>
	<path class="st1" d="M90.8,41.6c0.4-1.1,0.7-1.9,0.9-2.3c0.6-1.9,0.6-3.5-0.1-4.8c-0.9-0.9-2-1.5-3.3-1.6c-1.2-0.1-2.3,0-3.4,0.6
		c-1.1,0.5-1.9,1.3-2.5,2.2c-0.6,1-0.9,2-0.7,3.2c-0.3-0.1-0.4,0-0.5,0.2s-0.3,0.4-0.5,0.3c-0.6,4.8-0.9,7.3-0.8,7.6
		c0.2,0.1,0.4,0.4,0.5,0.9s0.3,0.8,0.7,0.9c-0.3,1-1,1.5-2.2,1.5c-0.1,0-1.1-0.2-2.9-0.5c-0.2,0-0.4,0.1-0.5,0.3
		c-0.1,0.2-0.3,0.4-0.5,0.4c-0.5-0.4-0.8-0.7-0.9-0.8c-0.3-0.4-0.4-0.8-0.3-1.4c-0.1-0.1,0.5-0.2,1.8-0.3v-0.8
		c-0.2-0.4-0.5-0.6-1.1-0.5c-0.1-0.4,0-1.2,0.3-2.3c0.2-1,0.3-1.7,0.1-2c1.8-3.4,3.8-6.4,5.9-9c1.2-0.2,2.4-1.1,3.5-2.6
		c0.8,0,1.3-0.2,1.5-0.5c2.3-0.3,4.7,0.7,7.3,3c1,2,1.1,4.6,0.5,7.7c-0.6,2.7-1.5,4.9-2.8,6.3c-0.5,1.9-1.6,4-3.4,6.2
		c-2,2.6-3.3,4.5-3.9,5.8c-0.8,0.8-1.5,2-2.3,3.7c-1,2.3-1.6,3.6-1.9,4.1c1.7,0.5,5.8,0.4,12.4-0.2c0.1,0,0.2-0.1,0.3-0.2
		c0-0.2,0.1-0.3,0.2-0.3c1.4-0.1,2.3,0.2,2.6,0.8c0,0.3-0.3,0.5-0.8,0.7c0.2,0,0.5,0.2,1,0.5c0.4,0.2,0.7,0.3,1,0.4
		c-0.5,1.1-0.8,1.6-0.8,1.5c-0.6,0-1.9,0.1-4,0.4c-1.7,0.2-3,0.3-3.8,0.1c-0.7,0.3-2.4,0.5-5.1,0.7c-2.4,0.2-4.1,0.7-5.2,1.4
		c-0.4-0.2-1.1-0.1-2.2,0.3c0-0.5-0.3-0.7-0.8-0.7c-0.1-0.8,0.1-1.5,0.8-1.8c0.7,0.5,1.2,0.5,1.7,0c0-0.1-0.2-0.2-0.5-0.3
		c-0.2-0.1-0.3-0.2-0.4-0.4c-0.1-0.8,0.2-1.3,1-1.5c0.1-0.2,0-0.3-0.2-0.3s-0.2-0.2-0.1-0.3c0.7-3.6,1.2-5.7,1.7-6.5
		c0.1-0.3,0.4-0.7,0.9-1.3c0.4-0.6,0.7-1,0.9-1.4c0.2-0.3,0.4-0.9,0.7-1.7c0.2-0.7,0.5-1.2,0.7-1.5c0.1-0.2,0.3-0.4,0.6-0.7
		c0.3-0.3,0.6-0.5,0.7-0.7c0.2-0.3,0.6-1,1.3-2.1c0.6-1,1-1.7,1.4-2.2c0.2-0.3,0.6-0.8,1.2-1.4c0.6-0.7,1.1-1.2,1.3-1.6
		c1.1-1.3,1.8-2.6,2.1-3.7c0.2,0,0.3,0,0.3,0.2C90.2,43.1,90.4,42.5,90.8,41.6 M76.5,43c0.1-0.7,0.3-1.1,0.8-1.3c0-0.7-0.2-1-0.5-1
		c-0.1,0.3-0.2,0.6-0.4,1c-0.2,0.4-0.3,0.8-0.3,0.9c-0.2,0.7-0.1,1.4,0.2,2L76.5,43z M80.1,62.1c0.9-2.1,1.6-3.6,2.1-4.5
		c0.4-0.2,0.9-0.8,1.4-1.7c0.5-0.8,1-1.4,1.4-1.6v-0.8c1.8-1.5,3.3-3.6,4.5-6.4c-0.5,0.3-1.2,1-1.8,2.2c-0.7,1.1-1.3,1.8-2,2.1
		c-0.5,0.9-1.1,2.1-2,3.4c-1.3,1.9-2,3-2.1,3.2c0-0.1,0-0.1-0.1-0.1c0,0-0.1,0-0.1,0.1c-0.1,0.6-0.7,1.8-1.8,3.8
		c-0.9,1.7-1.4,3.2-1.5,4.5C78.6,65.2,79.3,63.8,80.1,62.1"/>
	<path class="st1" d="M42.6,97.4c0.6,0,0.8-0.1,0.4-0.4c0.6,0.4,0.7,1.4,0.5,2.9c-0.1,0.6-0.4,2-1,4c-0.4,1.4-0.8,2.1-1.2,2.2
		c0,1.6-0.4,3.8-1.1,6.7c-0.8,3.1-1.3,5.3-1.3,6.6c1.1-2.4,2.7-8.4,4.7-18c0.2-0.9,0.2-1.3,0.2-1.1c0.1-0.3,0.4-0.5,0.8-0.6
		c0.1-0.3,0.1-0.5,0-0.8s-0.2-0.5-0.2-0.7c0.9,0.3,1.7,0.8,2.2,1.5c0.1,0.1,0.3,0.4,0.7,1c0.3,0.5,0.5,0.8,0.8,1.1
		c-0.1,0.1-0.1,0.3-0.2,0.5c-0.1,0.2-0.1,0.4-0.2,0.5c-0.1,0.3-0.4,0.5-0.7,0.6c0.1,0.3,0.2,0.6,0,1.1c-0.1,0.4,0,0.8,0.2,1.1
		c0.1-0.1-0.5,2.5-1.7,7.6c-0.4,1.6-1.3,4.1-2.8,7.6c-1.4,3.1-2.2,5.6-2.4,7.4c-1,7.1-1.8,11.3-2.5,12.6c-0.8,6.1-2.1,10.6-3.9,13.6
		c-0.3,0-0.5,0-0.7,0.2c-0.3,0.2-0.5,0.3-0.6,0.3c0.1,0.4,0,0.8-0.3,1l-0.7,0.7c-0.4,0-0.7-0.2-1-0.5c-0.4-0.4-0.6-0.7-0.8-0.8
		c-0.2,0.7-0.9,1.2-2,1.5c-0.3-0.2-0.8-0.6-1.5-1.3c0.3-1.2,0.4-1.7,0.3-1.7c-0.8-1.5-1.3-4-1.8-7.6c-0.4-3.6-1-6-1.7-7.5
		c-0.2-1.7-1.2-5.6-3-11.8c-1.9-13-3.7-21.7-5.2-26.1c0-0.2-0.2-0.3-0.6-0.3c-0.4,0-0.6-0.1-0.6-0.2c-0.4-1.5-0.1-2.4,0.8-2.8
		c0.8-0.3,1.6,0.1,2.2,1.3c0.2-0.1,0.4-0.3,0.7-0.6c0.3-0.4,0.5-0.6,0.8-0.6c0.1,0,0.3,0.2,0.5,0.5s0.5,0.3,1,0.2
		c0.6,2.2,2,8.1,4.2,17.6c1.6,7.2,3.3,12.9,4.9,17.1c0.1,0.9,0.4,2.6,0.9,5.1c0.4,2.1,0.7,3.8,0.8,5.3c1.4-3.8,3.8-12.9,7.1-27.3
		c1.6-6.6,2.5-11.5,2.7-14.8c0.2-2.4,0.6-3.9,1.3-4.4C41.8,97.3,42,97.4,42.6,97.4 M17.9,102.5c0.7,3.3,1.1,5,1.3,5.2
		C19.4,105,19,103.3,17.9,102.5 M20.6,114.2c-0.6-2.8-0.9-4.8-0.9-6h-0.8c1.1,6.9,1.9,10.9,2.5,12.1
		C21.4,118.8,21.1,116.8,20.6,114.2 M23.9,132.3c0.1,0.9,0.5,1.5,1.2,1.7c-1.4-6.5-2.7-10.9-3.9-13.3c0.1,1,0.4,2.6,1,4.9
		c0.6,2,0.8,3.6,0.7,4.7C23.4,130.6,23.7,131.3,23.9,132.3"/>
	<path class="st1" d="M68.1,65c1.3,2.8,2.1,5.8,2.2,9.1c0.1,3.3-0.5,6.3-1.7,9.1c-1.3,3-3.2,5.4-5.8,7.2c0,0.1,0.1,0.3,0.3,0.4
		c0.1,0.1,0.2,0.3,0.3,0.4c-0.1,0.1-0.4,0.3-1,0.7c-0.4,0.3-0.5,0.6-0.3,1c-0.2-0.1-0.7-0.2-1.7-0.3c-0.9,0.7-1.9,1.1-3.2,1.3
		c-1.4,0.2-2.8,0.1-4-0.3c-0.1,0-0.3-0.2-0.6-0.5s-0.6-0.5-0.8-0.6c-1.8-0.7-3.5-1.8-5.1-3.2c-1.8-1.6-2.9-3.2-3.5-4.8
		c0.3-0.7,0.3-1.7-0.1-3.1c-0.4-1.4-0.4-2.5-0.1-3.2c0.6,0.1,1-0.1,1.1-0.4c0.2-0.3,0.2-0.7,0.2-1.3c0.2-0.1,0.6-0.1,1.2,0
		c0.5,0.1,0.7,0.1,0.8-0.1c1.8,1.4,3.7,4.7,5.6,10c1.4,1.2,2.4,2,3.1,2.2c0.9,0.4,2.1,0.4,3.7,0.1c0.2,0,0.3,0,0.5,0.2
		c0.2,0.1,0.3,0.1,0.4,0.1c2.5-1,4.4-3.4,5.6-7.2c1-3,1.4-6,1.3-9.1c0.1-0.1,0.2-0.3,0.5-0.7c0.2-0.3,0.4-0.5,0.6-0.7
		c-0.2-0.5-0.3-1.2-0.4-2c0-0.7-0.1-1.2-0.2-1.5c-0.2-0.2-0.3-0.2-0.5,0C66.3,68,66.1,68,66,67.9c-0.7-1.6-2-2.9-3.8-3.7
		c-3.2-1.5-5.9-1.7-8.3-0.8C53.6,63.5,53,64,52,64.9c-0.8,0.7-1.6,1-2.5,1c-0.1-0.1-0.2-0.3-0.4-0.6c-0.2-0.2-0.3-0.4-0.3-0.5
		c-0.2-0.3-0.2-0.7,0-1.1c-0.3,0-0.6-0.1-1-0.2c-0.5-0.3-0.8-0.4-1-0.4c0.4-1.3,1.8-2.6,4.2-4.1c2.5-1.5,3.9-2.7,4.3-3.6
		c0.3-0.2,0.4-0.2,0.6,0.1c0,0,0.1,0.2,0.1,0.4s0.1,0.3,0.1,0.4c0.2,0,0.2-0.2,0.1-0.7c-0.1-0.4-0.3-0.6-0.5-0.5
		c0.1-0.2,0.2-0.5,0.4-0.8c0.2-0.4,0.4-0.6,0.5-0.8c0.3-0.6,0.3-1.3,0-2.1c0.9-1,1.3-2.4,1.1-4.4c-0.3-3.6-0.5-5.2-0.5-5
		c-0.7-0.9-1-1.6-0.9-2.1c-1.1-1.1-2.7-1.9-4.9-2.4c-0.3,0-0.7-0.2-1.3-0.4c-0.4-0.1-0.7-0.2-1-0.1c-1.4,0.2-3,0.9-4.6,2.3
		c-1.7,1.4-2.8,2.7-3.2,4.1c-0.1,0.1,0,0.3,0.1,0.6c0.1,0.3,0.1,0.5,0.1,0.6c0,0.1-0.2,0.2-0.5,0.3c-0.3,0.1-0.4,0.2-0.4,0.3
		c-0.1,0.3-0.2,1-0.1,2.1c0,0.8-0.1,1.4-0.5,1.8c0.2,0.2,0.3,0.6,0.5,1.3c0.1,0.6,0.4,0.9,0.8,0.9c0.3,1.7,0.3,2.4,0.2,2.3
		c-0.4,0.5-1.1,0.9-1.9,1.1c-0.8,0.2-1.4,0.5-1.7,0.8c-1-0.7-2.3-1.1-3.8-1.2c-0.5-2.9-0.3-5.6,0.6-8.3c0.9-2.6,2.3-4.8,4.3-6.7
		c2-1.9,4.3-3.2,7-4c2.8-0.8,5.5-0.9,8.3-0.2c3.4,1.2,5.9,4.4,7.4,9.6c1.2,4.4,1.5,8.7,0.9,13.1C64.7,59.7,66.7,62,68.1,65
		 M37.7,47.8c0.1-2.3,0.6-3.7,1.4-4.4c-0.1-0.4-0.4-0.5-0.6-0.3c-1.2,2.1-1.9,3.5-2.2,4.3c-0.6,1.8-0.7,3.4-0.1,4.8
		C37.1,51.4,37.6,50,37.7,47.8 M46.1,80.8c0.2,1.4,0.6,2.8,1.3,4.2c0.8,1.8,1.7,2.8,2.7,3.2C49.1,84.9,47.8,82.5,46.1,80.8 M54,59.7
		c0,0.5,0.3,0.7,0.7,0.6c0.4-0.1,0.5-0.4,0.2-0.9L54,59.7z M58,55.5c0.3-0.4,0.4-0.8,0.3-1.3c-0.5,0.2-0.9,0.6-1.1,1.3
		c-0.3,0.7-0.2,1,0.3,1.1C57.4,56.3,57.6,55.9,58,55.5 M60.4,50.4c0-0.2-0.1-0.6-0.1-1.1c-0.1-0.5-0.1-0.9-0.2-1
		c-0.1-0.7-0.4-1.2-0.9-1.4c0.1,0.4,0.1,1.1-0.1,2.1c-0.2,0.9-0.2,1.4,0.1,1.8C59.3,51.1,59.6,50.9,60.4,50.4 M63.8,62.6
		c-1-1.4-2-2.1-3-2.2c0,0.1-0.1,0.3-0.4,0.5c-0.2,0.2-0.2,0.4,0,0.7C62.7,62.3,63.8,62.6,63.8,62.6"/>
	<path class="st1" d="M123.2,37.2c0.2,0.7,0.2,1.3,0.2,1.9c-0.2-0.1-0.6,0.1-1,0.5c-0.1,0.5-0.7,4-1.8,10.5
		c-0.7,4.4-1.6,7.9-2.6,10.6c-1.2,3.3-1.9,5.4-1.9,6.2c-0.1,0.3-0.3,0.3-0.5,0.2c-0.3-0.3-0.5-0.4-0.5-0.4c-0.1,0.3,0.2,0.5,0.8,0.7
		c-0.8,1.9-1.3,3.5-1.4,4.9c0.3,0.1,0.9,0,1.6,0c0.9-0.1,1.4-0.1,1.6-0.2c1.2,0,1.7,0.6,1.4,1.9c-0.5,0.4-1.1,0.5-1.7,0.3
		c0,0.4,0.2,0.9,0.6,1.4s0.5,1,0.5,1.6c-0.7,0.4-1.8,0.4-3.5,0.1c-2.8-0.5-4.3-0.8-4.6-0.8c-0.2,0-0.5,0-1,0.1
		c-0.4,0.1-0.7,0.2-0.9,0.1c-0.3-0.1-0.8-0.3-1.5-0.6c-0.7-0.4-1.2-0.6-1.5-0.6c-0.9-0.2-2.4-0.4-4.4-0.5c-1.7-0.1-2.9-0.3-3.5-0.6
		c0.1-1,0.2-1.6,0.2-1.6c0.5,0.1,1.5,0.2,2.9,0.5c1,0.2,1.9,0.2,2.6,0.2c-0.4-0.2-1.1-0.5-2.2-0.8c-0.9-0.2-1.4-0.5-1.7-0.9
		c0.1-0.7,0.2-1.1,0.3-1.2c0.6,0.1,1.3,0.1,2-0.2c-0.4-0.3,2,0.2,7.2,1.4c0.1-0.4,1.5-4.8,4.3-13.1c1.9-5.7,3.2-10.5,4-14.3
		c-1.2,0.8-4.5,3.8-9.8,8.7c-0.5,0.5-1.2,0.7-2.2,0.7c0,0.1,0-0.3-0.2-1c0-0.3,0.1-0.6,0.4-0.8c-0.1-0.2-0.3-0.2-0.5,0
		s-0.4,0.2-0.6,0.1c-0.4-0.2-0.5-0.5-0.5-0.9c0-0.3,0.1-0.7,0.4-1.3c1.5-0.6,3.2-1.9,5.2-3.9c2.2-2.2,3.9-3.6,4.9-4.3
		c0.9-1.3,2.3-2.7,4.1-4c-0.1-0.3,0-0.9,0.2-1.7c0.2,0.2,0.6,0.2,1-0.1c0.5-0.3,0.8-0.2,1.2,0.1c-0.1,0.4,0,0.9,0.4,1.4
		C122.4,37.1,123,37.1,123.2,37.2 M112.1,72c0.3,0,0.6,0.1,0.9,0.1c0.1-1,0.2-1.6,0.1-1.9c1.1-1.1,1.6-2.5,1.3-4
		c0.5-0.3,0.8-0.8,0.9-1.6c0.2-1.4,0.4-2.1,0.4-2.1c2.3-6.9,3.4-11.1,3.3-12.7c-3.6,10.8-6.3,18.1-7.8,22
		C111.5,71.9,111.8,72,112.1,72 M112.5,66.1c0.2-0.5,0.2-0.8,0-0.9c0,0.1-0.1,0.2-0.2,0.5c-0.1,0.3-0.2,0.5-0.2,0.6
		c-0.2,0.5-0.2,0.9,0.1,1.2C112,67.1,112.2,66.7,112.5,66.1 M113.1,64.3c0.1-0.5,0.3-0.8,0.6-0.8c-0.2,0-0.3-0.1-0.4-0.3
		s-0.2-0.3-0.4-0.3c-0.1,0.7-0.3,1.4-0.5,2C112.8,65,113,64.8,113.1,64.3 M115.1,56.7c-1,3-1.7,5-2,6.2c0.6-0.2,1-1,1.3-2.4
		c0.3-1.5,0.7-2.5,1.1-2.9c0-0.8,0.3-1.9,0.8-3.1c0.6-1.3,0.9-2.4,0.9-3.1c0.1,0,0.2-0.1,0.3-0.2c0.1,0,0.1,0,0.3,0.2
		c-0.1-0.8,0.2-2.3,0.9-4.6c0.7-2.2,1-3.9,0.8-4.9c-0.7,0.8-1.2,2.3-1.6,4.6c-0.4,2.2-0.9,3.8-1.6,4.5
		C116.4,52.4,115.9,54.3,115.1,56.7 M115.1,42.8c0.3-0.2,0.6-0.4,0.7-0.6c0.5-0.5,0.8-0.9,0.8-1.3c-1.4,1.3-2.2,2.1-2.2,2.3
		C114.6,43.2,114.8,43,115.1,42.8 M116,74.4c0,0,0.1-0.1,0.3-0.3l-0.8-0.2c-0.3-0.1-0.5,0-0.5,0.3C115.7,74.3,116,74.4,116,74.4"/>
	<path class="st1" d="M90.9,92.4c0.1,3,1,6.9,2.9,11.5c2.2,5.7,3.5,9.5,3.8,11.3c0.5,2.5,1.5,5.6,3,9.4c1.8,4.5,2.9,7.5,3.3,8.9
		c0.1,0.4,0.3,0.9,0.5,1.8c0.2,0.8,0.3,1.3,0.5,1.8c0.4,1.3,1,2.2,1.8,2.9c-0.7,1.3-1,2.1-1.1,2.2c-1.8,0.2-3.1,0.9-3.8,1.9
		c-1.4-0.3-2.1-0.4-1.8-0.4c-0.2-0.2-0.3-0.3-0.3-0.5c0-0.4,0.1-0.6,0.1-0.6c-0.6,0.2-1.3-0.1-1.9-0.7c-0.6-0.6-1.1-0.9-1.3-0.9
		c-0.2-2.1-0.8-5-1.9-8.7c-1.2-4.5-2-7.4-2.3-8.8c-3.7,0.1-7,0.4-9.9,0.8c-1,11.8-1.5,18.8-1.3,21c-0.3,0-0.5,0-0.6,0.2
		c0,0.1-0.1,0.1-0.1,0.3c0,0.1-0.1,0.2-0.1,0.3c-0.5-0.2-1.5,0-3.1,0.6c-1.6,0.7-2.8,0.6-3.8-0.1c0-0.7-0.1-1.3-0.5-1.7
		c1.4-5.5,2.6-12.9,3.6-22.3c1.3-11.9,2.2-19.5,2.8-22.8c-0.4-2.3,0.1-5.2,1.5-8.6c0.1,0,0.2,0.1,0.4,0.1c0.2,0.1,0.3,0.1,0.3,0.1
		c0.3,0.1,0.4,0.4,0.3,0.7c2.8-1.5,4.2-2.2,4.2-2.2c0.4-0.1,0.7,0.2,0.8,1c0.2-0.1,0.4-0.4,0.6-1c0.2-0.5,0.5-0.7,1.1-0.6
		C89.2,90.8,89.9,91.8,90.9,92.4 M78.2,136.2c0.8-4.5,1.4-7.7,2-9.4c-0.2-2.8,0-6.3,0.6-10.4c0.8-5.8,1.3-9.3,1.3-10.4
		c0.3-3.8,0.3-6.1,0.2-6.8c-1.6,5.9-2.9,13.4-3.9,22.4c-0.3,2.8-0.7,6.7-1.2,11.7c-0.5,5.5-0.9,9.4-1.2,11.7
		C76.8,143.2,77.5,140.3,78.2,136.2 M82,95.7c0.2-1.2,0.4-1.9,0.5-2.1c-0.1-0.2-0.2-0.2-0.5-0.2c-0.5,1.4-0.7,2.8-0.7,4.2
		C81.6,97.2,81.8,96.6,82,95.7 M86.9,116.6c1.2,0,2.3-0.1,3.4-0.3c-0.4-2-2-6.6-4.7-14c-0.2,1.3-0.5,3.7-1.1,7.2
		c-0.5,3-0.8,5.4-0.9,7.4C84.4,116.7,85.5,116.6,86.9,116.6 M88.9,100.6c0,0.1,0.1,0.3,0.2,0.6c0,0.3,0.1,0.4,0.1,0.5
		c0.1,0.4,0.3,0.6,0.6,0.6C89.7,101.3,89.4,100.7,88.9,100.6 M89.7,107.5c2.5,7,3.6,10.4,3.5,10.1C92.5,112.9,91.4,109.5,89.7,107.5
		 M92.7,109.3c-0.3-0.2-0.5-0.3-0.5-0.4c0.1,0.8,0.3,1.1,0.8,1C93,109.7,92.9,109.5,92.7,109.3 M95.3,115.6c-0.3-1-0.5-1.7-0.7-2.2
		c-0.6-1.6-1.1-2.5-1.7-2.5c3.8,9.4,5.7,14,5.7,13.9c-0.2-1.1-0.7-2.3-1.3-3.8c-0.8-1.9-1.2-3-1.4-3.3
		C95.8,117.4,95.6,116.7,95.3,115.6 M97.5,129.3c-0.2-0.6-0.7-1.8-1.4-3.6c-0.6-1.5-1-2.7-1.4-3.6c-0.1-0.2-0.2-0.2-0.5-0.1
		c3.5,10.4,5.3,15.7,5.5,15.9C99.4,135.1,98.7,132.2,97.5,129.3 M101,135.3c0.1,0.3,0.1,0.8,0.2,1.4c0.1,0.7,0.1,1.2,0.2,1.4
		c0.2,1,0.7,1.4,1.6,1.2C102.3,137.4,101.7,136.1,101,135.3"/>
	<path class="st1" d="M58.4,113.2c0.1,0.6,0.4,0.9,0.8,1c0,0.5-0.6,3.7-1.6,9.4c-0.7,4.3-0.9,7.9-0.6,10.6c-0.3,0.5-0.4,1.1-0.4,1.9
		c0,1.3,0,2.2,0,2.6c2,1.1,4.1,0.6,6.3-1.5c1.9-1.8,3.2-4,4.1-6.5c0.4,0.1,0.8,0,1.3-0.2c0.4-0.1,0.8-0.1,1,0.1
		c-0.1,0.3,0.1,0.4,0.5,0.5c-0.3,1.4-1.2,2.9-2.6,4.4c-1.6,1.7-2.6,3-3,3.9c-0.7,0.3-1.5,0.8-2.4,1.5c-1.1,0.8-1.8,1.4-2.3,1.6
		c-4.9,0.4-7.6-1.7-8-6.3c-0.1-0.8,0-1.9,0.2-3.4c0.2-1.8,0.4-3,0.4-3.5c0.1-3.6,0.3-6.2,0.6-7.8c0.1-0.5,0.2-1.2,0.5-1.9
		c0.3-1,0.4-1.6,0.5-1.8c0.4-1.5,0.4-2.8,0.1-4c0.8,0.1,1.5,0,2.1-0.5c0.9-0.7,1.6-1.1,2.1-1.2C58.1,112.1,58.3,112.5,58.4,113.2
		 M53.5,136.1c0,0,0,0.1,0,0.3c-0.1,0.3,0.1,0.4,0.5,0.4c0.1-0.9,0.1-2.2,0-3.9c-0.1-1.9-0.2-3.3-0.1-4.2c0.6-5.2,0.9-7.7,1.1-7.3
		c0.4-0.6,0.6-1.4,0.7-2.4c0-0.9,0-1.5-0.2-1.9c-0.8,2.2-1.4,5.3-1.7,9c-0.1,1-0.3,4.3-0.6,9.9C53.3,135.9,53.4,136,53.5,136.1
		 M55.8,102.7c0.4-1.1,1.2-1.9,2.2-2.6c1-0.6,2-0.9,3-0.7c1,0.2,1.8,0.8,2.1,1.8c0.3,0.8,0.3,1.6,0,2.4s-0.8,1.5-1.5,2.1
		s-1.6,1-2.5,1.1c-1,0.2-2.1,0.1-3.1-0.3C55.4,105.1,55.3,103.9,55.8,102.7"/>
	<path class="st1" d="M117.2,132.9c-0.4,1.2-1.1,2.2-2.2,3.1c-1.1,0.8-2.2,1.2-3.3,1.1c-1.2-0.1-2-0.7-2.5-1.8
		c-0.4-0.8-0.4-1.7-0.2-2.6c0.2-0.9,0.7-1.7,1.5-2.4c0.8-0.7,1.7-1.2,2.7-1.5c1.1-0.3,2.3-0.2,3.5,0.1
		C117.5,130.2,117.6,131.6,117.2,132.9"/>
	<path class="st1" d="M109.5,101.3c0.1-1.4-0.2-4.4-0.8-8.9c-0.6-4.2-0.7-7.3-0.4-9.4c0.9-0.2,1.6-0.1,1.9,0.1
		c0,0.3,0.1,0.4,0.2,0.5c0,0.2,0,0.4-0.1,0.6c-0.1,0.3-0.2,0.5-0.2,0.6c0.3,1.7,0.7,5.4,1.2,10.9c0.5,5.1,1,8.9,1.5,11.4
		c1,5.2,1.5,8.3,1.5,9.2c0,0.2,0,0.5,0,1c0,0.4-0.1,0.8-0.1,1c0,0.7,0.2,1.3,0.6,1.7c-0.2,0.7-0.6,1.2-1.1,1.6
		c-0.7,0.5-1.2,0.9-1.4,1.1c-0.9-0.6-1.8-0.8-2.7-0.7c-0.1-0.1-0.1-0.4-0.1-1.1c0-0.6-0.2-0.9-0.4-0.9c0.1-0.1,0.2-0.3,0.4-0.6
		c0.1-0.3,0.2-0.5,0.3-0.6c-0.4-3.8-0.6-7.4-0.8-10.8c0-0.7-0.2-1.7-0.4-3c-0.2-1.3-0.4-2.3-0.4-3c0-0.6-0.1-1.3-0.4-2.3
		c-0.3-1.2-0.4-2-0.5-2.4c-0.1-0.5-0.1-1.3-0.1-2.4s0-1.8-0.1-2.3c-0.2-2-0.5-3.3-0.8-4c0-0.1-0.2-0.1-0.5-0.1
		c0.3-0.3,0.4-0.9,0.2-1.8c-0.2-0.9-0.4-1.4-0.7-1.5c-0.1-0.7,0-1.2,0.4-1.6c0.5-0.4,1.1-0.5,1.8-0.1
		C107.5,87.7,108.1,93.6,109.5,101.3 M109.7,103c0.6,6,0.9,9.2,1,9.4C110.9,108.9,110.6,105.7,109.7,103 M110.9,113.1
		c0-0.3-0.1-0.4-0.4-0.5c0.3,0.9,0.4,1.3,0.3,1.3C110.8,113.8,110.8,113.5,110.9,113.1 M111.4,118.3c-0.1-0.3-0.2-0.5-0.4-0.5
		c-0.1,0.2,0,0.5,0.1,0.8s0.3,0.5,0.5,0.6C111.6,119.3,111.5,119,111.4,118.3 M111.4,116.5c0-0.2-0.1-0.4-0.4-0.4
		c-0.1,0.2-0.1,0.4-0.1,0.6s0.1,0.3,0.2,0.4C111.3,116.9,111.4,116.7,111.4,116.5 M112.5,112.6c-0.1-1.3-0.3-2.3-0.7-3
		c0,3.2,0.4,5.2,1,5.9C112.7,115.2,112.6,114.2,112.5,112.6"/>
	<path class="st1" d="M144.9,63.9c1.4,0.4-2.4,0.3,2.1,0.6c4.2,0.2,5.7,0.2,7.7,0.9c0,0.9,1.5,2.1,1.2,2.3c-0.3-0.1-0.4,0-0.5,0.1
		c-0.2,0-0.4-0.1-0.6-0.2c-0.3-0.2-0.5-0.3-0.6-0.3c-1.7,0-5.4-0.3-10.9-0.9c-5.1-0.5-8.9-0.7-11.5-0.7c-5.3,0-2.3,0.2-3.2,0
		c-0.2,0,0.2,0.1-0.3,0c-0.4-0.1-0.8-0.2-1-0.3c-0.7-0.1-1.3,0-1.8,0.3c-0.7-0.3-1.1-0.8-1.4-1.4c-0.4-0.8-0.7-1.3-0.8-1.6
		c0.8-0.8,1.1-1.6,1.2-2.5c0.1-0.1,0.4,0,1.1,0.1c0.6,0.1,0.9,0,1-0.2c0.1,0.1,0.3,0.3,0.5,0.5c0.3,0.2,0.5,0.3,0.5,0.4
		c3.8,0.3,0.5,0.4,3.9,0.8c0.7,0.1,1.7,0.1,3,0.2c1.3,0,2.3,0,3,0.2c0.6,0.1,1.3,0.1,2.3,0c1.2-0.1,2,0,2.5,0c0.5,0,1.3,0.1,2.4,0.4
		c1.1,0.2,1.8,0.3,2.3,0.3c2,0.2,3.3,0.1,4.1,0c0.1,0,0.1-0.2,0.2-0.5c0.2,0.4,0.8,0.6,1.7,0.5c0.9,0,1.5-0.1,1.6-0.4
		c0.7,0,1.2,0.2,1.5,0.7c0.3,0.6,0.3,1.2-0.2,1.8c-4.1-0.8-10-1.3-17.9-1.4 M136.4,63.4c-6-0.5-9.2-0.8-9.4-0.8
		C130.4,63.5,133.6,63.8,136.4,63.4 M126.3,62.7c0.3,0.1,0.4,0,0.6-0.3c-0.9,0.1-1.4,0.1-1.3,0.1C125.6,62.5,125.9,62.5,126.3,62.7
		 M127.9,62.6c0.3,0,0.5-0.1,0.6-0.3c-0.2-0.1-0.5-0.1-0.8-0.1c-0.3,0-0.5,0.2-0.7,0.4C126.9,62.6,127.2,62.6,127.9,62.6
		 M126.5,64.4c1.3,0.1,5.1,0.4,5.8,0.1c-3.1-0.6-6.2-0.5-7.3-0.4C125.3,64,124.9,64.2,126.5,64.4"/>
</g>
</svg>
