<?xml version="1.0" encoding="utf-8"?>
<!-- Generator: Adobe Illustrator 25.1.0, SVG Export Plug-In . SVG Version: 6.00 Build 0)  -->
<svg version="1.1" id="Ebene_1" xmlns="http://www.w3.org/2000/svg" xmlns:xlink="http://www.w3.org/1999/xlink" x="0px" y="0px"
	 viewBox="0 0 168 189.7" style="enable-background:new 0 0 168 189.7;" xml:space="preserve">
<style type="text/css">
	.st0{fill:#E20613;}
	.st1{fill:#F5C500;}
	.st2{fill:#FFFFFF;}
</style>
<g>
	<path class="st0" d="M52.6,77.7c-0.9-8.9-0.8-19.8,6.9-24.3c3-1.8,6.7-2.2,10.3-2.4c20.3-1.2,40.9,1.1,60.5,6.8
		c-1.1,5.1-4.4,9.4-7.8,13.4c-22,26.5-22.1,50.1-51.7,67.8c-1.7,1-30.3,1.2-32.1,0.3c-1.9-1-2.2-3.4-2.2-5.5
		c-0.4-15.1,0.6-30.1,2.8-45"/>
	<path class="st1" d="M84.6,77.7c-0.4-3.9-0.5-7.7-0.1-11.5c-0.4,2.8-0.8,5.7-1.1,8.5c0.3-2.2,0.8-4.3,1.6-6.4
		c-1.1,2.6-2.2,5.1-3.2,7.7c0.6-1.3,1.3-2.5,2.1-3.6c-1.7,2.2-3.3,4.3-5,6.5c0.7-0.8,1.4-1.5,2.3-2.2c-2.2,1.7-4.3,3.3-6.5,5
		c0.7-0.5,1.4-0.9,2.1-1.2l-7.7,3.2c1.7-0.7,3.3-1.1,5.1-1.4c-2.8,0.4-5.7,0.8-8.5,1.1c12.4-1.5,25.3-0.7,37.7,0.9
		c-2.8-0.4-5.7-0.8-8.5-1.1c9,1.2,18,3.1,26.7,5.6c-7.5-13.1-14.9-26.3-22.4-39.4c-0.4,1.4-0.8,2.7-1.3,4l3.2-7.7
		c-1.3,2.6-2.8,4.9-4.6,7.2c1.7-2.2,3.3-4.3,5-6.5c-8.6,10.7-16.4,21.3-23,33.3c-4.6,8.5-9,17.2-14.8,24.9c1.7-2.2,3.3-4.3,5-6.5
		c-3.7,4.8-7.9,9.1-12.7,12.9c2.2-1.7,4.3-3.3,6.5-5c-2.5,1.9-5.3,4.2-8.2,5.5l7.7-3.2c-0.4,0.1-0.7,0.2-1.1,0.2
		c2.8-0.4,5.7-0.8,8.5-1.1c-9.6,1.2-20.3,1.3-29.9,0.2c2.8,0.4,5.7,0.8,8.5,1.1c-0.3,0-0.6-0.1-0.9-0.2c2.6,1.1,5.1,2.2,7.7,3.2
		c-0.3-0.2-0.5-0.4-0.8-0.6l11.5,11.5c-0.5-0.5-0.8-1.1-1-1.7c1.1,2.6,2.2,5.1,3.2,7.7c-0.1-0.3-0.2-0.7-0.2-1
		c0.4,2.8,0.8,5.7,1.1,8.5c-0.8-6.7-0.3-13.8,0-20.5c0.3-7.2,1-14.5,1.9-21.7c-0.4,2.8-0.8,5.7-1.1,8.5c0.2-1.7,0.5-3.3,0.7-5
		c1.3-8.9,1.5-16.6-3.2-24.7C63,66.1,55.4,59.7,47.8,58c-8.2-1.9-17.4-1.5-24.7,3.2C16.6,65.4,9.6,72.3,8.4,80.3
		c-1.6,11.1-3.1,22.3-3.7,33.5C4.2,124,3.5,135,5.9,145.1c2.8,11.9,12.8,21.8,24.3,25.2c3.4,1,7.3,1.2,10.9,1.5
		c3.8,0.3,7.7,0.3,11.5,0.3c12.2,0,25.6,0.4,36.3-6.4c15-9.5,26.9-21.9,36.1-37.1c7.6-12.6,13.6-25.9,22.6-37.7
		c-1.7,2.2-3.3,4.3-5,6.5c7.7-9.9,15.5-18.5,18.7-31c4.3-16.9-5.4-34.5-22.4-39.4c-21.9-6.3-45.4-9.3-68.2-8
		c-9.2,0.5-17.9,1.8-26.1,6.2c-7.2,3.9-13.2,10-17.3,17.1c-6.2,10.5-7.7,23.6-6.6,35.6c0.8,8.7,3,16.3,9.4,22.7
		c5.6,5.6,14.7,9.7,22.7,9.4c8.3-0.4,16.9-3.1,22.7-9.4C80.7,94.4,85.4,86.1,84.6,77.7"/>
	<g>
		<path class="st2" d="M47.8,56.2c0.5,0.9,1.4,1.4,2.7,1.4c0.8,0,1.4-0.1,1.8-0.4c0.5-0.3,0.8-0.6,1-1c0.3-0.5,0.4-1,0.5-1.5
			c0.1-0.6,0.1-1.3,0.1-1.9s0-1.4-0.1-1.9c-0.1-0.6-0.3-1.1-0.6-1.6c-0.3-0.5-0.6-0.9-1.3-1.1c-0.5-0.3-1.3-0.4-2-0.4h-2v-4.3h2
			c0.6,0,1.3-0.1,1.6-0.4c0.5-0.3,0.8-0.6,1.1-1.1c0.3-0.5,0.5-1,0.6-1.5c0.1-0.6,0.3-1.1,0.3-1.8c0-1.5-0.3-2.5-0.8-3
			c-0.5-0.6-1.3-0.9-2.3-0.9c-0.6,0-1.1,0.1-1.6,0.4c-0.4,0.3-0.8,0.6-1,1c-0.3,0.5-0.4,1-0.5,1.5c-0.1,0.6-0.1,1.3-0.1,2h-5.7
			c0-3,0.8-5.3,2.3-6.8c1.5-1.5,3.8-2.3,6.7-2.3c2.8,0,4.9,0.6,6.5,1.9c1.5,1.3,2.3,3.3,2.3,6c0,1.9-0.4,3.3-1.3,4.6
			c-0.9,1.3-1.9,1.9-3.4,2.3v0.1c2,0.3,3.4,1.1,4.2,2.4c0.8,1.3,1.3,2.9,1.3,4.8c0,1-0.1,2.2-0.4,3.2s-0.8,2-1.5,2.9
			c-0.8,0.9-1.8,1.6-3,2.2s-3,0.8-5.2,0.8c-2.9,0-5.2-0.8-6.6-2.4c-1.5-1.6-2.2-3.9-2.2-6.8v-0.1h6C47.2,53.9,47.4,55.2,47.8,56.2z"
			/>
		<path class="st2" d="M63.8,61c0-1.4,0.1-2.7,0.4-3.8c0.3-1.1,0.6-2.3,1.3-3.4c0.5-1,1.3-2.2,2.2-3.2s1.8-2,2.9-3l2.5-2.3
			c0.6-0.6,1.3-1.1,1.6-1.6c0.4-0.5,0.8-1,1-1.5c0.3-0.5,0.4-1.1,0.5-1.6c0.1-0.5,0.1-1.3,0.1-2c0-2.5-1-3.8-3-3.8
			c-0.8,0-1.4,0.1-1.8,0.5c-0.5,0.3-0.8,0.8-1,1.3c-0.3,0.5-0.4,1.1-0.5,1.9c-0.1,0.8-0.1,1.5-0.1,2.3h-6v-1.1
			c0-2.8,0.8-5.1,2.3-6.6s3.9-2.3,7.2-2.3c3,0,5.5,0.8,6.8,2.2c1.5,1.4,2.3,3.6,2.3,6.2c0,1-0.1,1.9-0.3,2.8
			c-0.1,0.9-0.5,1.6-0.8,2.4c-0.4,0.8-0.9,1.5-1.5,2.3c-0.6,0.8-1.4,1.5-2.2,2.3l-3.4,3.2c-0.9,0.9-1.6,1.6-2.2,2.4
			c-0.5,0.8-0.9,1.5-1,2h11.5v4.8h-19V61z"/>
		<path class="st2" d="M127.7,51h-19.5v-4h19.5V51z"/>
		<path class="st2" d="M92.3,39.4h-6.1v-4.1h0.5c2,0,3.7-0.4,4.9-1.1c1.1-0.8,1.9-2,2.3-3.8h4.6V61h-6.2V39.4z"/>
	</g>
	<g>
		<path class="st2" d="M68.1,71.9h-4.8v-5.6h4.8V71.9z"/>
		<path class="st2" d="M76.7,71.9h-4.8v-5.6h4.8V71.9z"/>
		<path class="st2" d="M85.4,71.9h-4.8v-5.6h4.8V71.9z"/>
	</g>
	<g>
		<path class="st2" d="M35.7,112.2c0.9-5.1,2.7-9.7,5.4-13.8c2.7-4.2,6.1-7.6,10-10.4c3.9-2.7,8.3-4.7,13.2-5.8
			c4.8-1.1,9.8-1.3,14.9-0.4s9.7,2.7,13.8,5.4c4.2,2.7,7.6,6.1,10.4,10c2.7,3.9,4.7,8.3,5.8,13.2c1.1,4.8,1.3,9.8,0.4,14.9
			c-0.9,5.1-2.7,9.7-5.4,13.8c-2.7,4.2-6.1,7.6-10,10.4c-3.9,2.8-8.3,4.7-13.2,5.8c-4.8,1.1-9.8,1.3-14.9,0.4
			c-5.1-0.9-9.7-2.7-13.8-5.4c-4.2-2.7-7.6-6.1-10.4-10s-4.7-8.3-5.8-13.2C34.9,122.2,34.8,117.3,35.7,112.2z M45.6,113.9
			c-0.7,3.7-0.6,7.3,0.3,10.9c0.8,3.5,2.3,6.7,4.3,9.6s4.5,5.3,7.6,7.3c3,2,6.4,3.3,10.1,4s7.3,0.6,10.9-0.3
			c3.5-0.8,6.7-2.3,9.6-4.3s5.3-4.5,7.3-7.6c2-3,3.3-6.4,4-10.1c0.7-3.7,0.6-7.3-0.3-10.9c-0.8-3.5-2.3-6.7-4.3-9.6
			s-4.5-5.3-7.6-7.3c-3-2-6.4-3.3-10.1-4s-7.3-0.6-10.9,0.3c-3.5,0.8-6.7,2.3-9.6,4.3c-2.9,2-5.3,4.5-7.3,7.6
			C47.5,106.8,46.2,110.2,45.6,113.9z M68.3,143c-3.4-0.6-6.4-1.8-9.1-3.6c-2.7-1.8-5-4-6.8-6.6s-3.1-5.5-3.9-8.6
			c-0.8-3.1-0.8-6.4-0.2-9.8s1.8-6.4,3.6-9.1s4-5,6.6-6.8s5.5-3.1,8.6-3.9s6.4-0.8,9.8-0.2c3.4,0.6,6.4,1.8,9.1,3.6
			c2.7,1.8,5,4,6.8,6.6s3.1,5.5,3.9,8.6s0.8,6.4,0.2,9.8c-0.6,3.4-1.8,6.4-3.6,9.1c-1.8,2.7-4,5-6.6,6.8s-5.5,3.1-8.6,3.9
			C74.9,143.5,71.7,143.6,68.3,143z M57.8,116.1c-0.4,2-0.3,4,0.1,6c0.5,1.9,1.2,3.7,2.3,5.2c1.1,1.6,2.5,2.9,4.1,4
			c1.7,1.1,3.5,1.8,5.5,2.2s4,0.3,6-0.1c1.9-0.5,3.7-1.2,5.3-2.3c1.6-1.1,2.9-2.5,4-4.1c1.1-1.7,1.8-3.5,2.2-5.5c0.4-2,0.3-4-0.1-6
			c-0.5-1.9-1.2-3.7-2.3-5.2c-1.1-1.6-2.5-2.9-4.1-4c-1.7-1.1-3.5-1.8-5.5-2.2c-2-0.4-4-0.3-6,0.1c-1.9,0.5-3.7,1.2-5.2,2.3
			c-1.6,1.1-2.9,2.5-4,4.1C58.9,112.2,58.2,114.1,57.8,116.1z"/>
	</g>
	<g>
		<path class="st2" d="M102.9,90.2c1.1,0.6,2.3,1.1,3.6,1.5c1,0.5,2.2,0.9,3.6,1.3s2.7,0.7,4.1,1c2.5,0.4,3.9-0.3,4.2-2.1
			c0.1-0.7-0.1-1.5-0.8-2.3c-0.6-0.9-1.4-1.8-2.4-2.9s-2.1-2.3-3.2-3.6c-1.1-1.3-2.2-2.8-3.1-4.4s-1.6-3.4-2-5.2
			c-0.4-1.9-0.5-4-0.1-6.2c0.4-2.5,1.3-4.7,2.6-6.5c1.3-1.8,2.8-3.2,4.7-4.2c1.8-1,3.9-1.7,6.2-2c2.3-0.3,4.7-0.2,7.2,0.2
			c1.3,0.2,2.6,0.5,3.9,0.9c1.3,0.4,2.4,0.7,3.4,1c1.2,0.4,2.3,0.7,3.4,1.1l-2.7,15.1c-0.4-0.1-0.9-0.3-1.4-0.4
			c-0.4-0.1-0.9-0.3-1.4-0.4s-1.1-0.3-1.7-0.4c-0.3-0.1-0.7-0.1-1.2-0.2s-1-0.1-1.4,0c-0.5,0-0.9,0.2-1.2,0.4
			c-0.4,0.2-0.6,0.6-0.7,1s0.2,1,0.8,1.8s1.4,1.7,2.3,2.7c0.9,1.1,1.9,2.3,3,3.6c1.1,1.4,2,2.9,2.8,4.5s1.4,3.4,1.8,5.4
			c0.4,2,0.4,4.1,0,6.4c-0.4,2.4-1.2,4.5-2.3,6.5c-1.1,1.9-2.6,3.5-4.5,4.8s-4.1,2.1-6.8,2.6c-2.6,0.5-5.7,0.4-9.1-0.2
			c-2.1-0.4-3.9-0.8-5.7-1.3c-1.7-0.5-3.2-1-4.5-1.5c-1.5-0.5-2.9-1.1-4.1-1.7L102.9,90.2z M108,101.1c0.7,0.3,1.5,0.6,2.4,0.8
			c0.7,0.2,1.5,0.5,2.3,0.7s1.7,0.4,2.5,0.6c1.5,0.3,3,0.4,4.5,0.3s2.9-0.5,4.2-1.1c1.3-0.6,2.4-1.5,3.3-2.6
			c0.9-1.1,1.5-2.6,1.8-4.5c0.3-1.6,0.1-3.1-0.4-4.7c-0.5-1.5-1.3-3.1-2.3-4.6s-2.1-3-3.2-4.4c-1.2-1.4-2.3-2.9-3.3-4.3
			s-1.8-2.8-2.4-4.2c-0.6-1.4-0.7-2.7-0.5-4c0.3-1.9,1.2-3.3,2.7-4.2c1.4-0.8,3.5-1,6.3-0.5c0.4,0.1,0.9,0.2,1.3,0.3
			c0.5,0.1,0.9,0.2,1.3,0.4c0.4,0.1,0.8,0.2,1.3,0.3l0.4-2.1c-0.4-0.1-0.8-0.2-1.2-0.3s-0.8-0.2-1.2-0.3c-0.5-0.1-0.9-0.2-1.4-0.3
			c-2.9-0.5-5.4-0.3-7.6,0.7c-2.1,1-3.4,2.9-3.9,5.7c-0.3,1.5-0.1,3,0.4,4.5s1.3,2.9,2.3,4.4s2.1,2.9,3.2,4.4
			c1.2,1.4,2.3,2.9,3.3,4.3s1.8,2.9,2.3,4.3c0.6,1.4,0.7,2.9,0.5,4.3c-0.5,2.6-1.7,4.4-3.7,5.4s-4.5,1.3-7.6,0.7
			c-1.8-0.3-3.5-0.8-5-1.3c-0.8-0.2-1.6-0.5-2.3-0.8L108,101.1z"/>
	</g>
	<g>
		<path class="st2" d="M60.7,129.9c-0.9,0.9-2.2,2.1-4,3.7c-3.5,3-6.5,5.7-8.9,7.9c-6.1,5.7-9.6,9-10.5,9.7c-2.3,2-3.9,3.4-4.8,4
			c-0.3,0.2-0.8,0.6-1.5,1c-0.9-0.4-1.6-0.8-2.4-1.3l-6-3.8l-2.5-3.7c0.7-0.5,1.2-0.9,1.6-1.2c1.6-1.1,4.4-2.7,8.5-4.7l13.2-6.7
			l14.1-7.1l3.4,1.7L60.7,129.9z M64.2,125.2c-1.1-1.5-1.4-3.2-1.1-5.1s1.3-3.3,2.9-4.4c1.5-1.1,3.2-1.4,5.1-1.1s3.3,1.3,4.4,2.8
			c1.1,1.6,1.5,3.3,1.1,5.1s-1.3,3.3-2.8,4.4c-1.6,1.1-3.3,1.5-5.1,1.1C66.7,127.7,65.2,126.7,64.2,125.2z"/>
	</g>
	<g>
		<path class="st2" d="M6.6,51.4l18-3.2l7,39.9l14.9-2.6L49,99.7l-32.9,5.8L6.6,51.4z M43.4,93.9L43.1,92L25,95.2l-6.9-39.1L16,56.5
			l7.2,41.1L43.4,93.9z"/>
	</g>
</g>
</svg>
