<?xml version="1.0" encoding="UTF-8" standalone="no"?>
<svg
   xmlns:ns="&amp;ns_sfw;"
   xmlns:dc="http://purl.org/dc/elements/1.1/"
   xmlns:cc="http://creativecommons.org/ns#"
   xmlns:rdf="http://www.w3.org/1999/02/22-rdf-syntax-ns#"
   xmlns:svg="http://www.w3.org/2000/svg"
   xmlns="http://www.w3.org/2000/svg"
   xmlns:sodipodi="http://sodipodi.sourceforge.net/DTD/sodipodi-0.dtd"
   xmlns:inkscape="http://www.inkscape.org/namespaces/inkscape"
   version="1.1"
   id="svg6065"
   x="0px"
   y="0px"
   viewBox="0 0 971.9 274.5"
   style="enable-background:new 0 0 971.9 274.5;"
   xml:space="preserve"
   sodipodi:docname="RSI_inv.svg"
   inkscape:version="1.0.1 (c497b03c, 2020-09-10)"><defs
   id="defs2995" /><sodipodi:namedview
   pagecolor="#ffffff"
   bordercolor="#666666"
   borderopacity="1"
   objecttolerance="10"
   gridtolerance="10"
   guidetolerance="10"
   inkscape:pageopacity="0"
   inkscape:pageshadow="2"
   inkscape:window-width="1440"
   inkscape:window-height="855"
   id="namedview2993"
   showgrid="false"
   inkscape:pagecheckerboard="true"
   inkscape:zoom="1.0886924"
   inkscape:cx="485.95001"
   inkscape:cy="137.25"
   inkscape:window-x="0"
   inkscape:window-y="23"
   inkscape:window-maximized="1"
   inkscape:current-layer="g2988" />
<style
   type="text/css"
   id="style2926">
	.st0{fill:#AE001D;}
	.st1{fill:#FFFFFF;}
	.st2{fill:#333333;}
</style>
<metadata
   id="metadata2928">
	<ns:sfw>
		<ns:slices />
		<ns:sliceSourceBounds
   bottomLeftOrigin="true"
   height="274.5"
   width="971.9"
   x="0"
   y="0" />
	</ns:sfw>
<rdf:RDF><cc:Work
     rdf:about=""><dc:format>image/svg+xml</dc:format><dc:type
       rdf:resource="http://purl.org/dc/dcmitype/StillImage" /><dc:title></dc:title></cc:Work></rdf:RDF></metadata>
<g
   id="g2990">
	<g
   id="g2938">
		<rect
   class="st0"
   width="364.9"
   height="274.5"
   id="rect2930" />
		<path
   class="st1"
   d="M95.5,135.1l-2,8.5c-0.6,2.4-0.8,3.6-0.8,4.5c0,2,0.6,3.6,2,6.1l24.1,43.3c2,3.4,3.6,4.9,8.5,4.9h22.1    c2.8,0,6.3-1.8,3-6.9l-29.5-49c9.9-6.3,21-15.2,21-34.8c0-25.3-14.2-39.5-45.3-39.5H53.4c-4,0-5.3,1.4-5.3,5.5v119.1    c0,4.1,1.2,5.5,5.3,5.5H72c4,0,5.3-1.4,5.3-5.5V96.3h19.2c12.1,0,18,4.5,18,15.8c0,10.3-4.7,13.6-9.3,15.6    C99.3,130.1,97.3,127.4,95.5,135.1"
   id="path2932" />
		<path
   class="st1"
   d="M172.5,181.5l-2.4,15.6c-0.4,3,1,4.2,3.6,4.6c5.9,0.8,20.6,1.8,35,1.8c32.2,0,55.6-10.5,55.6-40.5    c0-17.6-7.7-30.8-34.4-37.6l-15-3.8c-10.1-2.6-14.8-5.9-14.8-13.3c0-10.5,9.7-12.6,19-12.6c12.5,0,25.3,1,30.3,1.4    c5.3,0.4,6.7-0.2,7.5-4.7l2.4-15.2c0.4-3-1-4.3-3.6-4.6c-5.9-0.8-18.8-1.8-35.2-1.8c-33.4,0-49.6,14.6-49.6,37.6    c0,20.8,11.3,33.2,31,38.2l15,3.8c12.3,3.2,17.6,6.9,17.6,14.6c0,11.3-7.7,13.3-26.3,13.3c-8.5,0-23.3-1.2-28.3-1.6    C174.7,176.4,173.3,177,172.5,181.5"
   id="path2934" />
		<path
   class="st1"
   d="M287.6,196.8c0,4.1,1.2,5.5,5.3,5.5h18.6c4,0,5.3-1.4,5.3-5.5V77.7c0-4-1.2-5.5-5.3-5.5h-18.6    c-4,0-5.3,1.4-5.3,5.5V196.8z"
   id="path2936" />
	</g>
	<g
   id="g2988">
		<path
   class="st2"
   d="M443.1,130.7l-18.4-24.4l1.2-5.3c2.3-0.2,4.4-0.4,6.3-0.6c1.9-0.3,3.4-0.7,4.7-1.4c1.3-0.7,2.3-1.6,3-2.7    c0.7-1.2,1-2.7,1-4.6c0-3.2-0.8-5.4-2.3-6.8c-1.6-1.4-4.4-2.1-8.5-2.1h-9.5v48h-7.5V76.4H432c5.9,0,10.1,1.3,12.7,4    c2.5,2.7,3.8,6.3,3.8,11c0,2.6-0.4,4.8-1.3,6.5s-2.1,3.1-3.5,4.2c-1.5,1-3.1,1.9-4.9,2.4c-1.8,0.6-3.6,1-5.4,1.3l19,24.9H443.1z"
   id="path2940"
   style="fill:#ffffff;fill-opacity:1" />
		<path
   class="st2"
   d="M459.4,91.2c0.2-0.1,0.7-0.2,1.5-0.4c0.8-0.2,1.9-0.5,3.2-0.8c1.3-0.3,2.7-0.5,4.4-0.7c1.6-0.2,3.3-0.3,5-0.3    c4.7,0,8.3,1,10.8,3s3.8,5.3,3.8,9.9v28.8h-5.7l-0.6-2.7c-0.3,0.2-0.8,0.5-1.5,0.9s-1.6,0.8-2.6,1.2s-2.2,0.8-3.6,1    c-1.4,0.3-3,0.4-4.8,0.4c-1.7,0-3.4-0.2-5-0.6c-1.6-0.4-3-1.1-4.2-2c-1.2-1-2.2-2.3-3-3.9s-1.1-3.7-1.1-6.2    c0-4.9,1.2-8.4,3.7-10.4c2.5-2.1,6.2-3.1,11.2-3.1c1.1,0,2.3,0,3.4,0.1c1.2,0.1,2.2,0.2,3.2,0.3c1,0.1,1.8,0.3,2.4,0.4    s1,0.2,1.1,0.2v-3.1c0-1.2-0.1-2.3-0.4-3.3s-0.8-1.8-1.5-2.5s-1.7-1.2-3-1.6c-1.3-0.3-3-0.5-5.1-0.5c-1.4,0-2.8,0.1-4.1,0.2    c-1.3,0.2-2.6,0.4-3.7,0.6s-2,0.4-2.8,0.6s-1.2,0.3-1.4,0.4L459.4,91.2z M471.5,125.7c1.1,0,2.2-0.1,3.3-0.3    c1.1-0.2,2.1-0.4,2.9-0.7c0.9-0.3,1.6-0.5,2.2-0.7s0.9-0.4,1.1-0.5v-11.8c-0.1,0-0.4,0-1-0.1s-1.3-0.2-2.1-0.2    c-0.8-0.1-1.8-0.2-2.8-0.2c-1-0.1-2.1-0.1-3.3-0.1c-3.2,0-5.5,0.5-6.9,1.6c-1.4,1-2.2,3.1-2.2,6.2c0,1.5,0.2,2.6,0.7,3.5    c0.4,0.9,1,1.6,1.8,2.1s1.7,0.8,2.8,1S470.2,125.7,471.5,125.7"
   id="path2942"
   style="fill:#ffffff;fill-opacity:1" />
		<path
   class="st2"
   d="M525.2,128c-0.2,0.2-0.6,0.4-1.2,0.8c-0.6,0.4-1.4,0.8-2.4,1.2s-2.1,0.8-3.3,1.1s-2.6,0.5-4.2,0.5    c-5.4,0-9.6-1.7-12.5-5c-2.9-3.4-4.4-8.7-4.4-16.1s1.5-12.9,4.6-16.3c3-3.5,7.6-5.2,13.8-5.2c1.1,0,2.1,0.1,3.2,0.2    c1,0.1,2,0.3,2.8,0.4c0.8,0.2,1.5,0.3,2.1,0.4s0.9,0.2,1,0.3V72.2h7.2v58.5H526L525.2,128z M524.6,96.3c-0.2-0.1-1.1-0.2-2.8-0.5    s-3.7-0.4-6.1-0.4c-1.9,0-3.6,0.2-5,0.7c-1.4,0.5-2.5,1.3-3.4,2.5s-1.5,2.7-2,4.7c-0.4,1.9-0.6,4.4-0.6,7.3s0.2,5.3,0.6,7.2    c0.4,1.9,1.1,3.4,2,4.6c0.9,1.1,2,1.9,3.3,2.4s3,0.7,4.8,0.7c1.2,0,2.3-0.1,3.3-0.3c1-0.2,2-0.5,2.8-0.7c0.8-0.3,1.5-0.5,2-0.8    c0.5-0.2,0.8-0.4,1-0.5L524.6,96.3L524.6,96.3z"
   id="path2944"
   style="fill:#ffffff;fill-opacity:1" />
		<path
   class="st2"
   d="M543,74.6h8v8.1h-8V74.6z M543.4,90h7.2v40.7h-7.2V90z"
   id="path2946"
   style="fill:#ffffff;fill-opacity:1" />
		<path
   class="st2"
   d="M560.2,110.4c0-4,0.4-7.4,1.2-10.1s2-4.9,3.6-6.6s3.5-2.9,5.8-3.6s4.9-1.1,7.7-1.1c2.9,0,5.4,0.4,7.7,1.1    s4.2,1.9,5.8,3.6s2.8,3.9,3.6,6.6s1.2,6.1,1.2,10.1s-0.4,7.3-1.2,10s-2,4.9-3.6,6.6s-3.5,2.9-5.8,3.6c-2.3,0.7-4.8,1.1-7.7,1.1    s-5.4-0.4-7.7-1.1c-2.3-0.7-4.2-1.9-5.8-3.6c-1.6-1.7-2.8-3.9-3.6-6.6C560.6,117.7,560.2,114.4,560.2,110.4 M567.7,110.4    c0,3,0.2,5.4,0.6,7.4c0.4,2,1,3.5,1.9,4.7s2,2,3.4,2.5s3,0.7,5,0.7c1.9,0,3.5-0.2,4.9-0.7s2.5-1.3,3.4-2.5s1.5-2.7,2-4.7    c0.4-2,0.6-4.4,0.6-7.4s-0.2-5.4-0.6-7.4c-0.4-2-1.1-3.5-2-4.7s-2-2-3.4-2.5s-3-0.7-4.9-0.7s-3.6,0.2-5,0.7s-2.5,1.3-3.4,2.5    s-1.5,2.8-1.9,4.7C567.9,105,567.7,107.4,567.7,110.4"
   id="path2948"
   style="fill:#ffffff;fill-opacity:1" />
		<path
   class="st2"
   d="M615.5,95.8v23.6c0,0.9,0.1,1.7,0.2,2.5c0.1,0.7,0.4,1.4,0.8,1.9s1,0.9,1.8,1.2s1.9,0.4,3.3,0.4    c1,0,1.9,0,2.8-0.1c0.9-0.1,1.7-0.2,2.4-0.3c0.7-0.1,1.3-0.3,1.8-0.4s0.8-0.2,1-0.2l-0.4,5.7c-0.1,0.1-1.1,0.3-2.9,0.7    c-1.8,0.4-4.3,0.6-7.4,0.6c-3.4,0-6.1-0.8-7.9-2.5c-1.8-1.7-2.7-4.2-2.7-7.5V95.8h-5.9V90h5.9V79.2h7.1V90h12.7v5.8H615.5z"
   id="path2950"
   style="fill:#ffffff;fill-opacity:1" />
		<path
   class="st2"
   d="M666,129.9c-0.3,0.1-0.8,0.3-1.5,0.4c-0.8,0.2-1.7,0.4-2.9,0.6c-1.2,0.2-2.6,0.4-4.1,0.5    c-1.5,0.2-3.2,0.2-5,0.2c-3.2,0-5.9-0.4-8.3-1.1c-2.3-0.8-4.3-2-5.8-3.7c-1.6-1.7-2.7-3.9-3.5-6.6s-1.2-6-1.2-9.9    c0-7.4,1.5-12.8,4.4-16.3c3-3.4,7.4-5.1,13.2-5.1c5.7,0,10,1.5,12.9,4.5s4.3,8.1,4.3,15.2v4.4H641c0.2,2.5,0.5,4.6,1.1,6.1    c0.6,1.6,1.4,2.8,2.5,3.7c1.1,0.9,2.5,1.5,4.1,1.8s3.5,0.5,5.6,0.5c1.3,0,2.6-0.1,4-0.2c1.3-0.1,2.6-0.3,3.7-0.5    c1.2-0.2,2.1-0.4,3-0.5s1.3-0.3,1.5-0.3L666,129.9z M651.3,94.9c-1.8,0-3.3,0.2-4.6,0.6s-2.3,1.1-3.1,2.1s-1.4,2.3-1.9,3.9    c-0.4,1.6-0.7,3.5-0.7,5.8h20.2c0-2.4-0.2-4.4-0.6-6c-0.4-1.6-1-2.9-1.8-3.9s-1.8-1.7-3.1-2.1C654.6,95.1,653.1,94.9,651.3,94.9"
   id="path2952"
   style="fill:#ffffff;fill-opacity:1" />
		<rect
   x="677.6"
   y="72.2"
   class="st2"
   width="7.2"
   height="58.5"
   id="rect2954"
   style="fill:#ffffff;fill-opacity:1" />
		<path
   class="st2"
   d="M726.5,129.9c-0.3,0.1-0.8,0.3-1.5,0.4c-0.8,0.2-1.7,0.4-2.9,0.6c-1.2,0.2-2.6,0.4-4.1,0.5    c-1.5,0.2-3.2,0.2-5,0.2c-3.2,0-5.9-0.4-8.3-1.1c-2.3-0.8-4.3-2-5.8-3.7c-1.6-1.7-2.7-3.9-3.5-6.6s-1.2-6-1.2-9.9    c0-7.4,1.5-12.8,4.4-16.3c3-3.4,7.4-5.1,13.2-5.1c5.7,0,10,1.5,12.9,4.5s4.3,8.1,4.3,15.2v4.4h-27.4c0.2,2.5,0.5,4.6,1.1,6.1    c0.6,1.6,1.4,2.8,2.5,3.7c1.1,0.9,2.5,1.5,4.1,1.8s3.5,0.5,5.6,0.5c1.3,0,2.6-0.1,4-0.2c1.3-0.1,2.6-0.3,3.7-0.5    c1.2-0.2,2.1-0.4,3-0.5c0.8-0.2,1.3-0.3,1.5-0.3L726.5,129.9z M711.8,94.9c-1.8,0-3.3,0.2-4.6,0.6s-2.3,1.1-3.1,2.1    s-1.4,2.3-1.9,3.9c-0.4,1.6-0.7,3.5-0.7,5.8h20.2c0-2.4-0.2-4.4-0.6-6c-0.4-1.6-1-2.9-1.8-3.9s-1.8-1.7-3.1-2.1    C715,95.1,713.5,94.9,711.8,94.9"
   id="path2956"
   style="fill:#ffffff;fill-opacity:1" />
		<polygon
   class="st2"
   points="764,90 771.4,90 756.3,130.7 748.4,130.7 733.1,90 741,90 752.6,122.6   "
   id="polygon2958"
   style="fill:#ffffff;fill-opacity:1" />
		<path
   class="st2"
   d="M777.5,74.6h8v8.1h-8V74.6z M777.9,90h7.2v40.7h-7.2V90z"
   id="path2960"
   style="fill:#ffffff;fill-opacity:1" />
		<path
   class="st2"
   d="M794.7,124.5c0.3,0.1,0.8,0.1,1.7,0.2s1.9,0.2,3.1,0.4c1.2,0.1,2.4,0.3,3.7,0.4s2.6,0.2,3.8,0.2    c3.6,0,6.2-0.3,7.7-1.1c1.5-0.7,2.3-2.2,2.3-4.6c0-2-0.6-3.5-1.8-4.4s-3.2-1.6-6.2-2.1l-4.8-1c-3-0.5-5.3-1.8-7.1-3.7    c-1.8-1.9-2.7-4.6-2.7-7.9c0-3.5,1.2-6.4,3.7-8.6c2.4-2.2,6.4-3.3,11.9-3.3c1.4,0,2.9,0.1,4.2,0.2s2.6,0.3,3.7,0.5    c1.1,0.2,2,0.4,2.8,0.6s1.2,0.3,1.4,0.4l-1,5.6c-0.3-0.1-0.8-0.1-1.6-0.3c-0.8-0.1-1.7-0.3-2.8-0.4s-2.2-0.3-3.5-0.4    c-1.2-0.1-2.4-0.2-3.5-0.2c-1.2,0-2.4,0.1-3.4,0.2s-1.9,0.4-2.7,0.8s-1.4,1-1.8,1.7c-0.4,0.7-0.6,1.7-0.6,2.8    c0,0.9,0.1,1.7,0.4,2.3c0.2,0.7,0.6,1.2,1.1,1.7s1.2,0.8,2.1,1.1c0.9,0.3,2,0.6,3.3,0.8l5.1,1.1c4.1,0.8,6.9,2.1,8.5,4.1    s2.3,4.6,2.3,7.8c0,4.4-1.5,7.5-4.4,9.4s-7,2.9-12.1,2.9c-1.8,0-3.5-0.1-5.1-0.2c-1.6-0.1-2.9-0.3-4.2-0.5c-1.2-0.2-2.2-0.4-3-0.5    s-1.3-0.3-1.5-0.3L794.7,124.5z"
   id="path2962"
   style="fill:#ffffff;fill-opacity:1" />
		<path
   class="st2"
   d="M832.5,74.6h8v8.1h-8V74.6z M832.9,90h7.2v40.7h-7.2V90z"
   id="path2964"
   style="fill:#ffffff;fill-opacity:1" />
		<path
   class="st2"
   d="M849.5,110.4c0-4,0.4-7.4,1.2-10.1s2-4.9,3.6-6.6s3.5-2.9,5.8-3.6s4.9-1.1,7.7-1.1c2.9,0,5.4,0.4,7.7,1.1    s4.2,1.9,5.8,3.6s2.8,3.9,3.6,6.6s1.2,6.1,1.2,10.1s-0.4,7.3-1.2,10s-2,4.9-3.6,6.6s-3.5,2.9-5.8,3.6c-2.3,0.7-4.8,1.1-7.7,1.1    c-2.8,0-5.4-0.4-7.7-1.1c-2.3-0.7-4.2-1.9-5.8-3.6c-1.6-1.7-2.8-3.9-3.6-6.6C849.9,117.7,849.5,114.4,849.5,110.4 M857,110.4    c0,3,0.2,5.4,0.6,7.4c0.4,2,1,3.5,1.9,4.7s2,2,3.4,2.5s3,0.7,5,0.7c1.9,0,3.5-0.2,4.9-0.7s2.5-1.3,3.4-2.5s1.5-2.7,2-4.7    c0.4-2,0.7-4.4,0.7-7.4s-0.2-5.4-0.7-7.4c-0.4-2-1.1-3.5-2-4.7s-2-2-3.4-2.5s-3-0.7-4.9-0.7s-3.6,0.2-5,0.7s-2.5,1.3-3.4,2.5    s-1.5,2.8-1.9,4.7C857.2,105,857,107.4,857,110.4"
   id="path2966"
   style="fill:#ffffff;fill-opacity:1" />
		<path
   class="st2"
   d="M920.5,103.6c0-2.5-0.5-4.4-1.5-5.8s-2.9-2.1-5.8-2.1c-1.5,0-2.9,0.1-4.2,0.4s-2.4,0.6-3.4,0.9    c-0.9,0.3-1.7,0.7-2.3,1s-1,0.5-1.1,0.6v32.2H895V90h5.9l0.4,3c0.3-0.2,0.9-0.5,1.7-0.9c0.8-0.5,1.8-0.9,3-1.3s2.6-0.8,4.1-1.2    c1.5-0.3,3.2-0.5,4.9-0.5c4,0,7.2,1,9.4,2.9c2.2,2,3.3,5.1,3.3,9.4v29.3h-7.2L920.5,103.6L920.5,103.6z"
   id="path2968"
   style="fill:#ffffff;fill-opacity:1" />
		<path
   class="st2"
   d="M969.4,129.9c-0.3,0.1-0.8,0.3-1.5,0.4c-0.8,0.2-1.7,0.4-2.9,0.6c-1.2,0.2-2.6,0.4-4.1,0.5    c-1.5,0.2-3.2,0.2-5,0.2c-3.2,0-5.9-0.4-8.3-1.1c-2.3-0.8-4.3-2-5.8-3.7c-1.6-1.7-2.7-3.9-3.5-6.6s-1.2-6-1.2-9.9    c0-7.4,1.5-12.8,4.4-16.3c3-3.4,7.4-5.1,13.2-5.1c5.7,0,10,1.5,12.9,4.5s4.3,8.1,4.3,15.2v4.4h-27.4c0.2,2.5,0.5,4.6,1.1,6.1    c0.6,1.6,1.4,2.8,2.5,3.7c1.1,0.9,2.5,1.5,4.1,1.8s3.5,0.5,5.6,0.5c1.3,0,2.6-0.1,4-0.2c1.3-0.1,2.6-0.3,3.8-0.5s2.1-0.4,3-0.5    c0.8-0.2,1.3-0.3,1.5-0.3L969.4,129.9z M954.7,94.9c-1.8,0-3.3,0.2-4.6,0.6s-2.3,1.1-3.1,2.1s-1.4,2.3-1.9,3.9    c-0.4,1.6-0.7,3.5-0.7,5.8h20.2c0-2.4-0.2-4.4-0.6-6c-0.4-1.6-1-2.9-1.8-3.9s-1.8-1.7-3.1-2.1S956.4,94.9,954.7,94.9"
   id="path2970"
   style="fill:#ffffff;fill-opacity:1" />
		<polygon
   class="st2"
   points="476.7,161.6 484.1,161.6 469,202.3 461.1,202.3 445.9,161.6 453.8,161.6 465.3,194.2   "
   id="polygon2972"
   style="fill:#ffffff;fill-opacity:1" />
		<path
   class="st2"
   d="M490,146.2h8v8.1h-8V146.2z M490.4,161.6h7.2v40.7h-7.2V161.6z"
   id="path2974"
   style="fill:#ffffff;fill-opacity:1" />
		<polygon
   class="st2"
   points="507.1,161.6 538.7,161.6 539.4,167.1 514.7,196.5 540.4,196.5 539.5,202.3 506.3,202.3 506.3,196.8     531.1,167.4 507.1,167.4   "
   id="polygon2976"
   style="fill:#ffffff;fill-opacity:1" />
		<polygon
   class="st2"
   points="547.4,161.6 579,161.6 579.7,167.1 555,196.5 580.7,196.5 579.8,202.3 546.6,202.3 546.6,196.8     571.4,167.4 547.4,167.4   "
   id="polygon2978"
   style="fill:#ffffff;fill-opacity:1" />
		<path
   class="st2"
   d="M617.4,201.5c-0.3,0.1-0.8,0.3-1.5,0.4c-0.8,0.2-1.7,0.4-2.9,0.6c-1.2,0.2-2.6,0.4-4.1,0.5    c-1.5,0.2-3.2,0.2-5,0.2c-3.2,0-5.9-0.4-8.3-1.1c-2.3-0.8-4.3-2-5.8-3.7c-1.6-1.7-2.7-3.9-3.5-6.6c-0.8-2.7-1.2-6-1.2-9.9    c0-7.4,1.5-12.8,4.4-16.3c3-3.4,7.4-5.1,13.2-5.1c5.7,0,10,1.5,12.9,4.5s4.3,8.1,4.3,15.2v4.4h-27.4c0.2,2.5,0.5,4.6,1.1,6.1    c0.6,1.6,1.4,2.8,2.5,3.7s2.5,1.5,4.1,1.8s3.5,0.5,5.6,0.5c1.3,0,2.6-0.1,4-0.2c1.3-0.1,2.6-0.3,3.7-0.5c1.2-0.2,2.1-0.4,3-0.5    c0.8-0.2,1.3-0.3,1.5-0.3L617.4,201.5z M602.7,166.5c-1.8,0-3.3,0.2-4.6,0.6c-1.3,0.4-2.3,1.1-3.1,2.1s-1.4,2.3-1.9,3.9    c-0.4,1.6-0.7,3.5-0.7,5.8h20.2c0-2.4-0.2-4.4-0.6-6c-0.4-1.6-1-2.9-1.8-3.9s-1.8-1.7-3.1-2.1C606,166.7,604.5,166.5,602.7,166.5"
   id="path2980"
   style="fill:#ffffff;fill-opacity:1" />
		<path
   class="st2"
   d="M650.3,168c-0.3-0.1-0.8-0.3-1.6-0.4c-0.8-0.2-1.8-0.3-3.2-0.3c-1.2,0-2.4,0.2-3.5,0.4c-1.1,0.3-2,0.6-2.9,1    c-0.8,0.3-1.5,0.7-2.1,1c-0.5,0.3-0.9,0.6-1,0.7v31.9h-7v-40.7h5.9l0.4,3.6c0.4-0.4,0.9-0.8,1.6-1.3c0.7-0.5,1.5-1,2.5-1.4    c0.9-0.5,2-0.8,3.1-1.2c1.1-0.3,2.2-0.5,3.4-0.5c1.7,0,3,0.1,3.9,0.3s1.5,0.4,1.8,0.5L650.3,168z"
   id="path2982"
   style="fill:#ffffff;fill-opacity:1" />
		<path
   class="st2"
   d="M658.2,162.8c0.2-0.1,0.7-0.2,1.5-0.4s1.9-0.5,3.2-0.8s2.7-0.5,4.4-0.7c1.6-0.2,3.3-0.3,5-0.3    c4.7,0,8.3,1,10.8,3s3.8,5.3,3.8,9.9v28.8h-5.7l-0.6-2.7c-0.3,0.2-0.8,0.5-1.5,0.9s-1.6,0.8-2.6,1.2s-2.2,0.8-3.6,1    c-1.4,0.3-3,0.4-4.8,0.4c-1.7,0-3.4-0.2-5-0.6c-1.6-0.4-3-1.1-4.2-2c-1.2-1-2.2-2.3-3-3.9c-0.8-1.6-1.1-3.7-1.1-6.2    c0-4.9,1.2-8.4,3.8-10.4c2.5-2.1,6.2-3.1,11.2-3.1c1.1,0,2.3,0,3.4,0.1c1.2,0.1,2.2,0.2,3.2,0.3s1.8,0.3,2.4,0.4    c0.6,0.1,1,0.2,1.1,0.2v-3.1c0-1.2-0.1-2.3-0.4-3.3c-0.3-1-0.8-1.8-1.5-2.5s-1.7-1.2-3-1.6c-1.3-0.3-3-0.5-5.1-0.5    c-1.4,0-2.8,0.1-4.1,0.2c-1.3,0.2-2.6,0.4-3.7,0.6c-1.1,0.2-2,0.4-2.8,0.6c-0.8,0.2-1.2,0.3-1.4,0.4L658.2,162.8z M670.3,197.3    c1.1,0,2.2-0.1,3.3-0.3s2.1-0.4,3-0.7s1.6-0.5,2.2-0.7c0.6-0.2,0.9-0.4,1.1-0.5v-11.8c-0.1,0-0.4,0-1-0.1s-1.3-0.2-2.1-0.2    c-0.8-0.1-1.8-0.2-2.8-0.2c-1.1-0.1-2.1-0.1-3.3-0.1c-3.2,0-5.5,0.5-6.9,1.6c-1.4,1-2.2,3.1-2.2,6.2c0,1.5,0.2,2.6,0.6,3.5    c0.4,0.9,1,1.6,1.8,2.1s1.7,0.8,2.8,1C667.8,197.2,669,197.3,670.3,197.3"
   id="path2984"
   style="fill:#ffffff;fill-opacity:1" />
		<path
   class="st2"
   d="M413.3,196.1c0.3,0.1,0.8,0.1,1.7,0.2c0.9,0.1,1.9,0.2,3.1,0.4c1.2,0.1,2.4,0.3,3.7,0.4    c1.3,0.1,2.6,0.2,3.8,0.2c3.6,0,6.2-0.3,7.7-1.1c1.5-0.7,2.3-2.2,2.3-4.6c0-2-0.6-3.5-1.8-4.4c-1.2-0.9-3.3-1.6-6.2-2.1l-4.8-1    c-3-0.5-5.3-1.8-7.1-3.7c-1.8-1.9-2.7-4.6-2.7-7.9c0-3.5,1.2-6.4,3.7-8.6c2.4-2.2,6.4-3.3,11.9-3.3c1.4,0,2.9,0.1,4.2,0.2    c1.4,0.1,2.6,0.3,3.7,0.5s2,0.4,2.8,0.6c0.8,0.2,1.2,0.3,1.4,0.4l-1,5.6c-0.3-0.1-0.8-0.1-1.6-0.3c-0.8-0.1-1.7-0.3-2.8-0.4    c-1.1-0.1-2.2-0.3-3.5-0.4c-1.2-0.1-2.4-0.2-3.5-0.2c-1.2,0-2.4,0.1-3.4,0.2c-1,0.1-1.9,0.4-2.7,0.8c-0.8,0.4-1.4,1-1.8,1.7    s-0.6,1.7-0.6,2.8c0,0.9,0.1,1.7,0.4,2.3c0.2,0.7,0.6,1.2,1.1,1.7s1.2,0.8,2.1,1.1s2,0.6,3.3,0.8l5.1,1.1c4.1,0.8,6.9,2.1,8.5,4.1    s2.3,4.6,2.3,7.8c0,4.4-1.5,7.5-4.4,9.4s-6.9,2.9-12.1,2.9c-1.8,0-3.5-0.1-5.1-0.2c-1.6-0.1-2.9-0.3-4.2-0.5    c-1.2-0.2-2.2-0.4-3-0.5c-0.8-0.2-1.3-0.3-1.5-0.3L413.3,196.1z"
   id="path2986"
   style="fill:#ffffff;fill-opacity:1" />
	</g>
</g>
</svg>
