<?xml version="1.0" encoding="UTF-8" standalone="no"?>
<svg
   xmlns:dc="http://purl.org/dc/elements/1.1/"
   xmlns:cc="http://creativecommons.org/ns#"
   xmlns:rdf="http://www.w3.org/1999/02/22-rdf-syntax-ns#"
   xmlns:svg="http://www.w3.org/2000/svg"
   xmlns="http://www.w3.org/2000/svg"
   xmlns:sodipodi="http://sodipodi.sourceforge.net/DTD/sodipodi-0.dtd"
   xmlns:inkscape="http://www.inkscape.org/namespaces/inkscape"
   version="1.0"
   width="961.35541"
   height="266.84818"
   viewBox="-1.2188625 -1.2188625 146.37037 40.608517"
   id="svg6220"
   sodipodi:docname="RTS_inv.svg"
   inkscape:version="1.0.1 (c497b03c, 2020-09-10)">
  <metadata
     id="metadata3587">
    <rdf:RDF>
      <cc:Work
         rdf:about="">
        <dc:format>image/svg+xml</dc:format>
        <dc:type
           rdf:resource="http://purl.org/dc/dcmitype/StillImage" />
        <dc:title></dc:title>
      </cc:Work>
    </rdf:RDF>
  </metadata>
  <sodipodi:namedview
     pagecolor="#ffffff"
     bordercolor="#666666"
     borderopacity="1"
     objecttolerance="10"
     gridtolerance="10"
     guidetolerance="10"
     inkscape:pageopacity="0"
     inkscape:pageshadow="2"
     inkscape:window-width="1440"
     inkscape:window-height="855"
     id="namedview3585"
     showgrid="false"
     inkscape:pagecheckerboard="true"
     fit-margin-top="0"
     fit-margin-left="0"
     fit-margin-right="0"
     fit-margin-bottom="0"
     inkscape:zoom="1.0333009"
     inkscape:cx="637.54713"
     inkscape:cy="142.13404"
     inkscape:window-x="0"
     inkscape:window-y="23"
     inkscape:window-maximized="1"
     inkscape:current-layer="g4171" />
  <defs
     id="defs6222" />
  <path
     d="M 59.383637,39.399159 H -1.2188625 V -1.2295907 H 59.383637 Z"
     id="path3828"
     style="fill:#af001f;fill-opacity:1;fill-rule:nonzero;stroke:none" />
  <path
     d="m 12.912138,18.773909 -0.300001,1.25625 c -0.09,0.35875 -0.11875,0.54 -0.11875,0.65875 0,0.29875 0.08875,0.53875 0.29875,0.89875 l 3.5625,6.4075 c 0.29875,0.51 0.54,0.7175 1.2575,0.7175 h 3.2625 c 0.42,0 0.92875,-0.26875 0.45,-1.01875 l -4.37125,-7.24375 c 1.4675,-0.9275 3.11375,-2.24625 3.11375,-5.15 0,-3.74125 -2.09625,-5.8387497 -6.7075,-5.8387497 H 6.6833875 c -0.5975,0 -0.77625,0.21 -0.77625,0.8087497 v 17.63375 c 0,0.60125 0.17875,0.80875 0.77625,0.80875 h 2.755 c 0.6000005,0 0.7800005,-0.2075 0.7800005,-0.80875 v -14.87875 h 2.8425 c 1.79625,0 2.664999,0.65875 2.664999,2.33625 0,1.525 -0.688749,2.005 -1.37875,2.30375 -0.86625,0.36 -1.16625,-0.03 -1.435,1.10875"
     id="path3832"
     style="fill:#ffffff;fill-opacity:1;fill-rule:nonzero;stroke:none" />
  <path
     d="m 27.470267,27.904159 c 0,0.6 0.18,0.80875 0.77875,0.80875 h 2.75375 c 0.6,0 0.77875,-0.20875 0.77875,-0.80875 v -14.79 h 5.08875 c 0.6,0 0.78,-0.20875 0.78,-0.8075 v -2.03625 c 0,-0.5987497 -0.18,-0.8087497 -0.78,-0.8087497 h -14.48875 c -0.6,0 -0.78,0.21 -0.78,0.8087497 v 2.03625 c 0,0.59875 0.18,0.8075 0.78,0.8075 h 5.088751 z"
     id="path3836"
     style="fill:#ffffff;fill-opacity:1;fill-rule:nonzero;stroke:none" />
  <path
     d="m 39.374637,25.629409 -0.36,2.305 c -0.05875,0.45 0.15,0.62875 0.53875,0.68875 0.86875,0.12 3.05375,0.26875 5.18,0.26875 4.76,0 8.23375,-1.55625 8.23375,-5.9875 0,-2.605 -1.13875,-4.55125 -5.089999,-5.56875 l -2.216251,-0.56875 c -1.49625,-0.38875 -2.185,-0.8675 -2.185,-1.975 0,-1.5575 1.4375,-1.8575 2.815,-1.8575 1.85625,0 3.74125,0.15 4.49,0.21125 0.777501,0.05875 0.9875,-0.03125 1.1075,-0.69125 l 0.36,-2.24375 c 0.06,-0.4487497 -0.15,-0.6287497 -0.54,-0.6887497 -0.8675,-0.12 -2.783749,-0.26875 -5.20875,-0.26875 -4.93875,0 -7.335,2.1549997 -7.335,5.5674997 0,3.085 1.67625,4.91 4.58125,5.6575 l 2.215,0.57 c 1.82625,0.47875 2.60375,1.01875 2.60375,2.15625 0,1.67625 -1.1375,1.97625 -3.89125,1.97625 -1.25875,0 -3.44375,-0.18 -4.1925,-0.24 -0.7775,-0.06 -0.9875,0.02875 -1.10625,0.68875"
     id="path3840"
     style="fill:#ffffff;fill-opacity:1;fill-rule:nonzero;stroke:none" />
  <g
     id="g4171"
     transform="translate(-1.2188625,-1.2295907)">
    <path
       d="m 72.16937,19.34437 -2.72125,-3.605 0.17875,-0.7875 c 0.34125,-0.025 0.65,-0.055 0.925,-0.095 0.27375,-0.04 0.50625,-0.10875 0.69875,-0.20875 0.19,-0.1 0.33625,-0.235 0.44125,-0.4075 0.1025,-0.17 0.155,-0.39875 0.155,-0.685 0,-0.47 -0.11625,-0.80625 -0.3475,-1.00875 -0.23,-0.20375 -0.6475,-0.305 -1.2525,-0.305 h -1.40875 v 7.1025 h -1.11 v -8.0325 h 2.79375 c 0.875,0 1.50125,0.19625 1.88,0.59 0.3775,0.39375 0.56625,0.9375 0.56625,1.63 0,0.39 -0.06625,0.7125 -0.19625,0.96625 -0.1325,0.255 -0.30375,0.46 -0.52,0.615 -0.21375,0.155 -0.455,0.27375 -0.72125,0.3575 -0.2675,0.08375 -0.53625,0.14625 -0.80625,0.18625 l 2.8175,3.6875 z"
       id="path3844"
       style="fill:#ffffff;fill-opacity:1;fill-rule:nonzero;stroke:none" />
    <path
       d="m 76.382,18.604 c 0.1675,0 0.33,-0.015 0.48875,-0.0425 0.16,-0.02625 0.305,-0.06125 0.43625,-0.10125 0.13125,-0.04 0.23875,-0.075 0.3225,-0.10625 0.0825,-0.0325 0.13625,-0.05625 0.16,-0.07125 V 16.539 c -0.015,0 -0.06625,-0.005 -0.14875,-0.0175 -0.08375,-0.01125 -0.1875,-0.025 -0.31,-0.03625 -0.1225,-0.01125 -0.2625,-0.0225 -0.4175,-0.03625 -0.155,-0.01125 -0.3175,-0.0175 -0.48375,-0.0175 -0.47,0 -0.81125,0.07875 -1.02625,0.2325 -0.215,0.15625 -0.32375,0.46375 -0.32375,0.925 0,0.215 0.03375,0.39 0.0975,0.525 0.0625,0.135 0.1525,0.24 0.2675,0.31125 0.115,0.07125 0.2525,0.12 0.4125,0.1425 0.15875,0.02375 0.33375,0.03625 0.525,0.03625 m -1.79,-5.1075 c 0.0225,-0.0087 0.09625,-0.03125 0.22,-0.06625 0.12375,-0.03625 0.28125,-0.07375 0.47125,-0.11375 0.19125,-0.04 0.40625,-0.07375 0.645,-0.10125 0.23875,-0.0275 0.485,-0.0425 0.74,-0.0425 0.6925,0 1.225,0.1475 1.59875,0.44125 0.375,0.29625 0.56125,0.785 0.56125,1.47 v 4.26 H 77.982 l -0.09625,-0.395 c -0.0475,0.03375 -0.12375,0.07875 -0.2275,0.13875 -0.1025,0.06 -0.23,0.11875 -0.38125,0.1775 -0.15125,0.06125 -0.33,0.1125 -0.53625,0.15625 -0.2075,0.04375 -0.44125,0.06625 -0.705,0.06625 -0.255,0 -0.49875,-0.02875 -0.73375,-0.08375 -0.235,-0.05625 -0.44375,-0.155 -0.62625,-0.2975 -0.18375,-0.145 -0.33125,-0.33625 -0.4425,-0.57375 -0.11125,-0.24 -0.1675,-0.54625 -0.1675,-0.92 0,-0.72375 0.185,-1.23875 0.55625,-1.545 0.37,-0.30625 0.92375,-0.45875 1.665,-0.45875 0.16625,0 0.335,0.005 0.5075,0.01625 0.17,0.0125 0.3275,0.02875 0.47,0.04875 0.14375,0.02 0.26375,0.0375 0.35875,0.05375 0.09625,0.01625 0.15125,0.0225 0.16625,0.0225 v -0.465 c 0,-0.1825 -0.02,-0.34625 -0.05875,-0.48875 -0.04,-0.14375 -0.11375,-0.26625 -0.22125,-0.37 -0.1075,-0.1025 -0.2575,-0.18 -0.4475,-0.2325 -0.19125,-0.0525 -0.4425,-0.0775 -0.7525,-0.0775 -0.20625,0 -0.40875,0.01125 -0.6075,0.03625 -0.2,0.0225 -0.38,0.05125 -0.54375,0.08375 -0.16375,0.03125 -0.3,0.06125 -0.4125,0.08875 C 74.6345,14.354 74.56325,14.3715 74.532,14.379 Z"
       id="path3848"
       style="fill:#ffffff;fill-opacity:1;fill-rule:nonzero;stroke:none" />
    <path
       d="m 84.23538,14.24675 c -0.02375,-0.0062 -0.16375,-0.0325 -0.4175,-0.0775 -0.255,-0.0425 -0.55375,-0.065 -0.895,-0.065 -0.28625,0 -0.53375,0.035 -0.74,0.1075 -0.2075,0.07125 -0.37625,0.195 -0.50875,0.37 -0.13,0.175 -0.2275,0.40625 -0.29125,0.6925 -0.06375,0.285 -0.09625,0.6475 -0.09625,1.08625 0,0.42875 0.0325,0.785 0.09625,1.0675 0.06375,0.28375 0.16125,0.50875 0.29125,0.67375 0.1325,0.1675 0.29625,0.28625 0.49625,0.3525 0.19875,0.06875 0.4375,0.1025 0.71625,0.1025 0.175,0 0.34,-0.01625 0.495,-0.04875 0.155,-0.03125 0.29125,-0.0675 0.4125,-0.10625 0.11875,-0.04 0.21625,-0.0775 0.29125,-0.11375 0.07625,-0.03625 0.12625,-0.06125 0.15,-0.0775 z m 0.095,4.7025 c -0.03125,0.025 -0.09375,0.06625 -0.185,0.125 -0.09125,0.06125 -0.20875,0.12 -0.35125,0.18125 -0.14375,0.05875 -0.31,0.1125 -0.49625,0.16 -0.18625,0.0475 -0.39125,0.0725 -0.615,0.0725 -0.8025,0 -1.42125,-0.25 -1.855,-0.74625 -0.435,-0.4975 -0.65125,-1.29125 -0.65125,-2.38125 0,-1.0975 0.225,-1.90375 0.675,-2.4175 0.45,-0.5125 1.1275,-0.77 2.035,-0.77 0.15875,0 0.31625,0.01 0.47,0.03 0.15625,0.02 0.29625,0.04125 0.41875,0.06625 0.12375,0.02375 0.2275,0.04625 0.31,0.06625 0.08375,0.01875 0.13375,0.03375 0.15,0.04125 V 10.6905 h 1.06125 v 8.65375 h -0.87 z"
       id="path3852"
       style="fill:#ffffff;fill-opacity:1;fill-rule:nonzero;stroke:none" />
    <path
       d="M 87.01625,13.31625 H 88.0775 V 19.345 h -1.06125 z m -0.06,-2.28 h 1.1825 V 12.23 h -1.1825 z"
       id="path3854"
       style="fill:#ffffff;fill-opacity:1;fill-rule:nonzero;stroke:none" />
    <path
       d="m 90.60938,16.336 c 0,0.43875 0.02875,0.8025 0.08875,1.0925 0.05875,0.29 0.15625,0.5225 0.28625,0.69125 0.13125,0.1725 0.29875,0.29375 0.50125,0.365 0.20375,0.07125 0.4475,0.1075 0.73375,0.1075 0.27875,0 0.52125,-0.03625 0.7275,-0.1075 0.2075,-0.07125 0.3775,-0.1925 0.50875,-0.365 0.13,-0.16875 0.2275,-0.40125 0.2925,-0.69125 0.06375,-0.29 0.095,-0.65375 0.095,-1.0925 0,-0.4375 -0.03125,-0.80125 -0.095,-1.0925 -0.065,-0.28875 -0.1625,-0.5225 -0.2925,-0.6975 -0.13125,-0.175 -0.30125,-0.29625 -0.50875,-0.36375 -0.20625,-0.06875 -0.44875,-0.1025 -0.7275,-0.1025 -0.28625,0 -0.53,0.03375 -0.73375,0.1025 -0.2025,0.0675 -0.37,0.18875 -0.50125,0.36375 -0.13,0.175 -0.2275,0.40875 -0.28625,0.6975 -0.06,0.29125 -0.08875,0.655 -0.08875,1.0925 m -1.11125,0 c 0,-0.59625 0.0625,-1.095 0.18625,-1.49875 0.1225,-0.4 0.30125,-0.725 0.53625,-0.97125 0.235,-0.24625 0.52125,-0.425 0.85875,-0.53125 0.33875,-0.1075 0.71875,-0.16125 1.14,-0.16125 0.4225,0 0.8,0.05375 1.13375,0.16125 0.335,0.10625 0.61875,0.285 0.85375,0.53125 0.235,0.24625 0.41375,0.57125 0.5375,0.97125 0.1225,0.40375 0.18625,0.9025 0.18625,1.49875 0,0.59 -0.06375,1.085 -0.18625,1.48625 -0.12375,0.4025 -0.3025,0.72625 -0.5375,0.9725 -0.235,0.2475 -0.51875,0.42375 -0.85375,0.53125 -0.33375,0.1075 -0.71125,0.16125 -1.13375,0.16125 -0.42125,0 -0.80125,-0.05375 -1.14,-0.16125 -0.3375,-0.1075 -0.62375,-0.28375 -0.85875,-0.53125 -0.235,-0.24625 -0.41375,-0.57 -0.53625,-0.9725 C 89.56063,17.421 89.49813,16.926 89.49813,16.336"
       id="path3858"
       style="fill:#ffffff;fill-opacity:1;fill-rule:nonzero;stroke:none" />
    <path
       d="m 100.96825,12.2905 v 7.05375 H 99.847 V 12.2905 h -2.5075 v -0.97875 h 6.135 v 0.97875 z"
       id="path3862"
       style="fill:#ffffff;fill-opacity:1;fill-rule:nonzero;stroke:none" />
    <path
       d="m 106.10062,10.69025 h 1.22875 l -1.33625,1.74375 h -0.9425 z m -0.5975,3.355 c -0.2625,0 -0.4875,0.03 -0.67375,0.09375 -0.1875,0.065 -0.34125,0.17125 -0.46,0.3175 -0.11875,0.1475 -0.21125,0.33875 -0.27375,0.57375 -0.0637,0.235 -0.1,0.52375 -0.1075,0.865 h 2.98375 c 0,-0.35125 -0.0288,-0.645 -0.085,-0.88375 -0.055,-0.23875 -0.1425,-0.43 -0.2625,-0.5725 -0.1175,-0.14375 -0.26875,-0.245 -0.4525,-0.305 -0.18375,-0.05875 -0.40625,-0.08875 -0.66875,-0.08875 m 2.1725,5.17875 c -0.0387,0.01625 -0.115,0.03875 -0.22625,0.06625 -0.11125,0.02875 -0.25625,0.05625 -0.43625,0.08375 -0.18,0.0275 -0.38125,0.05375 -0.60875,0.0775 -0.22625,0.02375 -0.47,0.03625 -0.7325,0.03625 -0.47,0 -0.8775,-0.0575 -1.225,-0.16875 -0.345,-0.11 -0.635,-0.29125 -0.865,-0.5425 -0.23,-0.25 -0.40375,-0.57375 -0.51875,-0.9725 -0.115,-0.3975 -0.17375,-0.8875 -0.17375,-1.4675 0,-1.09875 0.21875,-1.89875 0.6575,-2.40625 0.4375,-0.505 1.09,-0.7575 1.95625,-0.7575 0.84375,0 1.4775,0.22375 1.905,0.66875 0.425,0.44625 0.6375,1.195 0.6375,2.245 v 0.655 h -4.0575 c 0.025,0.375 0.08,0.67625 0.1675,0.9075 0.0863,0.2325 0.2125,0.41125 0.375,0.5425 0.16375,0.1325 0.365,0.22125 0.6025,0.26875 0.23875,0.0475 0.51375,0.0725 0.82375,0.0725 0.1925,0 0.38625,-0.01 0.585,-0.03 0.2,-0.02 0.38375,-0.04375 0.555,-0.07125 0.17125,-0.02875 0.31875,-0.055 0.44125,-0.0775 0.125,-0.025 0.19875,-0.04125 0.22125,-0.04875 z"
       id="path3866"
       style="fill:#ffffff;fill-opacity:1;fill-rule:nonzero;stroke:none" />
    <path
       d="m 109.33375,10.69 h 1.0625 v 8.65375 h -1.0625 z"
       id="path3868"
       style="fill:#ffffff;fill-opacity:1;fill-rule:nonzero;stroke:none" />
    <path
       d="m 114.933,10.69025 h 1.22875 L 114.8255,12.434 h -0.9425 z m -0.5975,3.355 c -0.2625,0 -0.4875,0.03 -0.67375,0.09375 -0.1875,0.065 -0.34,0.17125 -0.46,0.3175 -0.11875,0.1475 -0.21125,0.33875 -0.27375,0.57375 -0.0637,0.235 -0.10125,0.52375 -0.1075,0.865 h 2.9825 c 0,-0.35125 -0.0275,-0.645 -0.0825,-0.88375 -0.0563,-0.23875 -0.14375,-0.43 -0.2625,-0.5725 -0.12,-0.14375 -0.27125,-0.245 -0.45375,-0.305 -0.18375,-0.05875 -0.40625,-0.08875 -0.66875,-0.08875 m 2.1725,5.17875 c -0.04,0.01625 -0.11625,0.03875 -0.2275,0.06625 -0.11,0.02875 -0.25625,0.05625 -0.43625,0.08375 -0.1775,0.0275 -0.38,0.05375 -0.6075,0.0775 -0.22625,0.02375 -0.47125,0.03625 -0.73375,0.03625 -0.47,0 -0.8775,-0.0575 -1.22375,-0.16875 -0.34625,-0.11 -0.635,-0.29125 -0.86625,-0.5425 -0.23,-0.25 -0.40375,-0.57375 -0.51875,-0.9725 -0.115,-0.3975 -0.1725,-0.8875 -0.1725,-1.4675 0,-1.09875 0.21875,-1.89875 0.6575,-2.40625 0.43625,-0.505 1.09,-0.7575 1.95625,-0.7575 0.84375,0 1.4775,0.22375 1.90375,0.66875 0.42625,0.44625 0.63875,1.195 0.63875,2.245 v 0.655 h -4.0575 c 0.0238,0.375 0.0787,0.67625 0.16625,0.9075 0.0875,0.2325 0.2125,0.41125 0.37625,0.5425 0.1625,0.1325 0.36375,0.22125 0.6025,0.26875 0.23875,0.0475 0.51375,0.0725 0.82375,0.0725 0.19125,0 0.38625,-0.01 0.585,-0.03 0.1975,-0.02 0.38375,-0.04375 0.55375,-0.07125 0.1725,-0.02875 0.31875,-0.055 0.4425,-0.0775 0.12375,-0.025 0.1975,-0.04125 0.22125,-0.04875 z"
       id="path3872"
       style="fill:#ffffff;fill-opacity:1;fill-rule:nonzero;stroke:none" />
    <path
       d="m 122.05713,13.31587 h 1.09875 l -2.23125,6.02875 h -1.17 l -2.25625,-6.02875 h 1.17 l 1.70625,4.835 z"
       id="path3876"
       style="fill:#ffffff;fill-opacity:1;fill-rule:nonzero;stroke:none" />
    <path
       d="M 124.12375,13.31625 H 125.185 V 19.345 h -1.06125 z m -0.0613,-2.28 h 1.1825 V 12.23 h -1.1825 z"
       id="path3878"
       style="fill:#ffffff;fill-opacity:1;fill-rule:nonzero;stroke:none" />
    <path
       d="m 126.60538,18.42512 c 0.04,0.0075 0.12375,0.02 0.25,0.035 0.1275,0.01625 0.27875,0.035 0.45375,0.055 0.175,0.02 0.36,0.0375 0.555,0.0525 0.195,0.01625 0.38375,0.02375 0.56625,0.02375 0.53375,0 0.91375,-0.05125 1.14,-0.15375 0.2275,-0.10375 0.34125,-0.33125 0.34125,-0.68125 0,-0.30125 -0.0875,-0.5175 -0.26125,-0.64375 -0.17625,-0.1275 -0.48375,-0.23125 -0.92125,-0.31125 l -0.70375,-0.1425 c -0.4375,-0.08125 -0.79,-0.26 -1.05625,-0.54375 -0.2675,-0.2825 -0.4,-0.67375 -0.4,-1.17625 0,-0.52375 0.18125,-0.95 0.54375,-1.27625 0.36125,-0.32625 0.95,-0.49 1.75875,-0.49 0.215,0 0.425,0.01125 0.6275,0.03 0.20375,0.02 0.38625,0.04375 0.55,0.07125 0.1625,0.02875 0.3,0.05625 0.41,0.08375 0.1125,0.02875 0.18375,0.04625 0.215,0.055 l -0.15375,0.83375 c -0.0412,-0.0063 -0.1175,-0.02125 -0.23375,-0.04125 -0.11375,-0.01875 -0.25125,-0.04 -0.41125,-0.05875 -0.15875,-0.02 -0.33,-0.0375 -0.51375,-0.05375 -0.18125,-0.01625 -0.35375,-0.025 -0.51375,-0.025 -0.1825,0 -0.34875,0.01 -0.5,0.03125 -0.1525,0.02 -0.285,0.05875 -0.4,0.12 -0.115,0.05875 -0.205,0.1425 -0.26875,0.25 -0.0637,0.10625 -0.0962,0.24375 -0.0962,0.41125 0,0.135 0.0187,0.25 0.055,0.34625 0.035,0.095 0.0913,0.1775 0.16625,0.245 0.0763,0.06625 0.17875,0.12375 0.31125,0.1675 0.13125,0.0425 0.2925,0.08125 0.48375,0.11125 l 0.75125,0.15625 c 0.605,0.11125 1.0225,0.3125 1.2525,0.60375 0.2325,0.29 0.34625,0.6725 0.34625,1.15125 0,0.64375 -0.21625,1.10875 -0.65,1.39625 -0.435,0.28625 -1.02875,0.43 -1.785,0.43 -0.27,0 -0.52,-0.01125 -0.75125,-0.03125 -0.23125,-0.01875 -0.43625,-0.0425 -0.61375,-0.07125 -0.18,-0.0275 -0.33,-0.05375 -0.44875,-0.07625 -0.12,-0.02375 -0.195,-0.04125 -0.22625,-0.04875 z"
       id="path3882"
       style="fill:#ffffff;fill-opacity:1;fill-rule:nonzero;stroke:none" />
    <path
       d="m 132.2625,13.31625 h 1.0625 V 19.345 h -1.0625 z m -0.06,-2.28 h 1.18125 V 12.23 h -1.18125 z"
       id="path3884"
       style="fill:#ffffff;fill-opacity:1;fill-rule:nonzero;stroke:none" />
    <path
       d="m 135.83088,16.336 c 0,0.43875 0.03,0.8025 0.09,1.0925 0.06,0.29 0.155,0.5225 0.285,0.69125 0.1325,0.1725 0.3,0.29375 0.5025,0.365 0.2025,0.07125 0.4475,0.1075 0.73375,0.1075 0.2775,0 0.52125,-0.03625 0.72875,-0.1075 0.20625,-0.07125 0.37625,-0.1925 0.50625,-0.365 0.13125,-0.16875 0.22875,-0.40125 0.2925,-0.69125 0.065,-0.29 0.0962,-0.65375 0.0962,-1.0925 0,-0.4375 -0.0312,-0.80125 -0.0962,-1.0925 -0.0637,-0.28875 -0.16125,-0.5225 -0.2925,-0.6975 -0.13,-0.175 -0.3,-0.29625 -0.50625,-0.36375 -0.2075,-0.06875 -0.45125,-0.1025 -0.72875,-0.1025 -0.28625,0 -0.53125,0.03375 -0.73375,0.1025 -0.2025,0.0675 -0.37,0.18875 -0.5025,0.36375 -0.13,0.175 -0.225,0.40875 -0.285,0.6975 -0.06,0.29125 -0.09,0.655 -0.09,1.0925 m -1.11,0 c 0,-0.59625 0.0625,-1.095 0.185,-1.49875 0.1225,-0.4 0.3025,-0.725 0.5375,-0.97125 0.235,-0.24625 0.52,-0.425 0.85875,-0.53125 0.3375,-0.1075 0.7175,-0.16125 1.14,-0.16125 0.42125,0 0.8,0.05375 1.13375,0.16125 0.33375,0.10625 0.61875,0.285 0.85375,0.53125 0.235,0.24625 0.41375,0.57125 0.5375,0.97125 0.12375,0.40375 0.185,0.9025 0.185,1.49875 0,0.59 -0.0613,1.085 -0.185,1.48625 -0.12375,0.4025 -0.3025,0.72625 -0.5375,0.9725 -0.235,0.2475 -0.52,0.42375 -0.85375,0.53125 -0.33375,0.1075 -0.7125,0.16125 -1.13375,0.16125 -0.4225,0 -0.8025,-0.05375 -1.14,-0.16125 -0.33875,-0.1075 -0.62375,-0.28375 -0.85875,-0.53125 -0.235,-0.24625 -0.415,-0.57 -0.5375,-0.9725 -0.1225,-0.40125 -0.185,-0.89625 -0.185,-1.48625"
       id="path3888"
       style="fill:#ffffff;fill-opacity:1;fill-rule:nonzero;stroke:none" />
    <path
       d="m 145.30787,15.33438 c 0,-0.36625 -0.0738,-0.655 -0.22125,-0.865 -0.1475,-0.21125 -0.435,-0.31625 -0.865,-0.31625 -0.22375,0 -0.43,0.01875 -0.62125,0.05875 -0.19125,0.04 -0.35625,0.085 -0.495,0.1375 -0.13875,0.05125 -0.2525,0.10125 -0.34,0.14875 -0.0875,0.04875 -0.1425,0.07625 -0.16625,0.08375 v 4.7625 h -1.06375 v -6.02875 h 0.8725 l 0.0588,0.4425 c 0.0487,-0.02375 0.1325,-0.06875 0.25125,-0.1375 0.11875,-0.0675 0.26875,-0.13375 0.4475,-0.1975 0.17875,-0.06375 0.38125,-0.12 0.60875,-0.1725 0.22625,-0.05125 0.46625,-0.0775 0.7225,-0.0775 0.59625,0 1.0575,0.145 1.38375,0.43625 0.32625,0.29125 0.49,0.75375 0.49,1.39 v 4.345 h -1.0625 z"
       id="path3892"
       style="fill:#ffffff;fill-opacity:1;fill-rule:nonzero;stroke:none" />
    <path
       d="m 67.77613,28.87988 c 0.055,0.015 0.1675,0.04 0.335,0.07 0.16625,0.03375 0.355,0.0625 0.56625,0.09 0.21125,0.02875 0.43,0.05375 0.65625,0.0775 0.2275,0.02375 0.425,0.03625 0.59125,0.03625 0.35875,0 0.6575,-0.02 0.9,-0.06 0.24375,-0.03875 0.44125,-0.11 0.5925,-0.21375 0.15,-0.10375 0.26,-0.24125 0.3275,-0.4125 0.0675,-0.17125 0.10125,-0.38375 0.10125,-0.63875 0,-0.2225 -0.02875,-0.4075 -0.08375,-0.555 -0.055,-0.14625 -0.14125,-0.26875 -0.25625,-0.37 -0.115,-0.09875 -0.25875,-0.18125 -0.42875,-0.24375 -0.1725,-0.065 -0.3725,-0.12 -0.60375,-0.16875 l -0.92,-0.21375 c -0.595,-0.135 -1.04875,-0.38625 -1.36,-0.7525 -0.31,-0.36625 -0.465,-0.86625 -0.465,-1.50375 0,-0.7075 0.21625,-1.26625 0.65125,-1.67625 0.4325,-0.41 1.1275,-0.615 2.0825,-0.615 0.255,0 0.505,0.015 0.75125,0.04125 0.24625,0.0275 0.47,0.06 0.66875,0.09625 0.19875,0.035 0.3675,0.07125 0.5075,0.1075 0.14,0.035 0.2325,0.06125 0.28,0.0775 l -0.155,0.895 c -0.04,-0.0075 -0.1275,-0.02625 -0.2625,-0.05375 -0.13625,-0.0275 -0.2975,-0.055 -0.4825,-0.08375 -0.18875,-0.0275 -0.39625,-0.0525 -0.6275,-0.0775 -0.23125,-0.02375 -0.4625,-0.03625 -0.6925,-0.03625 -0.23,0 -0.445,0.01625 -0.64375,0.04875 -0.19875,0.03125 -0.3725,0.09375 -0.52,0.18375 -0.14625,0.0925 -0.2625,0.21875 -0.345,0.3825 -0.085,0.16375 -0.12625,0.37625 -0.12625,0.63875 0,0.41375 0.105,0.7125 0.31625,0.895 0.21125,0.1825 0.51125,0.3175 0.90125,0.40625 l 1.015,0.22625 c 0.715,0.1675 1.2175,0.44 1.5025,0.8175 0.28625,0.37875 0.43,0.86625 0.43,1.4625 0,0.43 -0.0675,0.79375 -0.2025,1.0925 -0.135,0.2975 -0.32625,0.54 -0.57375,0.72875 -0.245,0.18625 -0.54625,0.32375 -0.90125,0.41 -0.3525,0.08875 -0.745,0.13125 -1.175,0.13125 -0.3575,0 -0.6875,-0.015 -0.99,-0.0475 -0.3025,-0.03125 -0.565,-0.0675 -0.78875,-0.10625 -0.22125,-0.04125 -0.39875,-0.07625 -0.53,-0.1075 -0.13125,-0.0325 -0.205,-0.0525 -0.2225,-0.06125 z"
       id="path3896"
       style="fill:#ffffff;fill-opacity:1;fill-rule:nonzero;stroke:none" />
    <path
       d="m 75.29563,27.92525 c 0,0.38 0.07125,0.67375 0.215,0.87625 0.1425,0.2025 0.43375,0.305 0.87125,0.305 0.2225,0 0.43,-0.02 0.62,-0.06 0.1925,-0.04 0.35625,-0.085 0.49625,-0.1375 0.1375,-0.05125 0.25125,-0.09875 0.34,-0.1425 0.0875,-0.045 0.14375,-0.07375 0.16625,-0.09 V 23.914 h 1.06375 v 6.0275 h -0.8725 l -0.07125,-0.44125 c -0.04,0.0225 -0.1175,0.06625 -0.2325,0.13 -0.11625,0.065 -0.2625,0.13 -0.44125,0.1975 -0.18,0.0675 -0.3825,0.12875 -0.61,0.18 -0.22625,0.05125 -0.47125,0.0775 -0.7325,0.0775 -0.5975,0 -1.05875,-0.14875 -1.385,-0.4425 -0.32625,-0.29375 -0.49,-0.77125 -0.49,-1.4325 V 23.914 h 1.0625 z"
       id="path3900"
       style="fill:#ffffff;fill-opacity:1;fill-rule:nonzero;stroke:none" />
    <path
       d="m 80.66625,23.91375 h 1.06125 v 6.0275 h -1.06125 z m -0.06,-2.27875 h 1.1825 v 1.19375 h -1.1825 z"
       id="path3902"
       style="fill:#ffffff;fill-opacity:1;fill-rule:nonzero;stroke:none" />
    <path
       d="m 83.16063,29.02337 c 0.04,0.0075 0.12375,0.01875 0.25,0.03375 0.1275,0.0175 0.27875,0.035 0.45375,0.055 0.17625,0.02 0.36,0.03875 0.555,0.05375 0.19625,0.01625 0.385,0.02375 0.5675,0.02375 0.53375,0 0.9125,-0.05125 1.14,-0.155 0.2275,-0.1025 0.34,-0.33 0.34,-0.68 0,-0.3025 -0.0875,-0.5175 -0.26125,-0.645 -0.17625,-0.12625 -0.4825,-0.23 -0.92125,-0.31 l -0.7025,-0.145 c -0.43875,-0.07875 -0.79,-0.26 -1.05625,-0.54125 -0.2675,-0.28375 -0.40125,-0.67375 -0.40125,-1.17625 0,-0.52375 0.18125,-0.95 0.54375,-1.27625 0.3625,-0.3275 0.95,-0.49 1.76,-0.49 0.21625,0 0.42375,0.01 0.6275,0.03 0.2025,0.02 0.385,0.04375 0.54875,0.07125 0.1625,0.02875 0.30125,0.05625 0.41125,0.08375 0.11125,0.0275 0.18375,0.045 0.21625,0.05375 l -0.155,0.835 c -0.04125,-0.0075 -0.11875,-0.02125 -0.23375,-0.04125 -0.115,-0.02 -0.2525,-0.03875 -0.4125,-0.06 -0.15875,-0.01875 -0.33,-0.0375 -0.5125,-0.05375 -0.1825,-0.01625 -0.35375,-0.02375 -0.51375,-0.02375 -0.18375,0 -0.35,0.01 -0.50125,0.03 -0.15125,0.01875 -0.28375,0.06 -0.4,0.11875 -0.115,0.06125 -0.20375,0.145 -0.2675,0.25 -0.06375,0.1075 -0.095,0.245 -0.095,0.4125 0,0.13625 0.0175,0.25125 0.05375,0.34625 0.03375,0.09625 0.09,0.1775 0.16625,0.245 0.075,0.0675 0.18,0.1225 0.31,0.1675 0.13125,0.04375 0.2925,0.08 0.48375,0.11375 l 0.75125,0.155 c 0.605,0.11125 1.0225,0.31125 1.25375,0.6025 0.23,0.29125 0.34625,0.67375 0.34625,1.15125 0,0.645 -0.2175,1.11 -0.65125,1.39625 -0.43375,0.28625 -1.0275,0.43125 -1.785,0.43125 -0.26875,0 -0.52,-0.01125 -0.75,-0.03125 -0.2325,-0.01875 -0.43625,-0.04375 -0.615,-0.07125 -0.17875,-0.0275 -0.32875,-0.0525 -0.4475,-0.0775 -0.12,-0.025 -0.19625,-0.04 -0.22625,-0.0475 z"
       id="path3906"
       style="fill:#ffffff;fill-opacity:1;fill-rule:nonzero;stroke:none" />
    <path
       d="m 88.6275,29.02337 c 0.04,0.0075 0.12375,0.01875 0.25,0.03375 0.1275,0.0175 0.2775,0.035 0.45375,0.055 0.175,0.02 0.36,0.03875 0.555,0.05375 0.195,0.01625 0.38375,0.02375 0.56625,0.02375 0.53375,0 0.91375,-0.05125 1.14,-0.155 0.2275,-0.1025 0.34125,-0.33 0.34125,-0.68 0,-0.3025 -0.08875,-0.5175 -0.2625,-0.645 -0.175,-0.12625 -0.4825,-0.23 -0.91875,-0.31 l -0.705,-0.145 c -0.4375,-0.07875 -0.79,-0.26 -1.05625,-0.54125 -0.26625,-0.28375 -0.4,-0.67375 -0.4,-1.17625 0,-0.52375 0.18,-0.95 0.54375,-1.27625 0.36125,-0.3275 0.94875,-0.49 1.75875,-0.49 0.21625,0 0.425,0.01 0.6275,0.03 0.20375,0.02 0.38625,0.04375 0.54875,0.07125 0.16375,0.02875 0.30125,0.05625 0.41125,0.08375 0.1125,0.0275 0.18375,0.045 0.215,0.05375 l -0.15375,0.835 c -0.04125,-0.0075 -0.1175,-0.02125 -0.2325,-0.04125 -0.115,-0.02 -0.25375,-0.03875 -0.4125,-0.06 -0.16,-0.01875 -0.33,-0.0375 -0.51375,-0.05375 C 91.2025,24.67337 91.03,24.66587 90.87,24.66587 c -0.1825,0 -0.34875,0.01 -0.5,0.03 -0.1525,0.01875 -0.28375,0.06 -0.4,0.11875 -0.11625,0.06125 -0.205,0.145 -0.26875,0.25 -0.06375,0.1075 -0.095,0.245 -0.095,0.4125 0,0.13625 0.01625,0.25125 0.05375,0.34625 0.035,0.09625 0.09,0.1775 0.16625,0.245 0.07625,0.0675 0.17875,0.1225 0.31125,0.1675 0.13125,0.04375 0.29125,0.08 0.4825,0.11375 l 0.7525,0.155 c 0.60375,0.11125 1.02125,0.31125 1.25375,0.6025 0.23,0.29125 0.345,0.67375 0.345,1.15125 0,0.645 -0.21625,1.11 -0.65,1.39625 -0.435,0.28625 -1.02875,0.43125 -1.785,0.43125 -0.27,0 -0.52,-0.01125 -0.75125,-0.03125 -0.23125,-0.01875 -0.43625,-0.04375 -0.615,-0.07125 -0.17875,-0.0275 -0.32875,-0.0525 -0.44625,-0.0775 -0.12,-0.025 -0.19625,-0.04 -0.2275,-0.0475 z"
       id="path3910"
       style="fill:#ffffff;fill-opacity:1;fill-rule:nonzero;stroke:none" />
    <path
       d="m 96.57612,24.64287 c -0.2625,0 -0.4875,0.03 -0.675,0.09375 -0.18625,0.065 -0.34,0.17 -0.45875,0.3175 -0.12,0.1475 -0.21125,0.33875 -0.27375,0.5725 -0.065,0.235 -0.10125,0.52375 -0.1075,0.865 h 2.9825 c 0,-0.34875 -0.02875,-0.64375 -0.08375,-0.88375 -0.055,-0.2375 -0.1425,-0.42875 -0.26125,-0.5725 -0.12,-0.1425 -0.27125,-0.24375 -0.455,-0.30375 -0.1825,-0.06125 -0.405,-0.08875 -0.6675,-0.08875 m 2.17125,5.17875 c -0.03875,0.01625 -0.115,0.0375 -0.225,0.06625 -0.1125,0.02875 -0.2575,0.055 -0.43625,0.08375 -0.18,0.02875 -0.3825,0.05375 -0.60875,0.0775 -0.22625,0.0225 -0.47125,0.03625 -0.73375,0.03625 -0.47,0 -0.8775,-0.0575 -1.225,-0.1675 -0.345,-0.11125 -0.63375,-0.2925 -0.865,-0.54375 -0.23,-0.25125 -0.4025,-0.57375 -0.51875,-0.9725 -0.115,-0.3975 -0.17375,-0.8875 -0.17375,-1.4675 0,-1.09875 0.22,-1.89875 0.6575,-2.405 0.4375,-0.50625 1.09,-0.7575 1.9575,-0.7575 0.84375,0 1.47875,0.2225 1.90375,0.6675 0.42625,0.44625 0.6375,1.19375 0.6375,2.24375 v 0.6575 h -4.05625 c 0.0225,0.3725 0.07875,0.67625 0.16625,0.90625 0.0875,0.23 0.21125,0.41125 0.37625,0.54375 0.1625,0.13125 0.36375,0.22 0.6025,0.2675 0.23875,0.04875 0.5125,0.0725 0.82375,0.0725 0.19,0 0.385,-0.01125 0.585,-0.03125 0.1975,-0.02 0.38375,-0.0425 0.55375,-0.07125 0.1725,-0.02625 0.31875,-0.05375 0.44125,-0.0775 0.125,-0.02375 0.19875,-0.04 0.2225,-0.0475 z"
       id="path3914"
       style="fill:#ffffff;fill-opacity:1;fill-rule:nonzero;stroke:none" />
  </g>
</svg>
