<?xml version="1.0" encoding="UTF-8" standalone="no"?>
<svg
   xmlns:dc="http://purl.org/dc/elements/1.1/"
   xmlns:cc="http://creativecommons.org/ns#"
   xmlns:rdf="http://www.w3.org/1999/02/22-rdf-syntax-ns#"
   xmlns:svg="http://www.w3.org/2000/svg"
   xmlns="http://www.w3.org/2000/svg"
   width="173.91943mm"
   height="104.23242mm"
   viewBox="0 0 173.91943 104.23242"
   version="1.1"
   id="svg33097">
  <defs
     id="defs33091" />
  <metadata
     id="metadata33094">
    <rdf:RDF>
      <cc:Work
         rdf:about="">
        <dc:format>image/svg+xml</dc:format>
        <dc:type
           rdf:resource="http://purl.org/dc/dcmitype/StillImage" />
        <dc:title></dc:title>
      </cc:Work>
    </rdf:RDF>
  </metadata>
  <g
     id="layer1"
     transform="translate(-15.849802,-21.211165)">
    <g
       id="g29797"
       transform="matrix(0.35277777,0,0,-0.35277777,137.65303,125.44359)">
      <path
         d="m 0,0 h -197.538 c -81.589,0 -147.731,66.141 -147.731,147.73 0,81.59 66.142,147.732 147.731,147.732 H 0 c 81.589,0 147.731,-66.142 147.731,-147.732 C 147.731,66.141 81.589,0 0,0"
         style="fill:#ffffff;fill-opacity:1;fill-rule:nonzero;stroke:none"
         id="path29799" />
    </g>
    <g
       id="g29801"
       transform="matrix(0.35277777,0,0,-0.35277777,156.63173,78.311939)">
      <path
         d="m 0,0 v 0.004 c 0,2.091 -1.695,3.786 -3.786,3.786 -2.09,0 -3.786,1.695 -3.786,3.786 v 30.317 c 0,2.09 -1.695,3.785 -3.785,3.785 h -1.446 c -1.434,0 -2.745,-0.811 -3.386,-2.094 l -5.48,-10.97 c -0.642,-1.283 -1.953,-2.094 -3.387,-2.094 h -4.338 c -0.587,0 -1.167,0.136 -1.692,0.399 l -12.265,6.127 c -1.284,0.641 -2.094,1.952 -2.094,3.387 v 2.274 c 0,1.737 -1.183,3.252 -2.868,3.673 l -24.566,6.139 c -1.686,0.421 -2.868,1.935 -2.868,3.672 v 17.434 c 0,1.435 0.81,2.745 2.094,3.387 l 10.97,5.479 c 1.283,0.642 2.094,1.952 2.094,3.387 v 2.891 c 0,1.434 -0.811,2.746 -2.094,3.386 l -12.853,6.42 c -0.141,0.071 -0.277,0.15 -0.408,0.238 l -21.579,14.39 c -0.623,0.415 -1.353,0.636 -2.101,0.636 h -20.015 c -1.004,0 -1.967,0.399 -2.677,1.109 l -12.121,12.12 c -1.152,1.153 -2.911,1.439 -4.369,0.71 l -10.624,-5.306 c -1.283,-0.641 -2.094,-1.952 -2.094,-3.387 v -9.031 c 0,-2.091 -1.695,-3.786 -3.786,-3.786 h -55.264 c -1.004,0 -1.967,-0.4 -2.677,-1.11 l -12.94,-12.94 c -0.71,-0.71 -1.673,-1.109 -2.678,-1.109 h -9.803 c -2.092,0 -3.786,1.696 -3.786,3.787 0,2.09 -1.695,3.785 -3.787,3.785 h -7.586 c -2.091,0 -3.786,-1.695 -3.786,-3.785 V 73.213 c 0,-0.819 -0.265,-1.616 -0.757,-2.272 L -279.81,42.364 c -0.353,-0.469 -0.811,-0.851 -1.337,-1.115 l -12.264,-6.126 c -1.283,-0.641 -2.094,-1.952 -2.094,-3.387 V 20.812 c 0,-1.192 -0.561,-2.314 -1.514,-3.029 l -27.273,-20.458 c -0.954,-0.716 -1.515,-1.837 -1.515,-3.029 v -32.209 c 0,-2.091 -1.695,-3.786 -3.786,-3.786 -2.091,0 -3.785,-1.696 -3.785,-3.786 0,-2.091 1.694,-3.786 3.785,-3.786 h 9.804 c 1.004,0 1.967,0.399 2.677,1.109 l 5.355,5.354 c 0.71,0.71 1.109,1.673 1.109,2.677 v 11.249 c 0,1.435 0.81,2.746 2.093,3.387 l 12.266,6.127 c 0.525,0.263 1.104,0.399 1.691,0.399 h 12.698 c 1.004,0 1.967,-0.399 2.677,-1.109 l 5.354,-5.355 c 0.71,-0.71 1.109,-1.672 1.109,-2.676 v -19.9 c 0,-0.819 0.265,-1.616 0.757,-2.271 l 20.541,-27.385 c 0.875,-1.166 2.341,-1.727 3.771,-1.44 l 33.563,6.707 c 1.24,0.248 2.524,-0.141 3.419,-1.036 l 5.03,-5.03 c 0.71,-0.71 1.673,-1.109 2.677,-1.109 h 9.804 c 2.091,0 3.786,1.695 3.786,3.786 v 7.587 c 0,2.091 1.695,3.785 3.786,3.785 2.091,0 3.786,1.695 3.786,3.786 v 2.218 c 0,1.004 0.399,1.967 1.109,2.677 l 5.354,5.354 c 0.71,0.71 1.108,1.673 1.108,2.677 v 4.857 c 0,0.747 0.222,1.479 0.637,2.101 l 13.398,20.091 c 0.702,1.052 1.884,1.685 3.15,1.685 h 1.76 c 2.091,0 3.786,-1.695 3.786,-3.786 v -17.376 c 0,-1.004 0.398,-1.967 1.109,-2.677 l 12.94,-12.941 c 0.71,-0.71 1.673,-1.108 2.677,-1.108 h 3.665 c 1.433,0 2.744,-0.81 3.385,-2.092 l 13.065,-26.118 c 0.642,-1.283 1.952,-2.092 3.386,-2.092 h 1.447 c 2.091,0 3.786,1.695 3.786,3.786 v 18.05 c 0,0.588 0.137,1.168 0.4,1.693 l 14.358,28.703 c 0.263,0.526 0.4,1.106 0.4,1.694 v 18.049 c 0,2.091 1.695,3.787 3.786,3.787 h 7.586 c 2.091,0 3.786,-1.696 3.786,-3.787 v -9.803 c 0,-1.004 0.399,-1.967 1.109,-2.677 l 5.354,-5.355 c 0.71,-0.71 1.673,-1.108 2.677,-1.108 h 24.948 c 2.091,0 3.786,-1.695 3.786,-3.786 0,-2.091 1.695,-3.786 3.786,-3.786 h 7.586 c 2.091,0 3.786,1.695 3.786,3.786 v 15.158 c 0,2.091 -1.695,3.786 -3.786,3.786 -2.091,0 -3.786,1.695 -3.786,3.785 v 7.591 c 0,2.089 1.693,3.783 3.782,3.785 l 22.738,0.023 C -1.693,-3.783 0,-2.089 0,0"
         style="fill:#e20613;fill-opacity:1;fill-rule:nonzero;stroke:none"
         id="path29803" />
    </g>
    <g
       id="g29805"
       transform="matrix(0.35277777,0,0,-0.35277777,130.50258,108.72765)">
      <path
         d="M 0,0 C -0.312,3.088 -0.277,6.87 2.394,8.431 3.435,9.056 4.718,9.194 5.967,9.264 13.01,9.68 20.157,8.882 26.957,6.904 26.575,5.135 25.43,3.644 24.251,2.256 16.618,-6.938 16.583,-15.126 6.314,-21.267 c -0.589,-0.346 -10.512,-0.416 -11.136,-0.104 -0.659,0.348 -0.763,1.18 -0.763,1.908 -0.14,5.239 0.208,10.443 0.971,15.612"
         style="fill:#e20613;fill-opacity:1;fill-rule:nonzero;stroke:none"
         id="path29807" />
    </g>
    <g
       id="g29809"
       transform="matrix(0.35277777,0,0,-0.35277777,134.41915,108.72765)">
      <path
         d="M 0,0 C -0.139,1.354 -0.173,2.672 -0.035,3.99 -0.173,3.019 -0.312,2.013 -0.417,1.041 -0.312,1.805 -0.139,2.533 0.139,3.262 -0.243,2.359 -0.625,1.492 -0.972,0.59 c 0.209,0.451 0.451,0.868 0.729,1.249 -0.59,-0.763 -1.145,-1.491 -1.735,-2.255 0.243,0.277 0.486,0.52 0.798,0.764 -0.763,-0.59 -1.491,-1.146 -2.255,-1.736 0.243,0.174 0.486,0.313 0.729,0.417 l -2.671,-1.11 c 0.589,0.243 1.144,0.382 1.769,0.485 C -4.58,-1.734 -5.586,-1.873 -6.557,-1.978 -2.255,-1.457 2.22,-1.734 6.522,-2.289 5.551,-2.15 4.545,-2.012 3.573,-1.907 6.696,-2.324 9.818,-2.983 12.836,-3.851 10.234,0.694 7.667,5.273 5.065,9.818 4.926,9.333 4.788,8.882 4.614,8.431 l 1.11,2.672 C 5.273,10.2 4.753,9.402 4.128,8.604 4.718,9.368 5.273,10.097 5.863,10.859 2.879,7.147 0.173,3.47 -2.116,-0.693 c -1.596,-2.95 -3.123,-5.968 -5.135,-8.639 0.59,0.764 1.145,1.492 1.734,2.255 -1.283,-1.665 -2.74,-3.157 -4.405,-4.476 0.763,0.59 1.491,1.146 2.255,1.736 -0.868,-0.66 -1.839,-1.458 -2.845,-1.909 l 2.671,1.11 c -0.138,-0.034 -0.242,-0.07 -0.382,-0.07 0.972,0.14 1.978,0.279 2.95,0.382 -3.331,-0.416 -7.043,-0.451 -10.374,-0.069 0.972,-0.139 1.978,-0.277 2.949,-0.382 -0.104,0 -0.208,0.035 -0.312,0.069 0.902,-0.38 1.769,-0.762 2.671,-1.109 -0.104,0.069 -0.173,0.139 -0.277,0.208 l 3.99,-3.99 c -0.174,0.174 -0.278,0.382 -0.348,0.59 0.382,-0.903 0.764,-1.77 1.111,-2.671 -0.035,0.103 -0.07,0.242 -0.07,0.346 0.139,-0.971 0.278,-1.977 0.382,-2.949 -0.278,2.324 -0.104,4.788 0,7.113 0.104,2.498 0.347,5.03 0.659,7.528 -0.139,-0.972 -0.277,-1.978 -0.381,-2.948 0.069,0.589 0.173,1.144 0.242,1.734 0.451,3.088 0.521,5.759 -1.11,8.569 -1.353,2.29 -3.989,4.51 -6.626,5.1 -2.845,0.659 -6.037,0.52 -8.569,-1.11 -2.256,-1.457 -4.684,-3.851 -5.101,-6.626 -0.555,-3.852 -1.075,-7.738 -1.283,-11.622 -0.174,-3.539 -0.417,-7.356 0.416,-10.86 0.971,-4.129 4.441,-7.563 8.43,-8.743 1.18,-0.347 2.533,-0.416 3.782,-0.52 1.319,-0.104 2.672,-0.104 3.99,-0.104 4.232,0 8.881,-0.139 12.594,2.22 5.204,3.296 9.332,7.598 12.524,12.872 2.637,4.371 4.718,8.985 7.841,13.079 -0.59,-0.764 -1.145,-1.492 -1.735,-2.255 2.671,3.435 5.378,6.418 6.488,10.755 1.492,5.863 -1.874,11.969 -7.772,13.669 -7.597,2.185 -15.751,3.226 -23.66,2.775 -3.192,-0.173 -6.211,-0.624 -9.055,-2.15 -2.498,-1.354 -4.58,-3.47 -6.002,-5.933 -2.151,-3.643 -2.672,-8.187 -2.29,-12.351 0.277,-3.018 1.041,-5.655 3.261,-7.875 1.943,-1.943 5.1,-3.366 7.875,-3.261 2.88,0.139 5.864,1.075 7.876,3.261 C -1.353,-5.793 0.277,-2.914 0,0"
         style="fill:#e20613;fill-opacity:1;fill-rule:nonzero;stroke:none"
         id="path29811" />
    </g>
    <g
       id="g29813"
       transform="matrix(0.35277777,0,0,-0.35277777,133.68481,106.56103)">
      <path
         d="M 0,0 C 0.312,0.729 0.555,1.249 0.729,1.561 0.867,1.63 1.041,1.838 1.214,2.15 1.388,2.428 1.561,2.637 1.7,2.706 V 2.983 C 2.324,3.504 2.845,4.232 3.261,5.204 3.087,5.1 2.845,4.856 2.637,4.44 2.394,4.059 2.186,3.815 1.943,3.712 1.769,3.399 1.561,2.983 1.249,2.532 0.798,1.873 0.555,1.491 0.52,1.422 c 0,0.035 0,0.035 -0.035,0.035 0,0 -0.034,0 -0.034,-0.035 C 0.416,1.214 0.208,0.798 -0.174,0.104 -0.486,-0.486 -0.659,-1.007 -0.694,-1.457 -0.521,-1.076 -0.278,-0.59 0,0 m -1.249,6.626 c 0.035,0.243 0.104,0.382 0.277,0.451 0,0.243 -0.069,0.347 -0.173,0.347 C -1.18,7.32 -1.214,7.216 -1.284,7.077 -1.353,6.938 -1.388,6.8 -1.388,6.765 -1.458,6.522 -1.422,6.279 -1.318,6.071 Z M 3.712,7.111 C 3.851,7.493 3.955,7.771 4.024,7.91 4.232,8.569 4.232,9.124 3.99,9.575 3.677,9.888 3.296,10.096 2.845,10.13 2.428,10.165 2.047,10.13 1.665,9.922 1.284,9.748 1.006,9.471 0.798,9.159 0.59,8.812 0.485,8.465 0.555,8.049 0.451,8.083 0.416,8.049 0.381,7.979 0.347,7.91 0.277,7.841 0.208,7.875 0,6.21 -0.104,5.343 -0.069,5.238 0,5.204 0.069,5.1 0.104,4.926 0.139,4.753 0.208,4.648 0.347,4.614 0.243,4.267 0,4.094 -0.417,4.094 c -0.034,0 -0.381,0.069 -1.005,0.173 -0.07,0 -0.14,-0.035 -0.174,-0.104 C -1.631,4.094 -1.7,4.024 -1.77,4.024 -1.943,4.163 -2.047,4.267 -2.082,4.302 -2.186,4.44 -2.221,4.579 -2.186,4.787 c -0.035,0.035 0.174,0.069 0.624,0.105 v 0.277 c -0.069,0.139 -0.173,0.208 -0.381,0.174 -0.035,0.138 0,0.416 0.104,0.798 0.069,0.346 0.104,0.589 0.035,0.693 0.624,1.18 1.318,2.221 2.047,3.123 0.416,0.069 0.832,0.381 1.214,0.901 0.277,0 0.451,0.07 0.521,0.174 C 2.775,11.137 3.608,10.789 4.51,9.991 4.857,9.298 4.892,8.396 4.684,7.32 4.475,6.383 4.163,5.62 3.712,5.134 3.539,4.475 3.157,3.746 2.533,2.983 1.838,2.081 1.388,1.422 1.179,0.971 0.902,0.693 0.659,0.277 0.381,-0.312 0.035,-1.11 -0.174,-1.562 -0.278,-1.735 c 0.59,-0.173 2.012,-0.139 4.302,0.069 0.035,0 0.07,0.035 0.104,0.069 0,0.07 0.035,0.105 0.07,0.105 0.486,0.035 0.798,-0.07 0.902,-0.278 0,-0.104 -0.104,-0.173 -0.278,-0.243 0.07,0 0.174,-0.069 0.347,-0.174 C 5.308,-2.256 5.412,-2.29 5.516,-2.325 5.343,-2.706 5.239,-2.88 5.239,-2.846 5.03,-2.846 4.58,-2.88 3.851,-2.984 3.261,-3.054 2.81,-3.088 2.532,-3.019 2.29,-3.123 1.7,-3.192 0.763,-3.262 c -0.832,-0.069 -1.422,-0.243 -1.804,-0.485 -0.139,0.069 -0.381,0.034 -0.763,-0.105 0,0.174 -0.104,0.244 -0.278,0.244 -0.035,0.277 0.035,0.52 0.278,0.624 0.242,-0.173 0.416,-0.173 0.59,0 0,0.035 -0.07,0.069 -0.174,0.104 -0.07,0.034 -0.104,0.069 -0.139,0.139 -0.035,0.277 0.069,0.451 0.347,0.52 0.035,0.07 0,0.105 -0.069,0.105 -0.069,0 -0.069,0.069 -0.035,0.103 0.243,1.249 0.416,1.978 0.59,2.255 0.035,0.105 0.139,0.243 0.312,0.451 0.139,0.208 0.243,0.347 0.313,0.486 0.069,0.104 0.138,0.312 0.242,0.59 0.07,0.243 0.174,0.417 0.243,0.52 0.035,0.069 0.104,0.139 0.209,0.243 0.104,0.105 0.208,0.174 0.242,0.243 0.07,0.104 0.208,0.347 0.451,0.729 0.208,0.347 0.347,0.59 0.486,0.763 0.07,0.104 0.208,0.278 0.416,0.486 0.208,0.242 0.382,0.416 0.451,0.555 0.382,0.451 0.625,0.902 0.729,1.284 0.069,0 0.104,0 0.104,-0.07 0,0.07 0.069,0.278 0.208,0.589"
         style="fill:#ffffff;fill-opacity:1;fill-rule:nonzero;stroke:none"
         id="path29815" />
    </g>
    <g
       id="g29817"
       transform="matrix(0.35277777,0,0,-0.35277777,126.80635,115.15311)">
      <path
         d="M 0,0 C 0.035,-0.312 0.174,-0.521 0.417,-0.59 -0.069,1.665 -0.521,3.192 -0.937,4.024 -0.902,3.678 -0.798,3.123 -0.59,2.324 -0.381,1.631 -0.312,1.076 -0.347,0.694 -0.173,0.59 -0.069,0.347 0,0 m -1.145,6.279 c -0.208,0.972 -0.312,1.666 -0.312,2.082 h -0.277 c 0.381,-2.393 0.659,-3.781 0.867,-4.198 0,0.521 -0.104,1.215 -0.278,2.116 m -0.937,4.06 C -1.839,9.194 -1.7,8.604 -1.63,8.535 c 0.069,0.937 -0.07,1.527 -0.452,1.804 m 8.57,1.769 c 0.208,0 0.277,0.035 0.138,0.139 C 6.835,12.108 6.87,11.762 6.8,11.241 6.765,11.033 6.661,10.547 6.453,9.854 6.314,9.367 6.176,9.125 6.037,9.09 6.037,8.535 5.898,7.771 5.655,6.766 5.377,5.69 5.204,4.927 5.204,4.476 c 0.382,0.833 0.937,2.914 1.631,6.245 0.069,0.312 0.069,0.451 0.069,0.382 0.035,0.103 0.139,0.172 0.278,0.208 0.034,0.103 0.034,0.172 0,0.277 -0.035,0.104 -0.07,0.174 -0.07,0.243 0.312,-0.104 0.59,-0.278 0.763,-0.52 C 7.91,11.275 7.979,11.172 8.119,10.963 8.223,10.79 8.292,10.686 8.396,10.582 8.361,10.547 8.361,10.478 8.327,10.408 8.292,10.339 8.292,10.27 8.257,10.234 8.223,10.131 8.119,10.062 8.014,10.026 8.049,9.923 8.083,9.818 8.014,9.646 7.979,9.506 8.014,9.367 8.083,9.264 8.119,9.298 7.91,8.396 7.494,6.627 7.355,6.071 7.043,5.204 6.522,3.99 6.037,2.914 5.759,2.047 5.69,1.423 5.343,-1.041 5.065,-2.498 4.823,-2.949 4.545,-5.065 4.094,-6.626 3.469,-7.667 c -0.104,0 -0.173,0 -0.242,-0.069 -0.104,-0.07 -0.174,-0.105 -0.208,-0.105 0.034,-0.138 0,-0.277 -0.104,-0.347 L 2.671,-8.431 c -0.138,0 -0.242,0.07 -0.346,0.174 C 2.186,-8.118 2.116,-8.014 2.047,-7.979 1.978,-8.222 1.735,-8.396 1.353,-8.5 c -0.104,0.069 -0.277,0.208 -0.52,0.451 0.104,0.416 0.139,0.59 0.104,0.59 -0.278,0.521 -0.451,1.388 -0.625,2.637 -0.138,1.249 -0.347,2.082 -0.589,2.602 -0.07,0.589 -0.417,1.943 -1.041,4.094 -0.66,4.51 -1.284,7.528 -1.804,9.055 0,0.069 -0.07,0.104 -0.209,0.104 -0.138,0 -0.208,0.034 -0.208,0.07 -0.138,0.52 -0.034,0.832 0.278,0.97 0.278,0.105 0.555,-0.034 0.763,-0.45 0.07,0.034 0.139,0.104 0.243,0.208 0.104,0.139 0.173,0.208 0.277,0.208 0.035,0 0.104,-0.069 0.174,-0.174 0.07,-0.103 0.174,-0.103 0.347,-0.069 C -1.249,11.033 -0.763,8.986 0,5.69 0.555,3.192 1.145,1.215 1.7,-0.242 1.735,-0.555 1.839,-1.145 2.012,-2.012 2.151,-2.74 2.255,-3.33 2.29,-3.851 2.775,-2.532 3.608,0.625 4.753,5.62 5.308,7.91 5.621,9.61 5.69,10.755 5.759,11.588 5.898,12.108 6.141,12.281 6.21,12.143 6.28,12.108 6.488,12.108"
         style="fill:#ffffff;fill-opacity:1;fill-rule:nonzero;stroke:none"
         id="path29819" />
    </g>
    <g
       id="g29821"
       transform="matrix(0.35277777,0,0,-0.35277777,131.68974,106.62236)">
      <path
         d="M 0,0 C -0.347,0.485 -0.694,0.729 -1.041,0.764 -1.041,0.729 -1.075,0.659 -1.18,0.59 -1.249,0.521 -1.249,0.451 -1.18,0.347 -0.381,0.104 0,0 0,0 m -1.18,4.232 c 0,0.07 -0.034,0.208 -0.034,0.382 -0.035,0.174 -0.035,0.313 -0.07,0.347 C -1.318,5.204 -1.422,5.378 -1.596,5.447 -1.561,5.308 -1.561,5.065 -1.63,4.719 -1.7,4.406 -1.7,4.232 -1.596,4.094 -1.561,3.989 -1.457,4.06 -1.18,4.232 M -2.012,2.463 c 0.104,0.139 0.138,0.278 0.104,0.451 C -2.082,2.845 -2.22,2.706 -2.29,2.463 -2.394,2.221 -2.359,2.116 -2.186,2.082 -2.22,2.186 -2.151,2.324 -2.012,2.463 M -3.4,1.006 c 0,-0.173 0.104,-0.242 0.243,-0.208 0.139,0.035 0.174,0.139 0.069,0.312 z m -2.741,-7.32 c 0.07,-0.486 0.208,-0.972 0.452,-1.457 0.277,-0.625 0.589,-0.972 0.936,-1.111 -0.347,1.146 -0.798,1.978 -1.388,2.568 M -9.055,5.135 C -9.02,5.933 -8.847,6.418 -8.569,6.661 -8.604,6.8 -8.708,6.835 -8.777,6.766 -9.194,6.037 -9.437,5.551 -9.541,5.273 -9.749,4.648 -9.784,4.094 -9.575,3.608 c 0.312,0.278 0.485,0.763 0.52,1.527 M 1.492,-0.833 C 1.943,-1.804 2.22,-2.845 2.255,-3.99 2.29,-5.135 2.082,-6.176 1.666,-7.146 1.214,-8.188 0.555,-9.021 -0.347,-9.645 c 0,-0.035 0.035,-0.104 0.104,-0.138 0.035,-0.035 0.07,-0.105 0.104,-0.14 -0.034,-0.034 -0.138,-0.103 -0.347,-0.242 -0.139,-0.105 -0.173,-0.208 -0.104,-0.347 -0.069,0.034 -0.243,0.07 -0.59,0.104 -0.312,-0.243 -0.659,-0.382 -1.11,-0.451 -0.485,-0.07 -0.971,-0.035 -1.387,0.104 -0.035,0 -0.105,0.069 -0.209,0.173 -0.104,0.104 -0.208,0.174 -0.277,0.209 -0.625,0.242 -1.214,0.624 -1.77,1.109 -0.624,0.556 -1.005,1.111 -1.214,1.666 0.105,0.243 0.105,0.59 -0.035,1.076 -0.138,0.485 -0.138,0.867 -0.034,1.11 0.208,-0.035 0.347,0.034 0.382,0.139 0.069,0.104 0.069,0.243 0.069,0.451 0.069,0.034 0.208,0.034 0.416,0 0.174,-0.035 0.243,-0.035 0.278,0.034 0.624,-0.485 1.283,-1.63 1.943,-3.469 0.485,-0.417 0.832,-0.694 1.075,-0.764 0.312,-0.138 0.729,-0.138 1.283,-0.034 0.07,0 0.105,0 0.174,-0.069 0.07,-0.035 0.104,-0.035 0.139,-0.035 0.867,0.346 1.526,1.18 1.943,2.498 0.347,1.041 0.486,2.082 0.451,3.157 0.035,0.034 0.069,0.104 0.173,0.243 0.07,0.104 0.139,0.173 0.208,0.242 -0.069,0.174 -0.104,0.417 -0.138,0.695 0,0.242 -0.035,0.416 -0.07,0.52 -0.069,0.07 -0.104,0.07 -0.173,0 -0.07,-0.069 -0.139,-0.069 -0.174,-0.035 -0.242,0.556 -0.694,1.006 -1.318,1.284 -1.11,0.52 -2.047,0.59 -2.88,0.278 -0.104,-0.035 -0.312,-0.208 -0.659,-0.521 -0.277,-0.243 -0.555,-0.347 -0.867,-0.347 -0.035,0.035 -0.069,0.104 -0.139,0.208 -0.069,0.07 -0.104,0.139 -0.104,0.173 -0.069,0.105 -0.069,0.243 0,0.382 -0.104,0 -0.208,0.035 -0.347,0.07 -0.173,0.104 -0.278,0.138 -0.347,0.138 0.139,0.451 0.625,0.903 1.457,1.423 0.868,0.521 1.353,0.937 1.492,1.249 0.104,0.069 0.139,0.069 0.208,-0.035 0,0 0.035,-0.069 0.035,-0.139 0,-0.069 0.035,-0.103 0.035,-0.138 0.069,0 0.069,0.069 0.034,0.243 -0.034,0.138 -0.104,0.208 -0.173,0.173 0.035,0.069 0.069,0.173 0.139,0.278 0.069,0.139 0.138,0.208 0.173,0.277 0.104,0.208 0.104,0.451 0,0.729 0.312,0.346 0.451,0.833 0.382,1.526 -0.104,1.249 -0.174,1.804 -0.174,1.734 -0.243,0.313 -0.347,0.556 -0.312,0.729 -0.381,0.382 -0.937,0.659 -1.7,0.833 -0.104,0 -0.243,0.069 -0.451,0.139 C -4.892,8.882 -4.996,8.916 -5.1,8.882 -5.585,8.813 -6.141,8.569 -6.696,8.084 -7.286,7.598 -7.667,7.146 -7.806,6.661 -7.841,6.626 -7.806,6.557 -7.771,6.453 -7.737,6.349 -7.737,6.279 -7.737,6.245 -7.737,6.21 -7.806,6.176 -7.91,6.141 -8.014,6.106 -8.049,6.071 -8.049,6.037 -8.083,5.933 -8.118,5.689 -8.083,5.308 -8.083,5.03 -8.118,4.822 -8.257,4.684 -8.188,4.614 -8.153,4.476 -8.083,4.232 -8.049,4.024 -7.945,3.92 -7.806,3.92 -7.702,3.33 -7.702,3.088 -7.737,3.122 -7.875,2.949 -8.118,2.811 -8.396,2.741 -8.673,2.671 -8.881,2.567 -8.985,2.463 c -0.348,0.243 -0.799,0.382 -1.319,0.417 -0.174,1.006 -0.104,1.942 0.208,2.879 0.312,0.902 0.798,1.666 1.492,2.325 0.694,0.659 1.492,1.109 2.429,1.388 0.971,0.277 1.908,0.311 2.879,0.069 1.18,-0.417 2.047,-1.526 2.567,-3.331 0.417,-1.526 0.521,-3.019 0.313,-4.545 0.728,-0.659 1.422,-1.457 1.908,-2.498"
         style="fill:#ffffff;fill-opacity:1;fill-rule:nonzero;stroke:none"
         id="path29823" />
    </g>
    <g
       id="g29825"
       transform="matrix(0.35277777,0,0,-0.35277777,138.07851,108.06653)">
      <path
         d="m 0,0 c 0,0 0.035,0.034 0.104,0.104 l -0.277,0.07 c -0.104,0.034 -0.174,0 -0.174,-0.105 C -0.104,0.034 0,0 0,0 m -0.312,10.963 c 0.104,0.069 0.208,0.139 0.243,0.208 0.173,0.174 0.277,0.312 0.277,0.451 -0.485,-0.451 -0.763,-0.728 -0.763,-0.798 0.07,0 0.139,0.07 0.243,0.139 m 0,-4.822 C -0.659,5.1 -0.902,4.406 -1.006,3.989 c 0.208,0.07 0.347,0.348 0.451,0.833 0.104,0.521 0.243,0.867 0.382,1.006 0,0.277 0.104,0.659 0.277,1.076 0.208,0.45 0.313,0.832 0.313,1.075 0.034,0 0.069,0.035 0.104,0.07 0.034,0 0.034,0 0.104,-0.07 -0.035,0.278 0.069,0.798 0.312,1.596 0.243,0.764 0.347,1.354 0.277,1.7 C 0.972,10.998 0.798,10.478 0.659,9.68 0.521,8.916 0.347,8.361 0.104,8.118 0.139,7.633 -0.035,6.974 -0.312,6.141 M -1.006,3.504 c 0.035,0.174 0.104,0.277 0.208,0.277 -0.069,0 -0.104,0.035 -0.139,0.105 C -0.971,3.955 -1.006,3.989 -1.075,3.989 -1.11,3.747 -1.179,3.504 -1.249,3.296 -1.11,3.261 -1.041,3.33 -1.006,3.504 M -1.214,2.88 c 0.069,0.173 0.069,0.277 0,0.311 0,-0.034 -0.035,-0.069 -0.069,-0.172 -0.035,-0.105 -0.07,-0.174 -0.07,-0.208 -0.069,-0.174 -0.069,-0.313 0.035,-0.417 -0.07,0.138 0,0.277 0.104,0.486 M -1.353,0.833 c 0.104,0 0.208,-0.035 0.312,-0.035 0.035,0.347 0.07,0.555 0.035,0.659 0.382,0.382 0.555,0.867 0.451,1.388 0.174,0.104 0.278,0.277 0.312,0.554 0.07,0.487 0.139,0.73 0.139,0.73 0.798,2.393 1.18,3.85 1.145,4.405 C -0.208,4.788 -1.145,2.255 -1.665,0.902 -1.561,0.867 -1.457,0.833 -1.353,0.833 M 2.498,12.906 C 2.567,12.663 2.567,12.455 2.567,12.247 2.498,12.281 2.359,12.212 2.221,12.073 2.186,11.899 1.978,10.686 1.596,8.431 1.354,6.904 1.041,5.689 0.694,4.753 0.278,3.608 0.035,2.88 0.035,2.602 0,2.498 -0.069,2.498 -0.139,2.532 -0.243,2.637 -0.312,2.671 -0.312,2.671 -0.347,2.567 -0.243,2.498 -0.035,2.429 -0.312,1.77 -0.485,1.214 -0.52,0.729 c 0.104,-0.036 0.312,0 0.555,0 C 0.347,0.763 0.521,0.763 0.59,0.798 1.006,0.798 1.18,0.59 1.076,0.139 0.902,0 0.694,-0.035 0.486,0.034 c 0,-0.138 0.069,-0.311 0.208,-0.485 0.139,-0.174 0.174,-0.347 0.174,-0.555 -0.243,-0.139 -0.625,-0.139 -1.215,-0.035 -0.971,0.174 -1.491,0.277 -1.595,0.277 -0.07,0 -0.174,0 -0.348,-0.034 -0.138,-0.035 -0.242,-0.069 -0.312,-0.035 -0.104,0.035 -0.277,0.104 -0.52,0.208 -0.243,0.14 -0.417,0.209 -0.521,0.209 -0.312,0.069 -0.832,0.139 -1.526,0.173 -0.59,0.035 -1.006,0.104 -1.214,0.208 0.034,0.347 0.069,0.556 0.069,0.556 0.173,-0.036 0.521,-0.07 1.006,-0.174 0.347,-0.07 0.659,-0.07 0.902,-0.07 -0.138,0.07 -0.382,0.174 -0.763,0.278 -0.312,0.069 -0.486,0.174 -0.59,0.312 0.035,0.243 0.07,0.382 0.104,0.416 0.208,-0.034 0.451,-0.034 0.694,0.07 -0.139,0.104 0.694,-0.07 2.498,-0.486 0.035,0.139 0.521,1.665 1.492,4.545 0.659,1.978 1.11,3.643 1.388,4.961 C 0,10.096 -1.145,9.055 -2.983,7.354 -3.157,7.182 -3.4,7.112 -3.747,7.112 c 0,-0.035 0,0.104 -0.069,0.347 0,0.104 0.035,0.208 0.139,0.277 -0.035,0.07 -0.104,0.07 -0.174,0 C -3.92,7.667 -3.99,7.667 -4.059,7.702 c -0.139,0.069 -0.173,0.173 -0.173,0.312 0,0.104 0.034,0.243 0.138,0.451 0.521,0.208 1.111,0.659 1.804,1.353 0.764,0.763 1.353,1.249 1.701,1.492 0.312,0.451 0.797,0.937 1.422,1.387 -0.035,0.105 0,0.313 0.069,0.59 0.07,-0.069 0.208,-0.069 0.347,0.035 0.174,0.105 0.278,0.07 0.417,-0.035 -0.035,-0.139 0,-0.311 0.138,-0.485 0.417,0.138 0.625,0.138 0.694,0.104"
         style="fill:#ffffff;fill-opacity:1;fill-rule:nonzero;stroke:none"
         id="path29827" />
    </g>
    <g
       id="g29829"
       transform="matrix(0.35277777,0,0,-0.35277777,136.2428,115.52035)">
      <path
         d="M 0,0 C 0.035,-0.104 0.035,-0.277 0.069,-0.485 0.104,-0.729 0.104,-0.901 0.139,-0.971 0.208,-1.318 0.381,-1.457 0.694,-1.388 0.451,-0.729 0.243,-0.277 0,0 M -1.214,2.082 C -1.284,2.29 -1.458,2.706 -1.7,3.331 -1.908,3.852 -2.047,4.268 -2.186,4.58 c -0.035,0.069 -0.069,0.069 -0.173,0.034 1.214,-3.607 1.838,-5.446 1.908,-5.515 -0.104,0.97 -0.347,1.977 -0.763,2.983 m -0.764,4.753 c -0.104,0.347 -0.173,0.59 -0.243,0.764 -0.208,0.554 -0.381,0.867 -0.59,0.867 1.319,-3.262 1.978,-4.858 1.978,-4.822 -0.069,0.38 -0.243,0.797 -0.451,1.318 C -1.562,5.621 -1.7,6.002 -1.77,6.106 -1.804,6.211 -1.874,6.453 -1.978,6.835 M -2.88,9.021 c -0.104,0.069 -0.173,0.104 -0.173,0.138 0.034,-0.277 0.104,-0.381 0.277,-0.346 0,0.069 -0.035,0.138 -0.104,0.208 M -3.92,9.646 C -3.053,7.217 -2.671,6.037 -2.706,6.142 -2.949,7.771 -3.331,8.951 -3.92,9.646 m -0.278,2.393 c 0,-0.035 0.034,-0.104 0.069,-0.208 0,-0.104 0.035,-0.139 0.035,-0.174 0.035,-0.138 0.104,-0.208 0.208,-0.208 -0.034,0.347 -0.138,0.555 -0.312,0.59 M -4.892,6.488 c 0.416,0 0.798,0.034 1.18,0.104 -0.139,0.694 -0.694,2.29 -1.631,4.857 -0.07,-0.451 -0.174,-1.283 -0.382,-2.498 -0.173,-1.041 -0.277,-1.873 -0.312,-2.567 0.278,0.069 0.66,0.104 1.145,0.104 m -1.7,7.251 c 0.07,0.416 0.139,0.659 0.174,0.729 -0.035,0.069 -0.07,0.069 -0.174,0.069 -0.174,-0.485 -0.243,-0.972 -0.243,-1.457 0.104,0.139 0.174,0.347 0.243,0.659 M -7.91,-0.312 c 0.277,1.561 0.485,2.671 0.694,3.261 -0.07,0.972 0,2.186 0.208,3.609 0.277,2.011 0.451,3.226 0.451,3.608 0.104,1.318 0.104,2.116 0.069,2.358 -0.555,-2.046 -1.006,-4.648 -1.353,-7.77 -0.104,-0.972 -0.243,-2.325 -0.416,-4.06 -0.174,-1.908 -0.312,-3.26 -0.416,-4.059 0.277,0.625 0.52,1.631 0.763,3.053 m 4.406,15.196 C -3.47,13.843 -3.157,12.49 -2.498,10.895 -1.735,8.917 -1.284,7.599 -1.18,6.974 -1.006,6.106 -0.659,5.031 -0.139,3.713 0.485,2.151 0.867,1.11 1.006,0.625 1.041,0.486 1.11,0.312 1.179,0 1.249,-0.277 1.284,-0.45 1.353,-0.624 1.492,-1.075 1.7,-1.388 1.978,-1.63 1.734,-2.081 1.63,-2.358 1.596,-2.394 0.971,-2.463 0.52,-2.706 0.277,-3.053 c -0.485,0.105 -0.728,0.139 -0.624,0.139 -0.07,0.069 -0.104,0.104 -0.104,0.174 0,0.138 0.034,0.208 0.034,0.208 -0.208,-0.07 -0.451,0.035 -0.659,0.243 -0.208,0.208 -0.382,0.311 -0.451,0.311 -0.069,0.729 -0.277,1.736 -0.659,3.019 C -2.602,2.603 -2.88,3.608 -2.984,4.095 -4.268,4.06 -5.413,3.955 -6.418,3.816 -6.766,-0.277 -6.939,-2.706 -6.87,-3.469 c -0.104,0 -0.173,0 -0.208,-0.069 0,-0.035 -0.034,-0.035 -0.034,-0.105 0,-0.034 -0.035,-0.069 -0.035,-0.103 -0.173,0.069 -0.52,0 -1.076,-0.209 -0.555,-0.242 -0.971,-0.208 -1.318,0.035 0,0.243 -0.035,0.451 -0.173,0.59 0.485,1.908 0.901,4.476 1.249,7.736 0.451,4.129 0.763,6.766 0.971,7.91 -0.139,0.798 0.035,1.805 0.52,2.984 0.035,0 0.07,-0.034 0.139,-0.034 0.069,-0.036 0.104,-0.036 0.104,-0.036 0.105,-0.034 0.139,-0.138 0.105,-0.242 0.971,0.521 1.457,0.763 1.457,0.763 0.138,0.035 0.242,-0.069 0.277,-0.347 0.069,0.035 0.139,0.139 0.208,0.347 0.07,0.174 0.174,0.243 0.382,0.208 0.208,-0.52 0.451,-0.867 0.798,-1.075"
         style="fill:#ffffff;fill-opacity:1;fill-rule:nonzero;stroke:none"
         id="path29831" />
    </g>
    <g
       id="g29833"
       transform="matrix(0.35277777,0,0,-0.35277777,130.71065,111.53025)">
      <path
         d="M 0,0 C 0.139,0.382 0.417,0.659 0.763,0.902 1.11,1.11 1.457,1.214 1.804,1.145 2.151,1.075 2.429,0.867 2.533,0.521 2.637,0.243 2.637,-0.035 2.533,-0.312 2.429,-0.59 2.255,-0.833 2.012,-1.041 1.77,-1.249 1.457,-1.388 1.145,-1.423 0.798,-1.492 0.417,-1.457 0.069,-1.318 -0.139,-0.833 -0.173,-0.416 0,0 m -0.798,-11.588 v -0.103 c -0.035,-0.105 0.035,-0.139 0.173,-0.139 0.035,0.311 0.035,0.763 0,1.352 -0.034,0.66 -0.069,1.145 -0.034,1.457 0.208,1.805 0.312,2.672 0.382,2.534 0.138,0.208 0.208,0.485 0.242,0.832 0,0.312 0,0.52 -0.069,0.659 -0.278,-0.763 -0.486,-1.839 -0.59,-3.122 -0.035,-0.347 -0.104,-1.492 -0.208,-3.435 0.035,0.034 0.069,0 0.104,-0.035 m 1.7,7.945 C 0.937,-3.851 1.041,-3.955 1.18,-3.99 1.18,-4.163 0.971,-5.273 0.625,-7.251 0.382,-8.743 0.312,-9.992 0.417,-10.929 c -0.105,-0.173 -0.14,-0.382 -0.14,-0.659 v -0.901 c 0.694,-0.382 1.423,-0.209 2.186,0.519 0.66,0.625 1.11,1.388 1.423,2.256 0.138,-0.035 0.277,0 0.451,0.069 C 4.476,-9.61 4.614,-9.61 4.684,-9.68 4.649,-9.783 4.718,-9.818 4.857,-9.853 4.753,-10.339 4.441,-10.859 3.955,-11.38 3.4,-11.97 3.053,-12.42 2.914,-12.732 2.671,-12.837 2.394,-13.01 2.082,-13.253 1.7,-13.53 1.457,-13.738 1.284,-13.808 c -1.701,-0.139 -2.637,0.589 -2.776,2.186 -0.034,0.277 0,0.659 0.07,1.18 0.069,0.624 0.138,1.04 0.138,1.213 0.035,1.25 0.104,2.152 0.208,2.707 0.035,0.173 0.07,0.416 0.174,0.659 0.104,0.346 0.139,0.554 0.173,0.625 0.139,0.519 0.139,0.97 0.035,1.387 0.277,-0.035 0.521,0 0.729,0.173 0.312,0.243 0.555,0.382 0.728,0.417 0.035,0 0.104,-0.139 0.139,-0.382"
         style="fill:#ffffff;fill-opacity:1;fill-rule:nonzero;stroke:none"
         id="path29835" />
    </g>
    <g
       id="g29837"
       transform="matrix(0.35277777,0,0,-0.35277777,138.22545,115.22647)">
      <path
         d="m 0,0 c -0.139,-0.416 -0.381,-0.764 -0.763,-1.075 -0.382,-0.278 -0.763,-0.417 -1.145,-0.382 -0.416,0.034 -0.694,0.243 -0.867,0.624 -0.139,0.278 -0.139,0.59 -0.07,0.902 0.07,0.313 0.243,0.59 0.521,0.833 0.277,0.243 0.589,0.416 0.936,0.521 0.382,0.103 0.798,0.069 1.215,-0.035 C 0.104,0.937 0.139,0.451 0,0"
         style="fill:#ffffff;fill-opacity:1;fill-rule:nonzero;stroke:none"
         id="path29839" />
    </g>
    <g
       id="g29841"
       transform="matrix(0.35277777,0,0,-0.35277777,137.65028,112.74185)">
      <path
         d="m 0,0 c -0.035,0.451 -0.104,0.798 -0.243,1.041 0,-1.11 0.139,-1.805 0.347,-2.047 C 0.069,-0.902 0.035,-0.556 0,0 m -0.382,-1.354 c 0,0.07 -0.035,0.139 -0.139,0.139 -0.034,-0.069 -0.034,-0.139 -0.034,-0.208 0,-0.069 0.034,-0.103 0.069,-0.139 0.069,0.07 0.104,0.139 0.104,0.208 m 0,-0.624 c -0.035,0.104 -0.069,0.174 -0.139,0.174 -0.034,-0.07 0,-0.174 0.035,-0.278 0.035,-0.104 0.104,-0.173 0.174,-0.208 0,-0.034 -0.035,0.069 -0.07,0.312 m -0.173,1.804 c 0,0.105 -0.035,0.139 -0.139,0.174 0.104,-0.312 0.139,-0.451 0.104,-0.451 0,0.035 0,0.139 0.035,0.277 M -0.972,3.33 c 0.209,-2.081 0.313,-3.191 0.347,-3.261 0.07,1.214 -0.034,2.325 -0.347,3.261 m -0.069,0.59 c 0.035,0.486 -0.069,1.526 -0.277,3.088 -0.209,1.457 -0.244,2.533 -0.14,3.262 0.313,0.069 0.556,0.034 0.66,-0.036 0,-0.103 0.035,-0.138 0.069,-0.173 0,-0.07 0,-0.139 -0.034,-0.208 C -0.798,9.749 -0.833,9.68 -0.833,9.645 -0.729,9.055 -0.59,7.771 -0.417,5.863 -0.243,4.094 -0.069,2.775 0.104,1.908 0.451,0.104 0.625,-0.972 0.625,-1.284 V -1.631 C 0.625,-1.77 0.59,-1.908 0.59,-1.978 0.59,-2.221 0.659,-2.429 0.798,-2.567 0.729,-2.811 0.59,-2.983 0.416,-3.122 0.173,-3.296 0,-3.435 -0.069,-3.504 c -0.313,0.208 -0.625,0.277 -0.937,0.242 -0.035,0.035 -0.035,0.14 -0.035,0.382 0,0.208 -0.069,0.313 -0.139,0.313 0.035,0.034 0.07,0.104 0.139,0.208 0.035,0.104 0.069,0.173 0.104,0.208 -0.139,1.318 -0.208,2.567 -0.277,3.747 0,0.243 -0.07,0.59 -0.139,1.041 -0.069,0.451 -0.139,0.798 -0.139,1.041 0,0.208 -0.035,0.451 -0.139,0.798 -0.104,0.416 -0.139,0.693 -0.173,0.832 -0.035,0.173 -0.035,0.451 -0.035,0.833 0,0.381 0,0.624 -0.035,0.797 -0.069,0.695 -0.173,1.145 -0.277,1.388 0,0.035 -0.07,0.035 -0.174,0.035 0.104,0.104 0.139,0.312 0.07,0.624 -0.07,0.313 -0.139,0.487 -0.243,0.521 -0.035,0.243 0,0.416 0.139,0.555 0.173,0.139 0.381,0.173 0.624,0.035 0,-1.457 0.208,-3.504 0.694,-6.176"
         style="fill:#ffffff;fill-opacity:1;fill-rule:nonzero;stroke:none"
         id="path29843" />
    </g>
    <g
       id="g29845"
       transform="matrix(0.35277777,0,0,-0.35277777,139.36372,106.84249)">
      <path
         d="M 0,0 C 0.451,-0.035 1.77,-0.14 2.012,-0.035 0.937,0.173 -0.139,0.139 -0.521,0.104 -0.417,0.139 -0.555,0.069 0,0 m 0.486,0.624 c 0.104,0 0.173,0.035 0.208,0.105 C 0.625,0.763 0.521,0.763 0.417,0.763 0.312,0.763 0.243,0.693 0.173,0.624 H 0.486 M -0.069,0.589 c 0.104,-0.034 0.138,0 0.208,0.104 -0.312,-0.034 -0.486,-0.034 -0.451,-0.034 0,0 0.104,0 0.243,-0.07 M 3.435,0.347 C 1.353,0.52 0.243,0.624 0.173,0.624 1.353,0.312 2.463,0.208 3.435,0.347 M 6.384,0.173 C 6.869,0.034 5.551,0.069 7.112,-0.035 8.569,-0.104 9.09,-0.104 9.784,-0.348 c 0,-0.311 0.52,-0.728 0.416,-0.798 -0.104,0.036 -0.139,0 -0.174,-0.034 -0.069,0 -0.138,0.034 -0.208,0.07 -0.104,0.069 -0.173,0.103 -0.208,0.103 -0.589,0 -1.873,0.105 -3.781,0.313 -1.77,0.173 -3.088,0.243 -3.99,0.243 -1.839,0 -0.798,-0.07 -1.11,0 -0.07,0 0.069,-0.035 -0.104,0 -0.139,0.034 -0.278,0.069 -0.348,0.103 -0.242,0.036 -0.45,0 -0.624,-0.103 -0.243,0.103 -0.382,0.277 -0.486,0.485 -0.138,0.278 -0.243,0.451 -0.277,0.555 0.277,0.278 0.381,0.556 0.416,0.868 0.035,0.034 0.139,0 0.382,-0.035 C -0.104,1.388 0,1.422 0.035,1.491 0.069,1.457 0.139,1.388 0.208,1.318 0.312,1.248 0.382,1.214 0.382,1.179 1.7,1.075 0.555,1.04 1.735,0.901 1.978,0.867 2.324,0.867 2.775,0.832 c 0.452,0 0.798,0 1.041,-0.069 0.208,-0.034 0.451,-0.034 0.798,0 0.417,0.035 0.694,0 0.867,0 0.174,0 0.452,-0.034 0.833,-0.139 C 6.696,0.555 6.938,0.52 7.112,0.52 c 0.694,-0.07 1.145,-0.035 1.423,0 0.034,0 0.034,0.069 0.069,0.173 0.069,-0.138 0.277,-0.208 0.59,-0.173 0.312,0 0.52,0.035 0.555,0.139 0.243,0 0.416,-0.07 0.52,-0.243 C 10.374,0.208 10.374,0 10.2,-0.209 8.777,0.069 6.73,0.242 3.99,0.277"
         style="fill:#ffffff;fill-opacity:1;fill-rule:nonzero;stroke:none"
         id="path29847" />
    </g>
    <g
       id="g29849"
       transform="matrix(0.35277777,0,0,-0.35277777,148.34025,42.101939)">
      <path
         d="m 0,0 c -0.397,3.924 -0.353,8.73 3.042,10.714 1.323,0.794 2.955,0.971 4.542,1.058 8.951,0.53 18.034,-0.485 26.675,-2.998 C 33.774,6.525 32.319,4.63 30.82,2.866 21.12,-8.818 21.076,-19.225 8.025,-27.028 c -0.75,-0.442 -13.36,-0.53 -14.154,-0.133 -0.838,0.441 -0.97,1.499 -0.97,2.426 -0.176,6.657 0.265,13.271 1.235,19.84"
         style="fill:#e20613;fill-opacity:1;fill-rule:nonzero;stroke:none"
         id="path29851" />
    </g>
    <g
       id="g29853"
       transform="matrix(0.35277777,0,0,-0.35277777,153.31774,42.101939)">
      <path
         d="M 0,0 C -0.176,1.72 -0.22,3.395 -0.044,5.07 -0.22,3.836 -0.397,2.558 -0.529,1.322 c 0.132,0.971 0.353,1.897 0.705,2.823 -0.485,-1.147 -0.969,-2.249 -1.41,-3.396 0.264,0.573 0.573,1.103 0.925,1.588 -0.749,-0.97 -1.455,-1.897 -2.204,-2.866 0.308,0.352 0.617,0.661 1.014,0.969 -0.97,-0.749 -1.896,-1.455 -2.866,-2.204 0.308,0.221 0.617,0.397 0.926,0.53 l -3.395,-1.412 c 0.75,0.309 1.455,0.485 2.249,0.618 C -5.82,-2.205 -7.099,-2.381 -8.333,-2.514 -2.866,-1.852 2.822,-2.205 8.29,-2.91 7.055,-2.733 5.776,-2.558 4.542,-2.425 8.51,-2.954 12.478,-3.792 16.314,-4.895 13.007,0.882 9.745,6.702 6.437,12.478 6.261,11.86 6.085,11.287 5.864,10.714 l 1.411,3.395 C 6.702,12.963 6.041,11.949 5.247,10.935 5.997,11.904 6.702,12.831 7.452,13.801 3.66,9.083 0.221,4.409 -2.689,-0.882 -4.718,-4.63 -6.658,-8.466 -9.215,-11.861 c 0.749,0.97 1.455,1.896 2.204,2.866 -1.631,-2.116 -3.483,-4.012 -5.599,-5.688 0.97,0.749 1.896,1.455 2.866,2.204 -1.103,-0.837 -2.337,-1.851 -3.616,-2.424 l 3.395,1.411 c -0.176,-0.044 -0.308,-0.088 -0.485,-0.088 1.235,0.176 2.513,0.352 3.748,0.484 -4.233,-0.529 -8.951,-0.573 -13.183,-0.088 1.234,-0.176 2.513,-0.352 3.747,-0.485 -0.132,0 -0.264,0.044 -0.397,0.089 1.147,-0.485 2.249,-0.971 3.395,-1.411 -0.131,0.088 -0.22,0.176 -0.352,0.264 l 5.071,-5.071 c -0.221,0.221 -0.353,0.486 -0.441,0.75 0.485,-1.146 0.969,-2.249 1.41,-3.395 -0.044,0.132 -0.088,0.308 -0.088,0.441 0.177,-1.234 0.353,-2.514 0.485,-3.748 -0.352,2.954 -0.132,6.085 0,9.039 0.133,3.175 0.441,6.394 0.838,9.568 -0.177,-1.235 -0.353,-2.513 -0.485,-3.748 0.088,0.749 0.221,1.455 0.308,2.204 0.574,3.925 0.662,7.32 -1.41,10.891 -1.72,2.91 -5.071,5.733 -8.422,6.482 -3.615,0.837 -7.672,0.662 -10.891,-1.411 -2.865,-1.852 -5.952,-4.894 -6.481,-8.421 -0.706,-4.895 -1.367,-9.833 -1.631,-14.771 -0.221,-4.498 -0.53,-9.348 0.529,-13.801 1.234,-5.247 5.643,-9.612 10.714,-11.111 1.499,-0.442 3.219,-0.529 4.806,-0.662 1.676,-0.132 3.395,-0.132 5.071,-0.132 5.379,0 11.287,-0.177 16.005,2.822 6.614,4.189 11.861,9.656 15.917,16.358 3.351,5.555 5.997,11.42 9.965,16.623 -0.75,-0.97 -1.455,-1.896 -2.205,-2.867 3.396,4.366 6.835,8.158 8.246,13.669 1.896,7.452 -2.382,15.212 -9.877,17.372 -9.656,2.779 -20.018,4.101 -30.071,3.528 -4.056,-0.221 -7.892,-0.794 -11.508,-2.734 -3.175,-1.719 -5.82,-4.409 -7.628,-7.54 -2.734,-4.629 -3.395,-10.405 -2.91,-15.696 0.353,-3.837 1.323,-7.187 4.145,-10.01 2.469,-2.468 6.481,-4.276 10.009,-4.144 3.659,0.177 7.451,1.367 10.009,4.144 C -1.72,-7.363 0.353,-3.704 0,0"
         style="fill:#f5c500;fill-opacity:1;fill-rule:nonzero;stroke:none"
         id="path29855" />
    </g>
    <g
       id="g29857"
       transform="matrix(0.35277777,0,0,-0.35277777,146.30264,38.571048)">
      <path
         d="m 0,0 c 0.176,-0.309 0.485,-0.485 0.926,-0.485 0.264,0 0.485,0.044 0.617,0.132 C 1.719,-0.265 1.808,-0.132 1.896,0 1.984,0.177 2.028,0.353 2.072,0.529 2.116,0.75 2.116,0.97 2.116,1.19 c 0,0.221 0,0.486 -0.044,0.662 C 2.028,2.072 1.984,2.249 1.852,2.425 1.764,2.602 1.631,2.733 1.411,2.822 1.234,2.91 0.97,2.954 0.705,2.954 H 0 v 1.499 h 0.705 c 0.221,0 0.441,0.044 0.573,0.133 0.177,0.088 0.265,0.22 0.397,0.396 0.089,0.177 0.177,0.353 0.221,0.53 0.044,0.22 0.088,0.396 0.088,0.617 0,0.529 -0.088,0.882 -0.265,1.058 C 1.543,7.407 1.278,7.496 0.926,7.496 0.705,7.496 0.529,7.451 0.353,7.363 0.22,7.275 0.088,7.143 0,7.011 -0.088,6.834 -0.132,6.658 -0.177,6.481 -0.221,6.261 -0.221,6.041 -0.221,5.776 h -1.984 c 0,1.058 0.265,1.852 0.794,2.381 0.529,0.53 1.323,0.793 2.337,0.793 0.97,0 1.72,-0.22 2.248,-0.661 C 3.704,7.849 3.968,7.143 3.968,6.217 3.968,5.556 3.836,5.07 3.527,4.63 3.218,4.188 2.866,3.968 2.336,3.836 V 3.792 C 3.042,3.704 3.527,3.396 3.792,2.954 4.056,2.514 4.232,1.94 4.232,1.278 4.232,0.926 4.188,0.529 4.1,0.177 4.012,-0.177 3.836,-0.529 3.571,-0.838 3.307,-1.146 2.954,-1.411 2.513,-1.587 2.072,-1.764 1.455,-1.852 0.705,-1.852 c -1.014,0 -1.808,0.265 -2.292,0.838 -0.53,0.573 -0.75,1.367 -0.75,2.381 v 0.044 h 2.072 C -0.221,0.794 -0.132,0.353 0,0"
         style="fill:#ffffff;fill-opacity:1;fill-rule:nonzero;stroke:none"
         id="path29859" />
    </g>
    <path
       d="m 149.64677,37.948744 h -1.49331 v -0.6223 h 1.49331 z"
       style="fill:#ffffff;fill-opacity:1;fill-rule:nonzero;stroke:none;stroke-width:0.352777"
       id="path29861" />
    <g
       id="g29863"
       transform="matrix(0.35277777,0,0,-0.35277777,149.9734,39.162233)">
      <path
         d="M 0,0 C 0,0.485 0.044,0.926 0.132,1.323 0.221,1.72 0.353,2.116 0.573,2.514 0.75,2.866 1.014,3.263 1.323,3.616 1.632,3.969 1.94,4.321 2.337,4.674 L 3.219,5.468 C 3.439,5.688 3.66,5.864 3.792,6.041 3.924,6.217 4.057,6.394 4.145,6.57 4.233,6.746 4.277,6.967 4.321,7.144 4.365,7.319 4.365,7.584 4.365,7.849 4.365,8.73 4.013,9.172 3.307,9.172 3.042,9.172 2.822,9.127 2.69,8.995 2.514,8.907 2.425,8.73 2.337,8.554 2.249,8.378 2.205,8.157 2.161,7.893 2.117,7.628 2.117,7.363 2.117,7.099 H 0.044 v 0.397 c 0,0.97 0.265,1.764 0.794,2.293 0.529,0.528 1.367,0.793 2.513,0.793 1.059,0 1.896,-0.265 2.381,-0.749 C 6.261,9.348 6.526,8.599 6.526,7.672 6.526,7.319 6.482,7.011 6.437,6.702 6.394,6.394 6.261,6.129 6.173,5.864 6.041,5.6 5.864,5.335 5.644,5.071 5.423,4.807 5.159,4.542 4.895,4.277 L 3.704,3.175 C 3.396,2.866 3.131,2.602 2.955,2.337 2.778,2.072 2.646,1.808 2.602,1.632 H 6.614 V -0.044 H 0 Z"
         style="fill:#ffffff;fill-opacity:1;fill-rule:nonzero;stroke:none"
         id="path29865" />
    </g>
    <path
       d="m 154.14221,37.948744 h -1.4933 v -0.6223 h 1.4933 z"
       style="fill:#ffffff;fill-opacity:1;fill-rule:nonzero;stroke:none;stroke-width:0.352777"
       id="path29867" />
    <path
       d="m 160.02196,37.948744 h -3.03318 v -0.6223 h 3.03318 z"
       style="fill:#ffffff;fill-opacity:1;fill-rule:nonzero;stroke:none;stroke-width:0.352777"
       id="path29869" />
    <g
       id="g29871"
       transform="matrix(0.35277777,0,0,-0.35277777,155.33982,36.517776)">
      <path
         d="m 0,0 h -2.116 v 1.411 h 0.176 c 0.706,0 1.279,0.132 1.72,0.397 0.396,0.264 0.661,0.705 0.793,1.322 H 2.161 V -7.496 H 0 Z"
         style="fill:#ffffff;fill-opacity:1;fill-rule:nonzero;stroke:none"
         id="path29873" />
    </g>
    <path
       d="m 150.75096,41.199592 h -0.74648 v -0.871009 h 0.74648 z"
       style="fill:#ffffff;fill-opacity:1;fill-rule:nonzero;stroke:none;stroke-width:0.352777"
       id="path29875" />
    <path
       d="m 152.08869,41.199592 h -0.74647 v -0.871009 h 0.74647 z"
       style="fill:#ffffff;fill-opacity:1;fill-rule:nonzero;stroke:none;stroke-width:0.352777"
       id="path29877" />
    <path
       d="m 153.44195,41.199592 h -0.74648 v -0.871009 h 0.74648 z"
       style="fill:#ffffff;fill-opacity:1;fill-rule:nonzero;stroke:none;stroke-width:0.352777"
       id="path29879" />
    <g
       id="g29881"
       transform="matrix(0.35277777,0,0,-0.35277777,149.14914,48.075013)">
      <path
         d="m 0,0 c -0.177,-0.882 -0.132,-1.764 0.044,-2.646 0.22,-0.837 0.529,-1.63 1.014,-2.292 0.485,-0.706 1.102,-1.279 1.808,-1.764 0.749,-0.485 1.543,-0.793 2.425,-0.97 0.882,-0.177 1.764,-0.132 2.646,0.044 0.837,0.221 1.631,0.529 2.336,1.015 0.706,0.484 1.279,1.101 1.764,1.807 0.485,0.749 0.794,1.543 0.97,2.425 0.176,0.882 0.132,1.764 -0.044,2.646 C 12.742,1.103 12.434,1.896 11.949,2.558 11.464,3.263 10.846,3.836 10.141,4.321 9.392,4.807 8.598,5.115 7.716,5.291 6.834,5.468 5.952,5.424 5.07,5.247 4.232,5.026 3.439,4.718 2.777,4.233 2.072,3.748 1.499,3.131 1.014,2.425 0.485,1.72 0.176,0.882 0,0 m 4.629,-11.86 c -1.499,0.264 -2.821,0.793 -4.012,1.587 -1.19,0.794 -2.204,1.763 -2.998,2.91 -0.794,1.146 -1.367,2.425 -1.72,3.792 -0.353,1.367 -0.353,2.822 -0.088,4.321 0.265,1.499 0.793,2.821 1.587,4.012 0.794,1.19 1.764,2.205 2.911,2.999 C 1.455,8.554 2.733,9.127 4.1,9.479 5.467,9.833 6.922,9.833 8.421,9.568 9.92,9.304 11.243,8.774 12.434,7.98 c 1.19,-0.793 2.204,-1.763 2.998,-2.91 0.794,-1.145 1.367,-2.424 1.719,-3.791 0.353,-1.367 0.353,-2.822 0.089,-4.321 -0.265,-1.499 -0.794,-2.822 -1.588,-4.013 -0.793,-1.19 -1.763,-2.204 -2.91,-2.998 -1.146,-0.794 -2.425,-1.367 -3.791,-1.719 C 7.54,-12.081 6.128,-12.125 4.629,-11.86 M -5.379,0.97 c -0.309,-1.631 -0.265,-3.219 0.132,-4.806 0.352,-1.543 1.014,-2.954 1.896,-4.232 0.882,-1.28 1.984,-2.337 3.351,-3.219 1.323,-0.882 2.822,-1.455 4.453,-1.764 1.631,-0.308 3.219,-0.264 4.806,0.132 1.543,0.353 2.954,1.015 4.233,1.897 1.279,0.881 2.337,1.983 3.218,3.35 0.882,1.322 1.456,2.822 1.764,4.453 C 18.783,-1.587 18.739,0 18.342,1.588 17.989,3.131 17.328,4.542 16.446,5.82 15.564,7.099 14.462,8.157 13.095,9.039 11.772,9.921 10.273,10.494 8.642,10.803 7.01,11.111 5.423,11.067 3.836,10.671 2.292,10.317 0.882,9.656 -0.397,8.774 -1.676,7.893 -2.734,6.79 -3.616,5.424 -4.542,4.101 -5.115,2.602 -5.379,0.97 m -4.366,0.75 c 0.397,2.249 1.191,4.277 2.381,6.085 1.191,1.851 2.69,3.35 4.409,4.585 1.72,1.19 3.66,2.072 5.821,2.557 2.116,0.486 4.321,0.574 6.57,0.177 2.248,-0.397 4.276,-1.19 6.084,-2.381 1.852,-1.19 3.351,-2.69 4.586,-4.409 1.19,-1.72 2.072,-3.66 2.557,-5.82 0.485,-2.118 0.573,-4.322 0.176,-6.571 -0.396,-2.248 -1.19,-4.276 -2.381,-6.084 -1.19,-1.852 -2.689,-3.351 -4.409,-4.586 -1.719,-1.234 -3.659,-2.072 -5.82,-2.557 -2.116,-0.485 -4.321,-0.573 -6.57,-0.176 -2.248,0.397 -4.277,1.19 -6.084,2.381 -1.852,1.19 -3.351,2.689 -4.586,4.409 -1.235,1.72 -2.072,3.659 -2.557,5.82 -0.529,2.161 -0.574,4.321 -0.177,6.57"
         style="fill:#ffffff;fill-opacity:1;fill-rule:nonzero;stroke:none"
         id="path29883" />
    </g>
    <g
       id="g29885"
       transform="matrix(0.35277777,0,0,-0.35277777,156.95745,45.74168)">
      <path
         d="M 0,0 C 0.309,-0.133 0.662,-0.265 1.059,-0.354 1.367,-0.441 1.72,-0.573 2.073,-0.662 2.425,-0.75 2.822,-0.838 3.175,-0.926 3.836,-1.059 4.498,-1.103 5.159,-1.059 5.82,-1.015 6.437,-0.838 7.011,-0.573 7.584,-0.309 8.069,0.088 8.466,0.573 8.863,1.058 9.127,1.72 9.26,2.557 9.392,3.263 9.304,3.924 9.083,4.629 8.863,5.291 8.51,5.996 8.069,6.657 7.628,7.319 7.143,7.98 6.658,8.598 6.129,9.215 5.644,9.876 5.203,10.493 c -0.441,0.618 -0.794,1.236 -1.058,1.853 -0.265,0.617 -0.309,1.19 -0.221,1.763 0.133,0.838 0.53,1.455 1.191,1.852 0.617,0.352 1.543,0.441 2.778,0.221 0.176,-0.044 0.397,-0.088 0.573,-0.133 0.221,-0.044 0.397,-0.088 0.573,-0.176 0.176,-0.044 0.353,-0.089 0.573,-0.133 l 0.177,0.926 C 9.612,16.711 9.436,16.755 9.26,16.799 9.083,16.843 8.907,16.887 8.73,16.931 8.51,16.976 8.333,17.02 8.113,17.063 6.834,17.284 5.732,17.195 4.762,16.755 3.836,16.313 3.263,15.476 3.042,14.241 2.91,13.58 2.999,12.919 3.219,12.257 3.439,11.596 3.792,10.979 4.233,10.317 4.674,9.656 5.159,9.038 5.644,8.377 6.173,7.76 6.658,7.099 7.099,6.481 7.54,5.864 7.893,5.202 8.113,4.585 8.378,3.968 8.422,3.307 8.333,2.689 8.113,1.543 7.584,0.749 6.702,0.309 5.82,-0.133 4.718,-0.265 3.351,0 2.558,0.132 1.808,0.353 1.146,0.573 0.794,0.661 0.441,0.793 0.132,0.926 Z M -2.249,4.806 C -1.764,4.541 -1.234,4.32 -0.661,4.145 -0.22,3.924 0.309,3.747 0.926,3.571 1.543,3.395 2.117,3.263 2.734,3.13 3.836,2.954 4.454,3.263 4.586,4.057 4.63,4.365 4.542,4.718 4.233,5.07 3.968,5.467 3.616,5.864 3.175,6.349 2.734,6.834 2.249,7.363 1.764,7.937 1.279,8.51 0.794,9.171 0.397,9.876 0,10.582 -0.309,11.375 -0.485,12.169 c -0.176,0.838 -0.22,1.764 -0.044,2.733 0.176,1.103 0.573,2.074 1.147,2.867 0.573,0.793 1.234,1.411 2.072,1.852 0.793,0.441 1.719,0.749 2.733,0.882 1.014,0.132 2.073,0.088 3.175,-0.089 0.573,-0.088 1.147,-0.22 1.72,-0.396 0.573,-0.177 1.058,-0.309 1.499,-0.442 0.529,-0.176 1.014,-0.308 1.499,-0.484 l -1.191,-6.658 c -0.176,0.044 -0.396,0.132 -0.617,0.176 -0.176,0.044 -0.397,0.132 -0.617,0.176 -0.221,0.044 -0.485,0.133 -0.749,0.177 -0.133,0.044 -0.309,0.044 -0.53,0.088 -0.22,0.044 -0.441,0.044 -0.617,0 -0.221,0 -0.397,-0.088 -0.529,-0.176 C 8.29,12.786 8.201,12.61 8.157,12.434 8.113,12.257 8.246,11.993 8.51,11.64 8.774,11.287 9.127,10.891 9.524,10.449 9.921,9.965 10.362,9.436 10.847,8.862 11.332,8.245 11.729,7.584 12.082,6.878 12.434,6.173 12.699,5.379 12.875,4.497 13.051,3.615 13.051,2.689 12.875,1.675 12.699,0.617 12.346,-0.309 11.861,-1.19 11.376,-2.028 10.714,-2.734 9.877,-3.308 9.039,-3.881 8.069,-4.233 6.878,-4.453 5.732,-4.674 4.365,-4.63 2.866,-4.365 c -0.926,0.176 -1.72,0.352 -2.513,0.573 -0.749,0.221 -1.411,0.44 -1.984,0.661 -0.661,0.221 -1.279,0.485 -1.808,0.75 z"
         style="fill:#ffffff;fill-opacity:1;fill-rule:nonzero;stroke:none"
         id="path29887" />
    </g>
    <g
       id="g29889"
       transform="matrix(0.35277777,0,0,-0.35277777,150.14461,49.490613)">
      <path
         d="M 0,0 C -0.485,0.662 -0.617,1.411 -0.485,2.249 -0.353,3.087 0.088,3.704 0.793,4.189 1.455,4.674 2.205,4.807 3.042,4.674 3.88,4.542 4.497,4.101 4.982,3.439 5.467,2.734 5.644,1.984 5.467,1.191 5.291,0.397 4.894,-0.264 4.233,-0.749 3.527,-1.234 2.778,-1.41 1.984,-1.234 1.102,-1.102 0.441,-0.661 0,0 m -1.543,-2.072 c -0.397,-0.397 -0.97,-0.926 -1.764,-1.631 -1.543,-1.323 -2.866,-2.514 -3.924,-3.484 -2.69,-2.513 -4.233,-3.968 -4.63,-4.277 -1.014,-0.882 -1.72,-1.499 -2.117,-1.764 -0.131,-0.087 -0.352,-0.264 -0.661,-0.44 -0.397,0.176 -0.705,0.353 -1.058,0.573 l -2.645,1.676 -1.103,1.631 c 0.309,0.221 0.529,0.396 0.706,0.529 0.705,0.486 1.94,1.191 3.748,2.072 l 5.82,2.955 6.217,3.13 1.499,-0.75 z"
         style="fill:#ffffff;fill-opacity:1;fill-rule:nonzero;stroke:none"
         id="path29891" />
    </g>
    <g
       id="g29893"
       transform="matrix(0.35277777,0,0,-0.35277777,146.90914,44.621672)">
      <path
         d="m 0,0 -0.132,0.837 -7.981,-1.41 -3.042,17.239 -0.926,-0.176 3.175,-18.122 z m -16.226,18.738 7.937,1.411 3.086,-17.592 6.57,1.146 1.102,-6.261 -14.506,-2.557 z"
         style="fill:#ffffff;fill-opacity:1;fill-rule:nonzero;stroke:none"
         id="path29895" />
    </g>
    <g
       id="g29897"
       transform="matrix(0.35277777,0,0,-0.35277777,49.549218,48.324118)">
      <path
         d="M 0,0 C -0.166,1.62 -0.208,3.199 -0.042,4.778 -0.208,3.615 -0.374,2.41 -0.499,1.246 c 0.125,0.915 0.333,1.787 0.666,2.66 -0.458,-1.081 -0.915,-2.119 -1.331,-3.2 0.25,0.54 0.541,1.039 0.873,1.496 -0.706,-0.914 -1.371,-1.787 -2.078,-2.701 0.291,0.333 0.582,0.623 0.956,0.914 -0.914,-0.706 -1.787,-1.371 -2.701,-2.077 0.291,0.207 0.582,0.374 0.873,0.498 l -3.2,-1.329 c 0.707,0.291 1.371,0.457 2.119,0.581 C -5.485,-2.078 -6.69,-2.244 -7.854,-2.369 -2.701,-1.745 2.66,-2.078 7.812,-2.743 6.649,-2.576 5.444,-2.41 4.28,-2.286 8.02,-2.784 11.76,-3.574 15.375,-4.612 12.259,0.831 9.184,6.316 6.067,11.76 5.901,11.178 5.735,10.638 5.527,10.098 l 1.329,3.199 C 6.316,12.217 5.693,11.261 4.945,10.306 5.651,11.22 6.316,12.092 7.023,13.007 3.449,8.561 0.208,4.155 -2.535,-0.831 c -1.911,-3.532 -3.74,-7.148 -6.15,-10.348 0.706,0.914 1.372,1.787 2.078,2.701 -1.538,-1.994 -3.283,-3.781 -5.278,-5.36 0.915,0.706 1.787,1.371 2.701,2.078 -1.038,-0.79 -2.202,-1.746 -3.407,-2.286 l 3.2,1.33 c -0.167,-0.042 -0.291,-0.083 -0.458,-0.083 1.164,0.166 2.369,0.332 3.533,0.457 -3.99,-0.499 -8.436,-0.54 -12.425,-0.083 1.163,-0.166 2.368,-0.333 3.532,-0.457 -0.124,0 -0.249,0.041 -0.374,0.083 1.081,-0.457 2.119,-0.914 3.2,-1.33 -0.125,0.083 -0.208,0.166 -0.333,0.249 l 4.779,-4.778 c -0.208,0.208 -0.333,0.457 -0.416,0.706 0.457,-1.08 0.915,-2.119 1.331,-3.199 -0.042,0.124 -0.084,0.291 -0.084,0.415 0.167,-1.163 0.333,-2.368 0.457,-3.533 -0.332,2.785 -0.124,5.736 0,8.52 0.125,2.991 0.416,6.025 0.79,9.017 -0.166,-1.164 -0.332,-2.369 -0.457,-3.533 0.083,0.707 0.208,1.372 0.291,2.078 0.54,3.699 0.623,6.899 -1.33,10.264 -1.621,2.743 -4.779,5.402 -7.937,6.11 -3.408,0.789 -7.23,0.623 -10.264,-1.331 -2.701,-1.745 -5.61,-4.612 -6.109,-7.937 -0.665,-4.612 -1.288,-9.267 -1.537,-13.92 -0.208,-4.239 -0.499,-8.811 0.498,-13.007 1.164,-4.945 5.319,-9.059 10.098,-10.471 1.413,-0.417 3.034,-0.5 4.53,-0.625 1.579,-0.124 3.2,-0.124 4.779,-0.124 5.069,0 10.637,-0.167 15.084,2.66 6.233,3.947 11.178,9.1 15.001,15.417 3.158,5.235 5.651,10.762 9.392,15.666 -0.707,-0.914 -1.372,-1.787 -2.078,-2.702 3.2,4.115 6.441,7.688 7.771,12.882 1.786,7.023 -2.245,14.337 -9.309,16.373 -9.1,2.618 -18.866,3.865 -28.34,3.325 -3.823,-0.208 -7.438,-0.748 -10.846,-2.577 -2.992,-1.621 -5.485,-4.156 -7.189,-7.106 -2.576,-4.363 -3.2,-9.807 -2.742,-14.793 0.332,-3.615 1.246,-6.773 3.906,-9.434 2.327,-2.327 6.108,-4.03 9.433,-3.906 3.449,0.167 7.023,1.289 9.433,3.906 C -1.621,-6.939 0.333,-3.491 0,0"
         style="fill:#77aecf;fill-opacity:1;fill-rule:nonzero;stroke:none"
         id="path29899" />
    </g>
    <g
       id="g29901"
       transform="matrix(0.35277777,0,0,-0.35277777,46.998457,47.591329)">
      <path
         d="m 0,0 c 0,-1.62 -0.665,-2.991 -1.953,-4.113 -1.455,-1.247 -3.283,-1.87 -5.485,-1.87 -1.829,0 -3.159,0.415 -4.031,1.288 -0.54,0.54 -0.831,1.163 -0.831,1.87 0,0.582 0.208,1.08 0.582,1.454 0.374,0.374 0.872,0.54 1.537,0.54 0.499,0 0.914,-0.166 1.247,-0.457 0.332,-0.291 0.498,-0.665 0.498,-1.122 0,-0.664 -0.457,-1.205 -1.371,-1.62 -0.374,-0.166 -0.54,-0.333 -0.54,-0.457 0,-0.25 0.249,-0.499 0.748,-0.707 0.498,-0.207 1.039,-0.29 1.662,-0.29 1.455,0 2.66,0.498 3.574,1.495 0.914,0.998 1.371,2.327 1.371,3.948 0,3.282 -1.454,4.945 -4.405,4.945 H -8.02 -8.228 c -0.249,0 -0.374,0.083 -0.374,0.249 0,0.125 0.249,0.249 0.706,0.332 1.372,0.208 2.411,0.707 3.159,1.496 0.748,0.79 1.122,1.829 1.122,3.076 0,1.247 -0.333,2.244 -0.956,2.992 -0.623,0.748 -1.496,1.122 -2.576,1.122 -0.79,0 -1.497,-0.167 -2.078,-0.499 -0.582,-0.332 -0.873,-0.748 -0.873,-1.163 0,-0.167 0.125,-0.291 0.416,-0.333 1.288,-0.291 1.911,-0.831 1.911,-1.62 0,-0.998 -0.499,-1.496 -1.537,-1.496 -0.665,0 -1.205,0.208 -1.579,0.582 -0.416,0.373 -0.582,0.914 -0.582,1.537 0,1.039 0.457,1.911 1.371,2.618 0.914,0.706 2.161,1.08 3.782,1.08 1.828,0 3.241,-0.457 4.197,-1.413 0.955,-0.955 1.454,-2.036 1.454,-3.324 0,-1.745 -0.831,-3.034 -2.452,-3.865 C -3.698,5.984 -4.654,5.735 -5.942,5.527 V 5.319 C -4.322,5.278 -3.034,4.904 -2.036,4.239 -0.707,3.241 0,1.829 0,0"
         style="fill:#ffffff;fill-opacity:1;fill-rule:nonzero;stroke:none"
         id="path29903" />
    </g>
    <g
       id="g29905"
       transform="matrix(0.35277777,0,0,-0.35277777,54.870692,48.734752)">
      <path
         d="m 0,0 c 0,-0.166 -0.208,-0.249 -0.624,-0.249 h -0.374 -1.08 -2.244 -2.534 -0.873 c -0.458,0 -0.707,0.083 -0.707,0.249 0,0.167 0.125,0.25 0.416,0.25 0.416,0 0.873,0 1.371,0.041 0.582,0 0.915,0.166 0.956,0.457 0.042,0.291 0.083,0.873 0.083,1.829 v 13.63 c 0,0.623 0,0.997 -0.041,1.122 -0.042,0.124 -0.167,0.166 -0.416,0.166 -0.083,0 -0.748,-0.042 -1.912,-0.125 -0.249,0 -0.374,-0.041 -0.457,-0.041 -0.249,0 -0.332,0.083 -0.332,0.207 0,0.167 0.124,0.25 0.332,0.25 0.915,0.083 1.829,0.374 2.743,0.831 0.914,0.457 1.662,0.997 2.244,1.62 0.208,0.166 0.374,0.25 0.415,0.25 0.167,0 0.25,-0.084 0.25,-0.291 V 19.655 19.115 1.704 c 0,-0.706 0.041,-1.122 0.083,-1.205 0.083,-0.125 0.291,-0.166 0.706,-0.208 h 0.665 0.499 0.415 C -0.166,0.291 0,0.208 0,0"
         style="fill:#ffffff;fill-opacity:1;fill-rule:nonzero;stroke:none"
         id="path29907" />
    </g>
    <g
       id="g29909"
       transform="matrix(0.35277777,0,0,-0.35277777,51.689485,45.509482)">
      <path
         d="M 0,0 C 0,-0.042 0,-0.208 -0.042,-0.457 -0.125,-1.081 -0.291,-2.66 -0.499,-5.194 L -0.54,-5.568 c -1.995,0.083 -4.28,0.166 -6.815,0.166 -1.372,0 -2.66,-0.042 -3.865,-0.083 -1.205,-0.042 -1.745,-0.083 -1.579,-0.083 -0.54,0 -0.789,0.083 -0.789,0.291 0,0.166 0.499,0.623 1.496,1.454 2.41,1.995 4.155,3.574 5.194,4.82 1.787,2.161 2.66,4.695 2.66,7.605 0,1.953 -0.416,3.449 -1.205,4.446 -0.624,0.79 -1.496,1.164 -2.619,1.164 -1.122,0 -1.994,-0.333 -2.617,-1.039 -0.499,-0.54 -0.748,-1.039 -0.748,-1.579 0,-0.333 0.249,-0.499 0.789,-0.54 1.371,-0.042 2.036,-0.665 2.036,-1.787 0,-1.08 -0.582,-1.621 -1.704,-1.621 -0.706,0 -1.288,0.208 -1.703,0.665 -0.416,0.457 -0.623,1.039 -0.623,1.829 0,1.454 0.498,2.576 1.495,3.448 0.998,0.873 2.327,1.288 3.99,1.288 1.662,0 3.033,-0.54 4.114,-1.579 1.246,-1.205 1.869,-2.825 1.869,-4.778 0,-2.162 -0.706,-4.156 -2.16,-5.943 -1.455,-1.828 -3.865,-3.781 -7.231,-5.9 1.288,0.041 2.909,0.041 4.821,0.041 1.62,0 2.618,0.042 3.033,0.083 0.416,0.042 0.79,0.167 1.122,0.374 0.291,0.166 0.499,0.831 0.706,1.953 0.125,0.79 0.333,1.164 0.582,1.164 C -0.083,0.457 0,0.291 0,0"
         style="fill:#ffffff;fill-opacity:1;fill-rule:nonzero;stroke:none"
         id="path29911" />
    </g>
    <g
       id="g29913"
       transform="matrix(0.35277777,0,0,-0.35277777,56.219432,53.645735)">
      <path
         d="m 0,0 c 0,-0.415 -0.167,-0.789 -0.458,-1.121 -0.29,-0.291 -0.664,-0.458 -1.121,-0.458 -0.458,0 -0.832,0.167 -1.122,0.458 -0.291,0.29 -0.457,0.664 -0.457,1.121 0,0.457 0.166,0.831 0.457,1.122 0.29,0.291 0.706,0.457 1.122,0.457 0.415,0 0.789,-0.166 1.08,-0.457 C -0.167,0.79 0,0.416 0,0 M 0.083,17.162 C -0.79,12.176 -1.206,7.854 -1.164,4.197 c 0,-0.415 -0.125,-0.623 -0.374,-0.623 -0.249,0 -0.374,0.208 -0.374,0.582 0,3.656 -0.374,7.979 -1.205,13.048 0.416,0.789 0.623,1.205 0.623,1.205 0.333,0.54 0.665,0.831 0.956,0.831 0.249,0 0.457,-0.083 0.582,-0.249 0.124,-0.166 0.457,-0.665 0.914,-1.496 z"
         style="fill:#ffffff;fill-opacity:1;fill-rule:nonzero;stroke:none"
         id="path29915" />
    </g>
    <g
       id="g29917"
       transform="matrix(0.35277777,0,0,-0.35277777,41.735716,53.30847)">
      <path
         d="m 0,0 c 0,3.698 -0.831,5.527 -2.494,5.527 -0.748,0 -1.329,-0.333 -1.869,-1.039 -0.25,-0.333 -0.333,-0.873 -0.333,-1.662 v -5.735 c 0,-1.246 0.166,-2.077 0.457,-2.534 C -3.782,-6.108 -3.2,-6.44 -2.452,-6.44 -0.79,-6.357 0,-4.238 0,0 m 4.28,-0.083 c 0,-1.994 -0.54,-3.615 -1.662,-4.945 -1.122,-1.329 -2.535,-1.953 -4.197,-1.953 -1.289,0 -2.286,0.499 -3.075,1.496 v -6.524 c 0,-0.541 0.041,-0.873 0.083,-1.039 0.041,-0.125 0.166,-0.25 0.374,-0.291 0.208,-0.042 0.706,-0.083 1.537,-0.083 0.208,0 0.333,-0.083 0.333,-0.291 0,-0.125 -0.125,-0.208 -0.374,-0.208 h -0.291 -0.499 -2.95 -0.873 -1.288 -1.455 c -0.415,0 -0.623,0.083 -0.623,0.249 0,0.125 0.333,0.208 1.039,0.208 0.582,0 0.914,0.042 0.956,0.166 0.083,0.125 0.083,0.499 0.083,1.122 V 2.493 2.909 3.158 3.989 c 0,0.416 -0.125,0.665 -0.457,0.748 -0.167,0.042 -0.499,0.083 -0.998,0.083 h -0.54 c -0.166,0 -0.249,0.042 -0.249,0.166 0,0.167 0.125,0.208 0.332,0.167 2.036,0.041 3.865,0.457 5.403,1.163 0.083,-0.125 0.124,-0.291 0.166,-0.457 l 0.041,-0.748 0.042,-0.499 c 0.54,0.665 1.039,1.081 1.537,1.33 0.499,0.249 1.164,0.374 1.953,0.374 1.621,0 2.951,-0.623 4.031,-1.828 C 3.74,3.241 4.28,1.745 4.28,-0.083"
         style="fill:#ffffff;fill-opacity:1;fill-rule:nonzero;stroke:none"
         id="path29919" />
    </g>
    <g
       id="g29921"
       transform="matrix(0.35277777,0,0,-0.35277777,43.949221,57.002662)">
      <path
         d="M 0,0 V 1.205 C -1.579,0.914 -2.369,0 -2.369,-1.496 c 0,-1.163 0.374,-1.704 1.164,-1.704 0.457,0 0.748,0.25 0.914,0.748 C -0.083,-1.995 0,-1.163 0,0 m 5.153,-2.909 c 0,-0.124 -0.125,-0.332 -0.374,-0.54 C 4.073,-4.114 3.2,-4.405 2.161,-4.405 c -0.665,0 -1.163,0.125 -1.454,0.416 -0.291,0.291 -0.499,0.789 -0.582,1.496 -0.748,-1.33 -1.746,-1.995 -3.034,-1.995 -0.706,0 -1.288,0.208 -1.703,0.665 -0.416,0.457 -0.665,0.997 -0.665,1.704 0,2.077 1.745,3.282 5.277,3.656 v 0.499 c 0,1.621 -0.042,2.659 -0.166,3.033 l -0.042,0.125 c -0.249,0.831 -0.789,1.247 -1.745,1.247 -0.54,0 -0.956,-0.167 -1.288,-0.458 C -3.574,5.693 -3.74,5.36 -3.74,5.069 -3.74,4.903 -3.532,4.82 -3.158,4.778 -2.576,4.737 -2.285,4.363 -2.285,3.698 -2.285,3.324 -2.41,3.033 -2.659,2.784 -2.909,2.535 -3.2,2.41 -3.574,2.41 c -0.457,0 -0.872,0.125 -1.163,0.416 -0.291,0.29 -0.457,0.664 -0.457,1.08 0,0.706 0.332,1.33 1.039,1.911 0.706,0.582 1.62,0.873 2.784,0.873 1.704,0 2.867,-0.291 3.574,-0.914 0.54,-0.499 0.789,-1.371 0.789,-2.66 V -1.08 c 0,-0.831 0,-1.288 0.042,-1.413 0.083,-0.706 0.332,-1.039 0.706,-1.039 0.291,0 0.623,0.208 1.039,0.582 0.083,0.083 0.166,0.124 0.208,0.124 0.124,0.042 0.166,0 0.166,-0.083"
         style="fill:#ffffff;fill-opacity:1;fill-rule:nonzero;stroke:none"
         id="path29923" />
    </g>
    <g
       id="g29925"
       transform="matrix(0.35277777,0,0,-0.35277777,47.804801,54.598288)">
      <path
         d="m 0,0 c 0,-0.374 -0.083,-0.624 -0.291,-0.873 -0.208,-0.249 -0.457,-0.332 -0.79,-0.332 -0.665,0 -0.997,0.29 -0.997,0.914 0,0.207 0.083,0.415 0.249,0.623 0.042,0.041 0.042,0.083 0.042,0.125 0,0.124 -0.083,0.166 -0.249,0.166 -0.416,0 -0.707,-0.333 -0.956,-0.956 -0.125,-0.374 -0.166,-1.246 -0.166,-2.701 v -1.329 -1.621 c 0,-0.332 0.166,-0.499 0.498,-0.54 h 0.707 c 0.124,0 0.207,-0.042 0.207,-0.125 0,-0.083 -0.041,-0.166 -0.166,-0.166 H -2.286 -3.865 -4.696 -5.61 -6.316 -6.732 c -0.124,0 -0.208,0.042 -0.208,0.125 0,0.083 0.084,0.124 0.25,0.124 0.498,0 0.789,0.083 0.914,0.167 0.083,0.083 0.166,0.373 0.166,0.831 v 4.903 c 0,0.415 -0.041,0.706 -0.166,0.872 -0.125,0.167 -0.374,0.25 -0.79,0.291 -0.332,0.042 -0.498,0.042 -0.54,0.042 -0.041,0 -0.083,0.041 -0.083,0.124 0,0.083 0.042,0.083 0.166,0.083 h 0.291 0.374 c 0.956,0 1.953,0.208 3.033,0.582 0.042,-0.249 0.084,-0.54 0.084,-0.831 V -0.25 c 0.249,0.582 0.498,0.997 0.747,1.247 0.291,0.249 0.624,0.374 1.081,0.374 0.415,0 0.748,-0.125 0.997,-0.374 C -0.125,0.706 0,0.374 0,0"
         style="fill:#ffffff;fill-opacity:1;fill-rule:nonzero;stroke:none"
         id="path29927" />
    </g>
    <g
       id="g29929"
       transform="matrix(0.35277777,0,0,-0.35277777,50.766018,56.944057)">
      <path
         d="m 0,0 c 0,-0.166 -0.167,-0.415 -0.457,-0.706 -0.831,-0.79 -1.953,-1.164 -3.408,-1.164 -1.329,0 -2.202,0.333 -2.617,0.956 -0.167,0.249 -0.25,0.499 -0.291,0.706 C -6.815,0 -6.815,0.582 -6.815,1.455 V 2.66 c 0.042,0.332 0.042,0.664 0.042,0.997 l -0.042,0.54 v 2.244 1.788 c 0,0.29 -0.041,0.457 -0.125,0.54 -0.083,0.041 -0.332,0.083 -0.747,0.083 -0.5,0 -0.749,0.083 -0.749,0.208 0,0.083 0.083,0.166 0.291,0.207 1.579,0.042 2.909,0.914 4.031,2.535 0.166,0.249 0.249,0.332 0.332,0.332 0.083,0 0.167,-0.124 0.167,-0.332 0,-1.413 0.041,-2.202 0.166,-2.327 0.124,-0.125 0.54,-0.208 1.205,-0.208 0.706,0 1.205,0.042 1.454,0.083 0.042,0 0.083,0.042 0.083,0.042 0.083,0 0.083,-0.042 0.083,-0.166 0,-0.25 -0.124,-0.374 -0.332,-0.374 C -1.621,8.852 -2.369,8.81 -3.2,8.81 H -3.532 V 8.27 c 0,-4.447 0.041,-7.023 0.083,-7.771 0.166,-0.956 0.623,-1.455 1.413,-1.455 0.374,0 0.789,0.25 1.371,0.748 0.249,0.25 0.457,0.333 0.498,0.333 C 0,0.125 0,0.083 0,0"
         style="fill:#ffffff;fill-opacity:1;fill-rule:nonzero;stroke:none"
         id="path29931" />
    </g>
    <g
       id="g29933"
       transform="matrix(0.35277777,0,0,-0.35277777,54.533579,56.606793)">
      <path
         d="M 0,0 C 0,-0.125 -0.083,-0.416 -0.208,-0.956 -0.25,-1.164 -0.333,-1.496 -0.416,-1.953 -0.458,-2.161 -0.499,-2.41 -0.541,-2.618 L -0.582,-2.867 H -0.873 -3.075 -6.69 c -0.167,0 -0.374,0 -0.582,-0.042 -0.208,-0.041 -0.333,-0.041 -0.374,-0.041 -0.125,0 -0.208,0.041 -0.208,0.124 l 0.042,0.125 c 0.54,0.997 1.371,2.452 2.451,4.446 0.457,0.79 1.039,1.745 1.704,2.909 l 0.415,0.789 C -3.408,5.485 -3.574,5.485 -3.74,5.485 -4.654,5.485 -5.361,5.319 -5.776,5.028 -6.192,4.737 -6.566,4.155 -6.857,3.283 -6.94,3.075 -6.981,2.992 -7.064,2.992 c -0.083,0 -0.083,0.041 -0.083,0.124 0,0.042 0.041,0.374 0.166,0.956 l 0.166,0.914 0.125,0.873 h 0.291 L -5.61,5.817 h 2.784 c 1.205,0 1.953,0 2.285,0.042 h 0.083 c 0.084,0 0.125,-0.042 0.125,-0.083 0,-0.125 -0.374,-0.873 -1.163,-2.286 l -3.366,-6.025 h 1.33 c 0.997,0 1.703,0.208 2.16,0.623 0.416,0.374 0.748,0.956 1.039,1.746 C -0.291,0 -0.208,0.083 -0.125,0.083 -0.042,0.125 0,0.083 0,0"
         style="fill:#ffffff;fill-opacity:1;fill-rule:nonzero;stroke:none"
         id="path29935" />
    </g>
    <g
       id="g29937"
       transform="matrix(0.35277777,0,0,-0.35277777,52.275836,54.011945)">
      <path
         d="m 0,0 c 0,1.122 -0.083,1.869 -0.249,2.285 -0.167,0.415 -0.457,0.623 -0.914,0.623 -0.873,0 -1.372,-0.997 -1.496,-2.95 h 1.911 C -0.457,0 -0.208,0 0,0 M 2.743,-3.782 C 2.743,-4.114 2.535,-4.53 2.161,-5.028 1.372,-6.15 0.291,-6.69 -0.997,-6.69 c -1.455,0 -2.66,0.457 -3.574,1.371 -0.955,0.914 -1.412,2.119 -1.412,3.532 0,1.413 0.457,2.576 1.371,3.532 0.914,0.956 2.036,1.413 3.407,1.413 0.914,0 1.704,-0.208 2.369,-0.624 C 1.87,2.077 2.369,1.454 2.577,0.623 2.618,0.374 2.66,0.041 2.701,-0.291 2.369,-0.333 1.039,-0.374 -1.288,-0.374 c -0.374,0 -0.831,0 -1.371,-0.042 -0.042,-0.499 -0.083,-0.956 -0.083,-1.33 0,-1.662 0.332,-2.867 1.038,-3.573 0.416,-0.416 0.915,-0.623 1.538,-0.623 0.499,0 0.998,0.166 1.455,0.498 0.457,0.333 0.831,0.79 1.08,1.33 0.125,0.291 0.208,0.415 0.291,0.415 0.041,0.042 0.083,0 0.083,-0.083"
         style="fill:#ffffff;fill-opacity:1;fill-rule:nonzero;stroke:none"
         id="path29939" />
    </g>
    <path
       d="m 55.662183,45.27488 h 3.283656 v 0.601134 h -3.283656 z"
       style="fill:#ffffff;fill-opacity:1;fill-rule:nonzero;stroke:none;stroke-width:0.352777"
       id="path29941" />
    <path
       d="M 99.949199,78.135423 H 93.655996 V 54.679229 h 6.293203 z"
       style="fill:#ffffff;fill-opacity:1;fill-rule:nonzero;stroke:none;stroke-width:0.352777"
       id="path29943" />
    <path
       d="M 108.53052,69.553752 H 85.074323 v -6.293204 h 23.456197 z"
       style="fill:#ffffff;fill-opacity:1;fill-rule:nonzero;stroke:none;stroke-width:0.352777"
       id="path29945" />
  </g>
</svg>
