<?xml version="1.0" encoding="UTF-8" standalone="no"?>
<svg
   xmlns:dc="http://purl.org/dc/elements/1.1/"
   xmlns:cc="http://creativecommons.org/ns#"
   xmlns:rdf="http://www.w3.org/1999/02/22-rdf-syntax-ns#"
   xmlns:svg="http://www.w3.org/2000/svg"
   xmlns="http://www.w3.org/2000/svg"
   xmlns:sodipodi="http://sodipodi.sourceforge.net/DTD/sodipodi-0.dtd"
   xmlns:inkscape="http://www.inkscape.org/namespaces/inkscape"
   version="1.1"
   x="0px"
   y="0px"
   width="1250.6051"
   height="797.27832"
   viewBox="0 0 1250.6051 797.27834"
   enable-background="new 0 0 1346.473 862.884"
   xml:space="preserve"
   id="svg2"
   inkscape:version="1.0.1 (c497b03c, 2020-09-10)"
   sodipodi:docname="switzerland_region_colors.svg"><metadata
     id="metadata456"><rdf:RDF><cc:Work
         rdf:about=""><dc:format>image/svg+xml</dc:format><dc:type
           rdf:resource="http://purl.org/dc/dcmitype/StillImage" /><dc:title></dc:title></cc:Work></rdf:RDF></metadata><defs
     id="defs454"><sodipodi:namedview
       pagecolor="#ffffff"
       bordercolor="#666666"
       inkscape:cx="674.44983"
       gridtolerance="10.0"
       objecttolerance="10.0"
       inkscape:cy="444.15723"
       borderopacity="1.0"
       guidetolerance="10.0"
       inkscape:zoom="0.42552499"
       id="base"
       inkscape:window-height="582"
       inkscape:pageshadow="2"
       inkscape:pageopacity="0.0"
       inkscape:window-width="777"
       inkscape:window-x="1344"
       inkscape:window-y="0"
       inkscape:current-layer="svg2474"
       width="1348.9px"
       height="865px" /></defs><sodipodi:namedview
     pagecolor="#ffffff"
     bordercolor="#666666"
     borderopacity="1"
     objecttolerance="10"
     gridtolerance="10"
     guidetolerance="10"
     inkscape:pageopacity="0"
     inkscape:pageshadow="2"
     inkscape:window-width="1440"
     inkscape:window-height="855"
     id="namedview452"
     showgrid="false"
     inkscape:zoom="0.6308946"
     inkscape:cx="625.30255"
     inkscape:cy="398.63916"
     inkscape:window-x="0"
     inkscape:window-y="23"
     inkscape:window-maximized="0"
     inkscape:current-layer="layer2"
     inkscape:snap-bbox="true"
     fit-margin-top="0"
     fit-margin-left="0"
     fit-margin-right="0"
     fit-margin-bottom="0"
     inkscape:document-rotation="0" /><g
     inkscape:groupmode="layer"
     id="layer1"
     inkscape:label="CH-Grenze"
     style="display:inline"
     transform="translate(1.7398019,-2.4758731)" /><g
     inkscape:groupmode="layer"
     id="layer2"
     inkscape:label="Regionen"
     style="display:inline"
     transform="translate(1.7398019,-2.4758731)"><path
       id="areaFr"
       style="fill:#000000;fill-opacity:1;stroke:#646464;stroke-width:3.357;stroke-linejoin:round;stroke-miterlimit:3.8637;stroke-dasharray:none"
       d="m 723.3127,4.8030693 c -20.30869,9.0049697 -71.03408,44.5560397 -30.01332,63.4680797 26.71104,-19.37227 44.58277,-3.77466 25.83998,18.04791 -20.05914,-31.24203 -31.17242,28.807861 -64.66707,8.255221 -28.9801,-54.371531 -85.3545,38.11668 -115.73958,-0.0475 -19.56186,-25.106541 -63.49009,37.80864 -71.30017,4.93142 31.23008,-30.496421 -57.94647,1.83783 -37.97707,20.02784 -13.25142,16.29633 -22.53777,8.09772 -31.68588,32.70064 -27.10374,-0.73404 -65.8706,10.64707 -64.33936,-24.21727 -47.31261,-17.63017 -58.91407,24.88151 -75.59002,53.8309 26.99129,-8.82788 63.76592,2.14986 28.92053,25.38067 -22.79946,28.17362 -48.61548,65.96268 -84.11992,93.24125 5.97298,39.54484 -86.34425,29.35313 -62.36088,79.67785 9.50267,47.96498 -40.25769,61.57265 -68.871536,92.1034 -35.80956,17.44576 -12.24116,47.57762 -39.01758,73.92383 3.96452,26.22437 41.44964,35.44324 10.29548,62.3169 12.45131,34.2479 -58.70435,24.15054 -39.4873304,63.50894 34.3120004,6.87032 82.7704464,-19.32146 87.6881464,-44.3696 -45.020736,-27.55834 15.7941,-70.00509 50.05355,-73.25789 34.61862,-19.85787 116.76209,-10.93633 87.22781,40.52693 52.4078,20.21951 -32.51533,78.91736 29.59326,87.56084 -3.76716,19.85424 -6.12073,28.92286 15.57712,22.45488 20.51747,36.82132 39.16331,107.41286 88.18362,60.01436 44.96082,13.9049 88.24435,-63.15984 126.61834,-5.50341 17.73976,-7.72137 43.76407,16.11425 40.78447,-20.96506 45.0577,-0.80854 25.41996,-51.91916 62.5468,-59.76179 38.73191,-27.07415 -44.27557,-71.79665 26.52129,-74.95344 23.3653,-16.36447 36.28626,-81.62841 72.36502,-49.8181 5.94245,34.5745 -24.25635,77.17171 21.65648,93.84522 8.92104,52.48563 73.50737,20.41585 83.59517,60.61889 -32.795,25.58663 42.0933,56.37556 25.5308,84.87027 33.7781,21.49329 44.879,-34.3106 14.4133,-46.71256 6.0107,-22.19896 -0.4267,-39.63475 24.5867,-49.93197 6.1816,-39.80554 76.6073,-72.30705 51.5574,-128.08897 -14.5055,-30.22748 10.9006,-61.02019 36.1614,-27.7097 29.0833,-36.48469 4.2892,46.66644 30.907,57.02189 25.42645,33.80309 54.60585,2.8619 70.03925,-6.58294 25.3013,-11.9897 68.6532,-23.99143 65.1362,22.63746 5.9765,18.69907 46.6819,40.17383 43.5284,4.6411 -42.4093,-19.60265 29.1426,-65.53465 -28.0643,-60.86284 -28.417,-31.32102 29.9263,-107.60755 51.96,-69.88301 9.5744,42.64702 99.6981,16.09012 51.9895,-11.4113 -44.6725,-31.20957 52.232,-110.5767 -7.738,-140.15831 -20.3331,-16.82511 -23.961,32.49503 -49.2855,27.80353 -3.2524,49.9996 -55.7334,10.49173 -79.2148,-1.88812 -36.8541,-6.1882 0.2715,-52.10299 -45.1992,-47.65966 -22.8068,-18.98929 -104.81535,12.05405 -68.64105,-33.8861 -34.0162,-49.32023 41.04795,-86.30623 35.14935,-132.41644 -23.89559,-28.22829 -74.71695,-9.06845 -86.75595,-55.96191 -38.022,-28.760691 -83.1078,-46.599351 -127.3889,-30.161301 0.6404,-15.66847 -35.37385,-48.65524 -23.8205,-9.19515 C 753.78214,38.995829 752.89749,1.5511793 731.82828,17.023889 728.22272,11.840369 737.1728,1.5652293 723.3127,4.8030893 Z" /><circle
       style="fill:#f10000;fill-opacity:1;stroke:#000000;stroke-width:0"
       id="path35844"
       cx="780.15295"
       cy="588.28607"
       r="36.470566" /><circle
       style="fill:#e20613;fill-opacity:1;stroke:#000000;stroke-width:0"
       id="circle35846"
       cx="780.15295"
       cy="588.28607"
       r="36.470566" /><circle
       style="display:inline;fill:#f5c400;fill-opacity:1;stroke:#000000;stroke-width:0"
       id="circle35846-4"
       cx="783.32428"
       cy="179.18149"
       r="36.470566" /><circle
       style="display:inline;fill:#77adce;fill-opacity:1;stroke:#000000;stroke-width:0"
       id="circle35846-9"
       cx="377.39105"
       cy="364.70563"
       r="36.470566" /></g></svg>
